SplineFontDB: 3.2
FontName: LEMONMILK-Medium
FullName: LEMON MILK Medium
FamilyName: LEMON MILK Medium
Weight: Medium
Copyright: Copyright \\(c\\) 2020 by MARSNEV. All rights reserved.
Version: 001.000
ItalicAngle: 0
UnderlinePosition: -100
UnderlineWidth: 50
Ascent: 1638
Descent: 410
InvalidEm: 0
sfntRevision: 0x00010000
LayerCount: 2
Layer: 0 0 "Back" 1
Layer: 1 0 "Fore" 0
XUID: [1021 241 -10286101 14101713]
StyleMap: 0x0040
FSType: 8
OS2Version: 4
OS2_WeightWidthSlopeOnly: 0
OS2_UseTypoMetrics: 1
CreationTime: 1579032656
ModificationTime: 1635461837
PfmFamily: 81
TTFWeight: 500
TTFWidth: 5
LineGap: 50
VLineGap: 0
Panose: 0 0 6 0 0 0 0 0 0 0
OS2TypoAscent: 2216
OS2TypoAOffset: 0
OS2TypoDescent: -500
OS2TypoDOffset: 0
OS2TypoLinegap: 50
OS2WinAscent: 2250
OS2WinAOffset: 0
OS2WinDescent: 670
OS2WinDOffset: 0
HheadAscent: 2216
HheadAOffset: 0
HheadDescent: -500
HheadDOffset: 0
OS2SubXSize: 1331
OS2SubYSize: 1228
OS2SubXOff: 0
OS2SubYOff: 153
OS2SupXSize: 1331
OS2SupYSize: 1228
OS2SupXOff: 0
OS2SupYOff: 716
OS2StrikeYSize: 50
OS2StrikeYPos: 720
OS2CapHeight: 1612
OS2XHeight: 1200
OS2Vendor: 'M   '
OS2CodePages: 20000013.00000000
OS2UnicodeRanges: 00000007.00000000.00000000.00000000
Lookup: 1 0 0 "'aalt' Access All Alternates in Latin lookup 0" { "'aalt' Access All Alternates in Latin lookup 0 subtable"  } ['aalt' ('DFLT' <'dflt' > 'latn' <'AZE ' 'CRT ' 'KAZ ' 'MOL ' 'ROM ' 'TAT ' 'TRK ' 'dflt' > ) ]
Lookup: 3 0 0 "'aalt' Access All Alternates in Latin lookup 1" { "'aalt' Access All Alternates in Latin lookup 1 subtable"  } ['aalt' ('DFLT' <'dflt' > 'latn' <'AZE ' 'CRT ' 'KAZ ' 'MOL ' 'ROM ' 'TAT ' 'TRK ' 'dflt' > ) ]

StartChar: .notdef
Encoding: 65536 -1 0
Width: 1332
Flags: MW
HStem: 0 97<316 1017 316 1132> 1514 98<316 1017 316 316>
VStem: 200 116<97 97 97 1514> 1017 115<97 1514 1514 1514>
LayerCount: 2
Fore
SplineSet
200 0 m 1
 200 1612 l 1
 1132 1612 l 1
 1132 0 l 1
 200 0 l 1
316 97 m 1
 1017 97 l 1
 1017 1514 l 1
 316 1514 l 1
 316 97 l 1
EndSplineSet
EndChar

StartChar: A
Encoding: 65 65 2
AltUni2: 000061.ffffffff.0
Width: 1593
GlyphClass: 2
Flags: MW
HStem: 0 21G<21 371 21 21 1221 1572 1221 1221> 225 276<600 993 600 1119 474 993> 1632 20G<791 801 801 801>
VStem: 21 1551<0 0>
AnchorPoint: "Anchor-6" 797 1612 basechar 0
AnchorPoint: "Anchor-5" 1532 0 basechar 0
AnchorPoint: "Anchor-4" 797 0 basechar 0
LayerCount: 2
Fore
SplineSet
1221 0 m 1
 1119 225 l 1
 474 225 l 1
 371 0 l 1
 21 0 l 1
 791 1652 l 1
 801 1652 l 1
 1572 0 l 1
 1221 0 l 1
600 501 m 1
 993 501 l 1
 797 932 l 1
 600 501 l 1
EndSplineSet
EndChar

StartChar: Aacute
Encoding: 193 193 3
AltUni2: 0000e1.ffffffff.0
Width: 1593
GlyphClass: 2
Flags: MW
HStem: 0 21G<21 371 21 21 1221 1572 1221 1221> 225 276<600 993 600 1119 474 993> 1632 20G<791 801 801 801> 1745 327<825 867 638 1105>
VStem: 21 1551<0 0>
AnchorPoint: "Anchor-6" 887 2062 basechar 0
AnchorPoint: "Anchor-5" 1532 0 basechar 0
AnchorPoint: "Anchor-4" 797 0 basechar 0
LayerCount: 2
Fore
SplineSet
1105 2072 m 1
 867 1745 l 1
 638 1745 l 1
 825 2072 l 1
 1105 2072 l 1
1221 0 m 1
 1119 225 l 1
 474 225 l 1
 371 0 l 1
 21 0 l 1
 791 1652 l 1
 801 1652 l 1
 1572 0 l 1
 1221 0 l 1
600 501 m 1
 993 501 l 1
 797 932 l 1
 600 501 l 1
EndSplineSet
EndChar

StartChar: Abreve
Encoding: 258 258 4
AltUni2: 000103.ffffffff.0
Width: 1593
GlyphClass: 2
Flags: MW
HStem: 0 21G<21 371 21 21 1221 1572 1221 1221> 225 276<600 993 600 1119 474 993> 1632 20G<791 801 801 801> 1763 141<758.5 836 758.5 877> 1763 291<507 877>
VStem: 507 150<2012.5 2054 2012.5 2054> 938 150<2012.5 2054>
AnchorPoint: "Anchor-6" 798 2054 basechar 0
AnchorPoint: "Anchor-5" 1532 0 basechar 0
AnchorPoint: "Anchor-4" 797 0 basechar 0
LayerCount: 2
Fore
SplineSet
797 1763 m 0xf6
 637 1763 507 1894 507 2054 c 1
 657 2054 l 1xee
 657 1971 720 1904 797 1904 c 0xf6
 875 1904 938 1971 938 2054 c 1
 1088 2054 l 1xee
 1088 1894 957 1763 797 1763 c 0xf6
1221 0 m 1
 1119 225 l 1
 474 225 l 1
 371 0 l 1
 21 0 l 1
 791 1652 l 1
 801 1652 l 1
 1572 0 l 1
 1221 0 l 1
600 501 m 1
 993 501 l 1
 797 932 l 1
 600 501 l 1
EndSplineSet
EndChar

StartChar: Acircumflex
Encoding: 194 194 5
AltUni2: 0000e2.ffffffff.0
Width: 1593
GlyphClass: 2
Flags: MW
HStem: 0 21G<21 371 21 21 1221 1572 1221 1221> 225 276<600 993 600 1119 474 993> 1632 20G<791 801 801 801> 1759 293<391 885 706 945 706 1204>
VStem: 21 1551<0 0>
AnchorPoint: "Anchor-6" 798 2052 basechar 0
AnchorPoint: "Anchor-5" 1532 0 basechar 0
AnchorPoint: "Anchor-4" 797 0 basechar 0
LayerCount: 2
Fore
SplineSet
796 1906 m 1
 648 1759 l 1
 391 1759 l 1
 706 2052 l 1
 885 2052 l 1
 1204 1759 l 1
 945 1759 l 1
 796 1906 l 1
1221 0 m 1
 1119 225 l 1
 474 225 l 1
 371 0 l 1
 21 0 l 1
 791 1652 l 1
 801 1652 l 1
 1572 0 l 1
 1221 0 l 1
600 501 m 1
 993 501 l 1
 797 932 l 1
 600 501 l 1
EndSplineSet
EndChar

StartChar: Adieresis
Encoding: 196 196 6
AltUni2: 0000e4.ffffffff.0
Width: 1593
GlyphClass: 2
Flags: MW
HStem: 0 21G<21 371 21 21 1221 1572 1221 1221> 225 276<600 993 600 1119 474 993> 1632 20G<791 801 801 801> 1778 241<540 605.5 988.5 1054>
VStem: 452 241<1865 1930.5> 901 241<1865 1930.5>
AnchorPoint: "Anchor-6" 797 2019 basechar 0
AnchorPoint: "Anchor-5" 1532 0 basechar 0
AnchorPoint: "Anchor-4" 797 0 basechar 0
LayerCount: 2
Fore
SplineSet
573 1778 m 0
 507 1778 452 1832 452 1898 c 0
 452 1963 507 2019 573 2019 c 0
 638 2019 693 1963 693 1898 c 0
 693 1832 638 1778 573 1778 c 0
1021 1778 m 0
 955 1778 901 1832 901 1898 c 0
 901 1963 956 2019 1021 2019 c 0
 1087 2019 1142 1963 1142 1898 c 0
 1142 1832 1087 1778 1021 1778 c 0
1221 0 m 1
 1119 225 l 1
 474 225 l 1
 371 0 l 1
 21 0 l 1
 791 1652 l 1
 801 1652 l 1
 1572 0 l 1
 1221 0 l 1
600 501 m 1
 993 501 l 1
 797 932 l 1
 600 501 l 1
EndSplineSet
EndChar

StartChar: Agrave
Encoding: 192 192 7
AltUni2: 0000e0.ffffffff.0
Width: 1593
GlyphClass: 2
Flags: MW
HStem: 0 21G<21 371 21 21 1221 1572 1221 1221> 225 276<600 993 600 1119 474 993> 1632 20G<791 801 801 801> 1745 327<802 844 564 1031 802 802>
VStem: 21 1551<0 0>
AnchorPoint: "Anchor-6" 798 2072 basechar 0
AnchorPoint: "Anchor-5" 1532 0 basechar 0
AnchorPoint: "Anchor-4" 797 0 basechar 0
LayerCount: 2
Fore
SplineSet
1031 1745 m 1
 802 1745 l 1
 564 2072 l 1
 844 2072 l 1
 1031 1745 l 1
1221 0 m 1
 1119 225 l 1
 474 225 l 1
 371 0 l 1
 21 0 l 1
 791 1652 l 1
 801 1652 l 1
 1572 0 l 1
 1221 0 l 1
600 501 m 1
 993 501 l 1
 797 932 l 1
 600 501 l 1
EndSplineSet
EndChar

StartChar: Amacron
Encoding: 256 256 8
AltUni2: 000101.ffffffff.0
Width: 1593
GlyphClass: 2
Flags: MW
HStem: 0 21G<21 371 21 21 1221 1572 1221 1221> 225 276<600 993 600 1119 474 993> 1632 20G<791 801 801 801> 1808 162<506 1088 506 1088>
VStem: 506 582<1808 1970 1808 1970>
AnchorPoint: "Anchor-6" 797 1970 basechar 0
AnchorPoint: "Anchor-5" 1532 0 basechar 0
AnchorPoint: "Anchor-4" 797 0 basechar 0
LayerCount: 2
Fore
SplineSet
1088 1970 m 1
 1088 1808 l 1
 506 1808 l 1
 506 1970 l 1
 1088 1970 l 1
1221 0 m 1
 1119 225 l 1
 474 225 l 1
 371 0 l 1
 21 0 l 1
 791 1652 l 1
 801 1652 l 1
 1572 0 l 1
 1221 0 l 1
600 501 m 1
 993 501 l 1
 797 932 l 1
 600 501 l 1
EndSplineSet
EndChar

StartChar: Aogonek
Encoding: 260 260 9
AltUni2: 000105.ffffffff.0
Width: 1593
GlyphClass: 2
Flags: MW
HStem: -554 228<1364.5 1404> 0 21G<21 371 21 21 1221 1313 1221 1221 1532 1532 1532 1572> 225 276<600 993 600 1119 474 993> 1632 20G<791 801 801 801>
VStem: 1097 229<-254.5 -249>
AnchorPoint: "Anchor-6" 797 1612 basechar 0
AnchorPoint: "Anchor-5" 1532 0 basechar 0
AnchorPoint: "Anchor-4" 797 0 basechar 0
LayerCount: 2
Fore
SplineSet
1398 -326 m 0
 1417 -326 1462 -321 1511 -310 c 1
 1546 -534 l 1
 1484 -548 1428 -554 1380 -554 c 0
 1198 -554 1097 -466 1097 -320 c 0
 1097 -178 1192 -60 1313 0 c 1
 1221 0 l 1
 1119 225 l 1
 474 225 l 1
 371 0 l 1
 21 0 l 1
 791 1652 l 1
 801 1652 l 1
 1572 0 l 1
 1532 0 l 1
 1391 -103 1326 -168 1326 -244 c 0
 1326 -265 1331 -326 1398 -326 c 0
600 501 m 1
 993 501 l 1
 797 932 l 1
 600 501 l 1
EndSplineSet
EndChar

StartChar: Aring
Encoding: 197 197 10
AltUni2: 0000e5.ffffffff.0
Width: 1593
GlyphClass: 2
Flags: MW
HStem: 0 21G<21 371 21 21 1221 1572 1221 1221> 225 276<600 993 600 1119 474 993> 1632 20G<791 801 801 801> 1708 131<773 823 773 858> 2020 132<773 823>
VStem: 576 131<1904 1954 1904 1991> 888 131<1904 1954>
AnchorPoint: "Anchor-6" 798 2152 basechar 0
AnchorPoint: "Anchor-5" 1532 0 basechar 0
AnchorPoint: "Anchor-4" 797 0 basechar 0
LayerCount: 2
Fore
SplineSet
798 1708 m 0
 676 1708 576 1808 576 1930 c 0
 576 2052 676 2152 798 2152 c 0
 918 2152 1019 2051 1019 1930 c 0
 1019 1809 918 1708 798 1708 c 0
798 2020 m 0
 748 2020 707 1979 707 1929 c 0
 707 1879 748 1839 798 1839 c 0
 848 1839 888 1879 888 1929 c 0
 888 1979 848 2020 798 2020 c 0
1221 0 m 1
 1119 225 l 1
 474 225 l 1
 371 0 l 1
 21 0 l 1
 791 1652 l 1
 801 1652 l 1
 1572 0 l 1
 1221 0 l 1
600 501 m 1
 993 501 l 1
 797 932 l 1
 600 501 l 1
EndSplineSet
EndChar

StartChar: Atilde
Encoding: 195 195 11
AltUni2: 0000e3.ffffffff.0
Width: 1593
GlyphClass: 2
Flags: MW
HStem: 0 21G<21 371 21 21 1221 1572 1221 1221> 225 276<600 993 600 1119 474 993> 1632 20G<791 801 801 801> 1769 166<899 979.5 899 984.5> 1896 166<614 695>
VStem: 21 1551<0 0>
AnchorPoint: "Anchor-6" 797 2007 basechar 0
AnchorPoint: "Anchor-5" 1532 0 basechar 0
AnchorPoint: "Anchor-4" 797 0 basechar 0
LayerCount: 2
Fore
SplineSet
645 1896 m 0xec
 583 1896 557 1842 541 1769 c 1
 386 1829 l 1
 429 2040 574 2062 645 2062 c 0xec
 797 2062 849 1935 949 1935 c 0
 1010 1935 1037 1989 1053 2062 c 1
 1208 2002 l 1
 1165 1791 1020 1769 949 1769 c 0xf4
 797 1769 745 1896 645 1896 c 0xec
1221 0 m 1
 1119 225 l 1
 474 225 l 1
 371 0 l 1
 21 0 l 1
 791 1652 l 1
 801 1652 l 1
 1572 0 l 1
 1221 0 l 1
600 501 m 1
 993 501 l 1
 797 932 l 1
 600 501 l 1
EndSplineSet
EndChar

StartChar: AE
Encoding: 198 198 12
AltUni2: 0000e6.ffffffff.0
Width: 2051
GlyphClass: 2
Flags: MW
HStem: 0 322<1305 1953 1305 1953> 248 287<635 981 635 981 493 981> 655 323<1305 1861 1305 1861> 1293 319<1305 1953 1305 1305>
VStem: 981 324<0 655 248 655 535 655 978 1231 1231 1231>
AnchorPoint: "Anchor-6" 1002 1612 basechar 0
AnchorPoint: "Anchor-5" 1953 0 basechar 0
AnchorPoint: "Anchor-4" 1002 0 basechar 0
LayerCount: 2
Fore
SplineSet
1953 1293 m 1xb8
 1305 1293 l 1
 1305 978 l 1
 1861 978 l 1
 1861 655 l 1
 1305 655 l 1
 1305 322 l 1
 1953 322 l 1
 1953 0 l 1
 981 0 l 1xb8
 981 248 l 1
 493 248 l 1x78
 370 0 l 1
 21 0 l 1
 805 1612 l 1
 1953 1612 l 1
 1953 1293 l 1xb8
635 535 m 1x78
 981 535 l 1
 981 1231 l 1
 635 535 l 1x78
EndSplineSet
EndChar

StartChar: B
Encoding: 66 66 13
AltUni2: 000062.ffffffff.0
Width: 1294
GlyphClass: 2
Flags: MW
HStem: 0 316<463 719 719 749> 698 210<463 973.5> 698 284<463 594 594 632.5 463 718 463 594> 1297 315<463 580 580 600 463 463>
VStem: 140 323<316 698 982 1297> 746 302<1099.5 1187.5> 936 316<450 558.5>
AnchorPoint: "Anchor-6" 671 1612 basechar 0
AnchorPoint: "Anchor-4" 671 0 basechar 0
LayerCount: 2
Fore
SplineSet
896 908 m 1xda
 1051 908 1252 748 1252 489 c 0xba
 1252 251 1081 0 749 0 c 2
 140 0 l 1
 140 1612 l 1
 580 1612 l 2
 866 1612 1048 1402 1048 1185 c 0xdc
 1048 1014 935 908 896 908 c 1xda
600 1297 m 2xbc
 463 1297 l 1
 463 982 l 1
 594 982 l 2
 671 982 746 1048 746 1142 c 0
 746 1233 675 1297 600 1297 c 2xbc
719 316 m 2xba
 824 316 936 388 936 512 c 0
 936 605 872 698 718 698 c 2
 463 698 l 1
 463 316 l 1
 719 316 l 2xba
EndSplineSet
EndChar

StartChar: C
Encoding: 67 67 14
AltUni2: 000063.ffffffff.0
Width: 1514
GlyphClass: 2
Flags: MW
HStem: -31 325<778.5 977 778.5 1035> 1315 330<774.5 907 680 973.5> 1376 20G<1472 1472>
VStem: 70 328<659.5 944 659.5 1032.5>
AnchorPoint: "Anchor-6" 849 1612 basechar 0
AnchorPoint: "Anchor-4" 879 0 basechar 0
LayerCount: 2
Fore
SplineSet
913 -31 m 0xb0
 448 -31 70 352 70 805 c 0
 70 1260 453 1645 907 1645 c 0xd0
 1117 1642 1303 1559 1472 1396 c 1xb0
 1285 1141 l 1
 1175 1249 1043 1315 904 1315 c 0xd0
 645 1315 398 1085 398 803 c 0
 398 516 654 294 903 294 c 0
 1051 294 1179 373 1286 478 c 1
 1472 216 l 1
 1330 75 1157 -31 913 -31 c 0xb0
EndSplineSet
EndChar

StartChar: Cacute
Encoding: 262 262 15
AltUni2: 000107.ffffffff.0
Width: 1514
GlyphClass: 2
Flags: MW
HStem: -31 325<778.5 977 778.5 1035> 1315 330<774.5 907 680 973.5> 1376 20G<1472 1472> 1745 327<877 919 690 1157>
VStem: 70 328<659.5 944 659.5 1032.5>
AnchorPoint: "Anchor-6" 939 2062 basechar 0
AnchorPoint: "Anchor-4" 879 0 basechar 0
LayerCount: 2
Fore
SplineSet
919 1745 m 1xb8
 690 1745 l 1
 877 2072 l 1
 1157 2072 l 1
 919 1745 l 1xb8
913 -31 m 0
 448 -31 70 352 70 805 c 0
 70 1260 453 1645 907 1645 c 0xd8
 1117 1642 1303 1559 1472 1396 c 1xb8
 1285 1141 l 1
 1175 1249 1043 1315 904 1315 c 0xd8
 645 1315 398 1085 398 803 c 0
 398 516 654 294 903 294 c 0
 1051 294 1179 373 1286 478 c 1
 1472 216 l 1
 1330 75 1157 -31 913 -31 c 0
EndSplineSet
EndChar

StartChar: Ccaron
Encoding: 268 268 16
AltUni2: 00010d.ffffffff.0
Width: 1514
GlyphClass: 2
Flags: MW
HStem: -31 325<778.5 977 778.5 1035> 1315 330<774.5 907 680 973.5> 1376 20G<1472 1472> 1759 293<443 937 443 758>
VStem: 70 328<659.5 944 659.5 1032.5>
AnchorPoint: "Anchor-6" 850 2062 basechar 0
AnchorPoint: "Anchor-4" 879 0 basechar 0
LayerCount: 2
Fore
SplineSet
443 2052 m 1xb8
 700 2052 l 1
 848 1905 l 1
 997 2052 l 1
 1256 2052 l 1
 937 1759 l 1
 758 1759 l 1
 443 2052 l 1xb8
913 -31 m 0
 448 -31 70 352 70 805 c 0
 70 1260 453 1645 907 1645 c 0xd8
 1117 1642 1303 1559 1472 1396 c 1xb8
 1285 1141 l 1
 1175 1249 1043 1315 904 1315 c 0xd8
 645 1315 398 1085 398 803 c 0
 398 516 654 294 903 294 c 0
 1051 294 1179 373 1286 478 c 1
 1472 216 l 1
 1330 75 1157 -31 913 -31 c 0
EndSplineSet
EndChar

StartChar: Ccedilla
Encoding: 199 199 17
AltUni2: 0000e7.ffffffff.0
Width: 1514
GlyphClass: 2
Flags: MW
HStem: -550 196<677 689 596 791> -24 21G<802 802> 1315 330<774.5 907 680 973.5> 1376 20G<1472 1472>
VStem: 70 328<659.5 944 659.5 1032.5> 858 220<-290 -249.5>
AnchorPoint: "Anchor-6" 849 1612 basechar 0
AnchorPoint: "Anchor-4" 849 -550 basechar 0
LayerCount: 2
Fore
SplineSet
1472 216 m 1xd8
 1338 83 1177 -19 954 -30 c 1
 901 -97 l 1
 917 -95 927 -94 943 -94 c 0
 1016 -94 1078 -161 1078 -253 c 0
 1078 -410 905 -550 677 -550 c 1
 596 -354 l 1
 782 -354 858 -317 858 -263 c 0
 858 -236 839 -210 785 -210 c 0
 771 -210 754 -212 735 -216 c 1
 695 -164 l 1
 802 -24 l 1
 389 31 70 389 70 805 c 0
 70 1260 453 1645 907 1645 c 0xec
 1117 1642 1303 1559 1472 1396 c 1xd8
 1285 1141 l 1
 1175 1249 1043 1315 904 1315 c 0xe8
 645 1315 398 1085 398 803 c 0
 398 516 654 294 903 294 c 0
 1051 294 1179 373 1286 478 c 1
 1472 216 l 1xd8
EndSplineSet
EndChar

StartChar: Cdotaccent
Encoding: 266 266 18
AltUni2: 00010b.ffffffff.0
Width: 1514
GlyphClass: 2
Flags: MW
HStem: -31 325<778.5 977 778.5 1035> 1315 330<774.5 907 680 973.5> 1376 20G<1472 1472> 1776 280<811.5 888 811.5 888>
VStem: 70 328<659.5 944 659.5 1032.5> 710 280<1876.5 1952>
AnchorPoint: "Anchor-6" 850 2041 basechar 0
AnchorPoint: "Anchor-4" 879 0 basechar 0
LayerCount: 2
Fore
SplineSet
850 1776 m 0xbc
 772 1776 710 1839 710 1914 c 0
 710 1990 773 2056 850 2056 c 0
 926 2056 990 1990 990 1915 c 0
 990 1838 926 1776 850 1776 c 0xbc
913 -31 m 0
 448 -31 70 352 70 805 c 0
 70 1260 453 1645 907 1645 c 0xdc
 1117 1642 1303 1559 1472 1396 c 1xbc
 1285 1141 l 1
 1175 1249 1043 1315 904 1315 c 0xdc
 645 1315 398 1085 398 803 c 0
 398 516 654 294 903 294 c 0
 1051 294 1179 373 1286 478 c 1
 1472 216 l 1
 1330 75 1157 -31 913 -31 c 0
EndSplineSet
EndChar

StartChar: D
Encoding: 68 68 19
AltUni2: 000064.ffffffff.0
Width: 1518
GlyphClass: 2
Flags: MW
HStem: 0 805
VStem: 0 1334
AnchorPoint: "Anchor-7" 759 806 basechar 0
AnchorPoint: "Anchor-6" 759 1612 basechar 0
AnchorPoint: "Anchor-4" 759 0 basechar 0
LayerCount: 2
Fore
SplineSet
609 1612 m 2
 1130 1613 1448 1307 1448 804 c 0
 1448 304 1130 0 609 0 c 2
 140 0 l 1xc0
 140 1611 l 1
 609 1612 l 2
611 323 m 2
 928 323 1121 505 1121 805 c 0xc0
 1121 1107 927 1291 608 1291 c 2
 463 1291 l 1
 463 323 l 1
 611 323 l 2
EndSplineSet
EndChar

StartChar: Eth
Encoding: 208 208 20
AltUni2: 0000f0.ffffffff.0
Width: 1594
GlyphClass: 2
Flags: MW
HStem: 0 805
VStem: 76 1334
AnchorPoint: "Anchor-7" 835 806 basechar 0
AnchorPoint: "Anchor-6" 835 1612 basechar 0
AnchorPoint: "Anchor-4" 835 0 basechar 0
LayerCount: 2
Fore
SplineSet
685 1612 m 2
 1206 1613 1524 1307 1524 804 c 0
 1524 304 1206 0 685 0 c 2
 216 0 l 1xc0
 216 693 l 1
 42 693 l 1
 42 905 l 1
 216 905 l 1
 216 1611 l 1
 685 1612 l 2
687 323 m 2
 1004 323 1197 505 1197 805 c 0xc0
 1197 1107 1003 1291 684 1291 c 2
 539 1291 l 1
 539 904 l 1
 794 904 l 1
 794 693 l 1
 539 693 l 1
 539 323 l 1
 687 323 l 2
EndSplineSet
EndChar

StartChar: Dcaron
Encoding: 270 270 21
AltUni2: 00010f.ffffffff.0
Width: 1518
GlyphClass: 2
Flags: MW
HStem: 0 805 1759 293<353 847 353 668>
VStem: 353 813<2052 2052>
AnchorPoint: "Anchor-7" 759 806 basechar 0
AnchorPoint: "Anchor-6" 760 2062 basechar 0
AnchorPoint: "Anchor-4" 759 0 basechar 0
LayerCount: 2
Fore
SplineSet
847 1759 m 1
 668 1759 l 1
 353 2052 l 1
 610 2052 l 1
 758 1905 l 1
 907 2052 l 1
 1166 2052 l 1
 847 1759 l 1
609 1612 m 2
 1130 1613 1448 1307 1448 804 c 0
 1448 304 1130 0 609 0 c 2
 140 0 l 1xe0
 140 1611 l 1
 609 1612 l 2
611 323 m 2
 928 323 1121 505 1121 805 c 0xe0
 1121 1107 927 1291 608 1291 c 2
 463 1291 l 1
 463 323 l 1
 611 323 l 2
EndSplineSet
EndChar

StartChar: Dcroat
Encoding: 272 272 22
AltUni2: 000111.ffffffff.0
Width: 1594
GlyphClass: 2
Flags: MW
HStem: 0 805
VStem: 76 1334
AnchorPoint: "Anchor-7" 835 806 basechar 0
AnchorPoint: "Anchor-6" 835 1612 basechar 0
AnchorPoint: "Anchor-4" 835 0 basechar 0
LayerCount: 2
Fore
SplineSet
685 1612 m 2
 1206 1613 1524 1307 1524 804 c 0
 1524 304 1206 0 685 0 c 2
 216 0 l 1xc0
 216 693 l 1
 42 693 l 1
 42 905 l 1
 216 905 l 1
 216 1611 l 1
 685 1612 l 2
687 323 m 2
 1004 323 1197 505 1197 805 c 0xc0
 1197 1107 1003 1291 684 1291 c 2
 539 1291 l 1
 539 904 l 1
 794 904 l 1
 794 693 l 1
 539 693 l 1
 539 323 l 1
 687 323 l 2
EndSplineSet
EndChar

StartChar: E
Encoding: 69 69 23
AltUni2: 000065.ffffffff.0
Width: 1210
GlyphClass: 2
Flags: MW
HStem: 0 322<464 1112 464 1112> 655 323<464 1020 464 1020> 1293 319<464 1112 464 464>
VStem: 140 324<322 655 978 1293>
AnchorPoint: "Anchor-6" 596 1612 basechar 0
AnchorPoint: "Anchor-5" 1112 0 basechar 0
AnchorPoint: "Anchor-4" 596 0 basechar 0
LayerCount: 2
Fore
SplineSet
1112 1293 m 1
 464 1293 l 1
 464 978 l 1
 1020 978 l 1
 1020 655 l 1
 464 655 l 1
 464 322 l 1
 1112 322 l 1
 1112 0 l 1
 140 0 l 1
 140 1612 l 1
 1112 1612 l 1
 1112 1293 l 1
EndSplineSet
EndChar

StartChar: Eacute
Encoding: 201 201 24
AltUni2: 0000e9.ffffffff.0
Width: 1210
GlyphClass: 2
Flags: MW
HStem: 0 322<464 1112 464 1112> 655 323<464 1020 464 1020> 1293 319<464 1112 464 464> 1745 327<624 666 437 904>
VStem: 140 324<322 655 978 1293>
AnchorPoint: "Anchor-6" 686 2062 basechar 0
AnchorPoint: "Anchor-5" 1112 0 basechar 0
AnchorPoint: "Anchor-4" 596 0 basechar 0
LayerCount: 2
Fore
SplineSet
904 2072 m 1
 666 1745 l 1
 437 1745 l 1
 624 2072 l 1
 904 2072 l 1
1112 1293 m 1
 464 1293 l 1
 464 978 l 1
 1020 978 l 1
 1020 655 l 1
 464 655 l 1
 464 322 l 1
 1112 322 l 1
 1112 0 l 1
 140 0 l 1
 140 1612 l 1
 1112 1612 l 1
 1112 1293 l 1
EndSplineSet
EndChar

StartChar: Ebreve
Encoding: 276 276 25
AltUni2: 000115.ffffffff.0
Width: 1210
GlyphClass: 2
Flags: MW
HStem: 0 322<464 1112 464 1112> 655 323<464 1020 464 1020> 1293 319<464 1112 464 464> 1763 141<557.5 635 557.5 676> 1763 291<306 676>
VStem: 140 324<322 655 978 1293> 306 150<2012.5 2054 2012.5 2054> 737 150<2012.5 2054>
AnchorPoint: "Anchor-6" 597 2054 basechar 0
AnchorPoint: "Anchor-5" 1112 0 basechar 0
AnchorPoint: "Anchor-4" 596 0 basechar 0
LayerCount: 2
Fore
SplineSet
596 1763 m 0xf2
 436 1763 306 1894 306 2054 c 1
 456 2054 l 1xea
 456 1971 519 1904 596 1904 c 0xf5
 674 1904 737 1971 737 2054 c 1
 887 2054 l 1xed
 887 1894 756 1763 596 1763 c 0xf2
1112 1293 m 1xf4
 464 1293 l 1
 464 978 l 1
 1020 978 l 1
 1020 655 l 1
 464 655 l 1
 464 322 l 1
 1112 322 l 1
 1112 0 l 1
 140 0 l 1
 140 1612 l 1
 1112 1612 l 1
 1112 1293 l 1xf4
EndSplineSet
EndChar

StartChar: Ecaron
Encoding: 282 282 26
AltUni2: 00011b.ffffffff.0
Width: 1210
GlyphClass: 2
Flags: MW
HStem: 0 322<464 1112 464 1112> 655 323<464 1020 464 1020> 1293 319<464 1112 464 464> 1759 293<190 684 190 505>
VStem: 140 324<322 655 978 1293>
AnchorPoint: "Anchor-6" 597 2062 basechar 0
AnchorPoint: "Anchor-5" 1112 0 basechar 0
AnchorPoint: "Anchor-4" 596 0 basechar 0
LayerCount: 2
Fore
SplineSet
684 1759 m 1
 505 1759 l 1
 190 2052 l 1
 447 2052 l 1
 595 1905 l 1
 744 2052 l 1
 1003 2052 l 1
 684 1759 l 1
1112 1293 m 1
 464 1293 l 1
 464 978 l 1
 1020 978 l 1
 1020 655 l 1
 464 655 l 1
 464 322 l 1
 1112 322 l 1
 1112 0 l 1
 140 0 l 1
 140 1612 l 1
 1112 1612 l 1
 1112 1293 l 1
EndSplineSet
EndChar

StartChar: Ecircumflex
Encoding: 202 202 27
AltUni2: 0000ea.ffffffff.0
Width: 1210
GlyphClass: 2
Flags: MW
HStem: 0 322<464 1112 464 1112> 655 323<464 1020 464 1020> 1293 319<464 1112 464 464> 1759 293<190 684 505 744 505 1003>
VStem: 140 324<322 655 978 1293>
AnchorPoint: "Anchor-6" 597 2052 basechar 0
AnchorPoint: "Anchor-5" 1112 0 basechar 0
AnchorPoint: "Anchor-4" 596 0 basechar 0
LayerCount: 2
Fore
SplineSet
595 1906 m 1
 447 1759 l 1
 190 1759 l 1
 505 2052 l 1
 684 2052 l 1
 1003 1759 l 1
 744 1759 l 1
 595 1906 l 1
1112 1293 m 1
 464 1293 l 1
 464 978 l 1
 1020 978 l 1
 1020 655 l 1
 464 655 l 1
 464 322 l 1
 1112 322 l 1
 1112 0 l 1
 140 0 l 1
 140 1612 l 1
 1112 1612 l 1
 1112 1293 l 1
EndSplineSet
EndChar

StartChar: Edieresis
Encoding: 203 203 28
AltUni2: 0000eb.ffffffff.0
Width: 1210
GlyphClass: 2
Flags: MW
HStem: 0 322<464 1112 464 1112> 655 323<464 1020 464 1020> 1293 319<464 1112 464 464> 1778 241<339 404.5 787.5 853>
VStem: 140 324<322 655 978 1293> 251 241<1865 1930.5> 700 241<1865 1930.5>
AnchorPoint: "Anchor-6" 596 2019 basechar 0
AnchorPoint: "Anchor-5" 1112 0 basechar 0
AnchorPoint: "Anchor-4" 596 0 basechar 0
LayerCount: 2
Fore
SplineSet
372 1778 m 0xf6
 306 1778 251 1832 251 1898 c 0
 251 1963 306 2019 372 2019 c 0
 437 2019 492 1963 492 1898 c 0
 492 1832 437 1778 372 1778 c 0xf6
820 1778 m 0
 754 1778 700 1832 700 1898 c 0
 700 1963 755 2019 820 2019 c 0
 886 2019 941 1963 941 1898 c 0
 941 1832 886 1778 820 1778 c 0
1112 1293 m 1
 464 1293 l 1
 464 978 l 1
 1020 978 l 1
 1020 655 l 1
 464 655 l 1
 464 322 l 1
 1112 322 l 1
 1112 0 l 1
 140 0 l 1
 140 1612 l 1xe8
 1112 1612 l 1
 1112 1293 l 1
EndSplineSet
EndChar

StartChar: Edotaccent
Encoding: 278 278 29
AltUni2: 000117.ffffffff.0
Width: 1210
GlyphClass: 2
Flags: MW
HStem: 0 322<464 1112 464 1112> 655 323<464 1020 464 1020> 1293 319<464 1112 464 464> 1776 280<558.5 635 558.5 635>
VStem: 140 324<322 655 978 1293> 457 280<1876.5 1952>
AnchorPoint: "Anchor-6" 597 2041 basechar 0
AnchorPoint: "Anchor-5" 1112 0 basechar 0
AnchorPoint: "Anchor-4" 596 0 basechar 0
LayerCount: 2
Fore
SplineSet
597 1776 m 0xf4
 519 1776 457 1839 457 1914 c 0
 457 1990 520 2056 597 2056 c 0
 673 2056 737 1990 737 1915 c 0
 737 1838 673 1776 597 1776 c 0xf4
1112 1293 m 1
 464 1293 l 1
 464 978 l 1
 1020 978 l 1
 1020 655 l 1
 464 655 l 1
 464 322 l 1
 1112 322 l 1
 1112 0 l 1
 140 0 l 1
 140 1612 l 1xe8
 1112 1612 l 1
 1112 1293 l 1
EndSplineSet
EndChar

StartChar: Egrave
Encoding: 200 200 30
AltUni2: 0000e8.ffffffff.0
Width: 1210
GlyphClass: 2
Flags: MW
HStem: 0 322<464 1112 464 1112> 655 323<464 1020 464 1020> 1293 319<464 1112 464 464> 1745 327<601 643 363 830 601 601>
VStem: 140 324<322 655 978 1293>
AnchorPoint: "Anchor-6" 597 2072 basechar 0
AnchorPoint: "Anchor-5" 1112 0 basechar 0
AnchorPoint: "Anchor-4" 596 0 basechar 0
LayerCount: 2
Fore
SplineSet
830 1745 m 1
 601 1745 l 1
 363 2072 l 1
 643 2072 l 1
 830 1745 l 1
1112 1293 m 1
 464 1293 l 1
 464 978 l 1
 1020 978 l 1
 1020 655 l 1
 464 655 l 1
 464 322 l 1
 1112 322 l 1
 1112 0 l 1
 140 0 l 1
 140 1612 l 1
 1112 1612 l 1
 1112 1293 l 1
EndSplineSet
EndChar

StartChar: Emacron
Encoding: 274 274 31
AltUni2: 000113.ffffffff.0
Width: 1210
GlyphClass: 2
Flags: MW
HStem: 0 322<464 1112 464 1112> 655 323<464 1020 464 1020> 1293 319<464 1112 464 464> 1808 162<305 887 305 887>
VStem: 140 324<322 655 978 1293> 305 582<1808 1970 1808 1970>
AnchorPoint: "Anchor-6" 596 1970 basechar 0
AnchorPoint: "Anchor-5" 1112 0 basechar 0
AnchorPoint: "Anchor-4" 596 0 basechar 0
LayerCount: 2
Fore
SplineSet
887 1970 m 1xf4
 887 1808 l 1
 305 1808 l 1
 305 1970 l 1
 887 1970 l 1xf4
1112 1293 m 1
 464 1293 l 1
 464 978 l 1
 1020 978 l 1
 1020 655 l 1
 464 655 l 1
 464 322 l 1
 1112 322 l 1
 1112 0 l 1
 140 0 l 1
 140 1612 l 1xf8
 1112 1612 l 1
 1112 1293 l 1
EndSplineSet
EndChar

StartChar: Eogonek
Encoding: 280 280 32
AltUni2: 000119.ffffffff.0
Width: 1210
GlyphClass: 2
Flags: MW
HStem: -554 228<944.5 984> 0 322<464 893 464 1112> 655 323<464 1020 464 1020> 1293 319<464 1112 464 464>
VStem: 140 324<322 655 978 1293> 677 229<-254.5 -249>
AnchorPoint: "Anchor-6" 596 1612 basechar 0
AnchorPoint: "Anchor-5" 1112 0 basechar 0
AnchorPoint: "Anchor-4" 596 0 basechar 0
LayerCount: 2
Fore
SplineSet
1091 -310 m 1
 1126 -534 l 1
 1064 -548 1008 -554 960 -554 c 0
 778 -554 677 -466 677 -320 c 0
 677 -178 772 -60 893 0 c 1
 140 0 l 1
 140 1612 l 1
 1112 1612 l 1
 1112 1293 l 1
 464 1293 l 1
 464 978 l 1
 1020 978 l 1
 1020 655 l 1
 464 655 l 1
 464 322 l 1
 1112 322 l 1
 1112 0 l 1
 971 -103 906 -168 906 -244 c 0
 906 -265 911 -326 978 -326 c 0
 997 -326 1042 -321 1091 -310 c 1
EndSplineSet
EndChar

StartChar: F
Encoding: 70 70 33
AltUni2: 000066.ffffffff.0
Width: 1154
GlyphClass: 2
Flags: MW
HStem: -2 21G<140 464 140 140> 645 323<464 1020 464 1020> 1293 323<464 1112 464 464>
VStem: 140 324<-2 645 968 1293>
AnchorPoint: "Anchor-6" 596 1612 basechar 0
AnchorPoint: "Anchor-4" 596 0 basechar 0
LayerCount: 2
Fore
SplineSet
1112 1293 m 1
 464 1293 l 1
 464 968 l 1
 1020 968 l 1
 1020 645 l 1
 464 645 l 1
 464 -2 l 1
 140 -2 l 1
 140 1616 l 1
 1112 1616 l 1
 1112 1293 l 1
EndSplineSet
EndChar

StartChar: G
Encoding: 71 71 34
AltUni2: 000067.ffffffff.0
Width: 1758
GlyphClass: 2
Flags: MW
HStem: -32 326<775.5 1048 775.5 1129> 606 299<922 1339 922 1680> 1317 328<778 907 676.5 975> 1373 20G<1497 1497>
VStem: 70 330<664 954.5 664 1034.5> 1339 349<606 606>
AnchorPoint: "Anchor-6" 907 1612 basechar 0
AnchorPoint: "Anchor-4" 907 0 basechar 0
LayerCount: 2
Fore
SplineSet
1680 905 m 1xdc
 1685 858 1688 813 1688 769 c 0
 1688 263 1339 -32 919 -32 c 0
 444 -32 70 344 70 804 c 0
 70 1265 446 1645 907 1645 c 0xec
 1116 1643 1339 1547 1497 1393 c 1xdc
 1317 1124 l 1
 1191 1247 1047 1317 903 1317 c 0xec
 653 1317 400 1105 400 804 c 0
 400 524 618 294 933 294 c 0
 1163 294 1328 412 1339 606 c 1
 922 606 l 1
 922 905 l 1
 1680 905 l 1xdc
EndSplineSet
EndChar

StartChar: Gbreve
Encoding: 286 286 35
AltUni2: 00011f.ffffffff.0
Width: 1758
GlyphClass: 2
Flags: MW
HStem: -32 326<775.5 1048 775.5 1129> 606 299<922 1339 922 1680> 1317 328<778 907 676.5 975> 1373 20G<1497 1497> 1763 141<868.5 946 868.5 987> 1763 291<617 987>
VStem: 70 330<664 954.5 664 1034.5> 617 150<2012.5 2054 2012.5 2054> 1048 150<2012.5 2054> 1339 349<606 606>
AnchorPoint: "Anchor-6" 908 2054 basechar 0
AnchorPoint: "Anchor-4" 907 0 basechar 0
LayerCount: 2
Fore
SplineSet
907 1763 m 0xdbc0
 747 1763 617 1894 617 2054 c 1
 767 2054 l 1xd7c0
 767 1971 830 1904 907 1904 c 0xdbc0
 985 1904 1048 1971 1048 2054 c 1
 1198 2054 l 1xd7c0
 1198 1894 1067 1763 907 1763 c 0xdbc0
1680 905 m 1
 1685 858 1688 813 1688 769 c 0
 1688 263 1339 -32 919 -32 c 0
 444 -32 70 344 70 804 c 0
 70 1265 446 1645 907 1645 c 0xebc0
 1116 1643 1339 1547 1497 1393 c 1xdbc0
 1317 1124 l 1
 1191 1247 1047 1317 903 1317 c 0xebc0
 653 1317 400 1105 400 804 c 0
 400 524 618 294 933 294 c 0
 1163 294 1328 412 1339 606 c 1
 922 606 l 1
 922 905 l 1
 1680 905 l 1
EndSplineSet
EndChar

StartChar: uni0122
Encoding: 290 290 36
AltUni2: 000123.ffffffff.0
Width: 1758
GlyphClass: 2
Flags: MW
HStem: -558 35<757 902> -32 326<775.5 1048 775.5 1129> 606 299<922 1339 922 1680> 1317 328<778 907 676.5 975> 1373 20G<1497 1497>
VStem: 70 330<664 954.5 664 1034.5> 762 299<-281.5 -235 -360.5 -210> 897 164<-444.5 -235> 1339 349<606 606>
AnchorPoint: "Anchor-6" 907 1612 basechar 0
AnchorPoint: "Anchor-4" 907 -558 basechar 0
LayerCount: 2
Fore
SplineSet
1680 905 m 1xed80
 1685 858 1688 813 1688 769 c 0
 1688 263 1339 -32 919 -32 c 0
 444 -32 70 344 70 804 c 0
 70 1265 446 1645 907 1645 c 0xf580
 1116 1643 1339 1547 1497 1393 c 1xed80
 1317 1124 l 1
 1191 1247 1047 1317 903 1317 c 0xf580
 653 1317 400 1105 400 804 c 0
 400 524 618 294 933 294 c 0
 1163 294 1328 412 1339 606 c 1
 922 606 l 1
 922 905 l 1
 1680 905 l 1xed80
910 -115 m 0
 992 -115 1061 -177 1061 -293 c 0
 1061 -428 970 -558 834 -558 c 0
 785 -558 757 -533 757 -523 c 1
 810 -523 897 -486 897 -403 c 0xed80
 897 -377 894 -369 885 -357 c 1
 835 -357 762 -318 762 -245 c 0xee80
 762 -175 824 -115 910 -115 c 0
EndSplineSet
EndChar

StartChar: Gdotaccent
Encoding: 288 288 37
AltUni2: 000121.ffffffff.0
Width: 1758
GlyphClass: 2
Flags: MW
HStem: -32 326<775.5 1048 775.5 1129> 606 299<922 1339 922 1680> 1317 328<778 907 676.5 975> 1373 20G<1497 1497> 1776 280<869.5 946 869.5 946>
VStem: 70 330<664 954.5 664 1034.5> 768 280<1876.5 1952> 1339 349<606 606>
AnchorPoint: "Anchor-6" 908 2041 basechar 0
AnchorPoint: "Anchor-4" 907 0 basechar 0
LayerCount: 2
Fore
SplineSet
908 1776 m 0xdf
 830 1776 768 1839 768 1914 c 0
 768 1990 831 2056 908 2056 c 0
 984 2056 1048 1990 1048 1915 c 0
 1048 1838 984 1776 908 1776 c 0xdf
1680 905 m 1
 1685 858 1688 813 1688 769 c 0
 1688 263 1339 -32 919 -32 c 0
 444 -32 70 344 70 804 c 0
 70 1265 446 1645 907 1645 c 0xef
 1116 1643 1339 1547 1497 1393 c 1xdf
 1317 1124 l 1
 1191 1247 1047 1317 903 1317 c 0xef
 653 1317 400 1105 400 804 c 0
 400 524 618 294 933 294 c 0
 1163 294 1328 412 1339 606 c 1
 922 606 l 1
 922 905 l 1
 1680 905 l 1
EndSplineSet
EndChar

StartChar: H
Encoding: 72 72 38
AltUni2: 000068.ffffffff.0
Width: 1505
GlyphClass: 2
Flags: MW
HStem: 0 21G<140 463 140 140 1042 1365 1042 1042> 646 321<463 1042 463 1042> 1592 20G<140 463 463 463 1042 1365 1365 1365>
VStem: 140 323<0 646 0 967 967 1612> 1042 323<0 646 646 646 967 1612 0 1612>
AnchorPoint: "Anchor-7" 753 1240 basechar 0
AnchorPoint: "Anchor-6" 753 1612 basechar 0
AnchorPoint: "Anchor-4" 753 0 basechar 0
LayerCount: 2
Fore
SplineSet
1042 1612 m 1
 1365 1612 l 1
 1365 0 l 1
 1042 0 l 1
 1042 646 l 1
 463 646 l 1
 463 0 l 1
 140 0 l 1
 140 1612 l 1
 463 1612 l 1
 463 967 l 1
 1042 967 l 1
 1042 1612 l 1
EndSplineSet
EndChar

StartChar: Hbar
Encoding: 294 294 39
AltUni2: 000127.ffffffff.0
Width: 1505
GlyphClass: 2
Flags: MW
HStem: 0 21G<140 463 140 140 1042 1365 1042 1042> 646 321<463 1042 463 1042> 1125 230<19 140 19 140 463 1042 1365 1486> 1125 487<19 463 19 463 140 463 140 1042>
VStem: 140 323<0 646 0 967 967 1125 1355 1612> 1042 323<0 646 646 646 967 1125 0 1125 1355 1612>
AnchorPoint: "Anchor-7" 753 1240 basechar 0
AnchorPoint: "Anchor-6" 753 1612 basechar 0
AnchorPoint: "Anchor-4" 753 0 basechar 0
LayerCount: 2
Fore
SplineSet
1486 1355 m 1xec
 1486 1125 l 1
 1365 1125 l 1
 1365 0 l 1
 1042 0 l 1
 1042 646 l 1
 463 646 l 1
 463 0 l 1
 140 0 l 1
 140 1125 l 1
 19 1125 l 1xdc
 19 1355 l 1
 140 1355 l 1xec
 140 1612 l 1
 463 1612 l 1xdc
 463 1355 l 1
 1042 1355 l 1xec
 1042 1612 l 1
 1365 1612 l 1xdc
 1365 1355 l 1
 1486 1355 l 1xec
1042 967 m 1
 1042 1125 l 1
 463 1125 l 1
 463 967 l 1
 1042 967 l 1
EndSplineSet
EndChar

StartChar: I
Encoding: 73 73 40
Width: 604
GlyphClass: 2
Flags: MW
HStem: 0 21G<140 140 140 464> 1592 20G<140 464 464 464>
VStem: 140 324<0 1612 0 1612>
AnchorPoint: "Anchor-6" 302 1612 basechar 0
AnchorPoint: "Anchor-5" 464 0 basechar 0
AnchorPoint: "Anchor-4" 302 0 basechar 0
LayerCount: 2
Fore
SplineSet
140 0 m 1
 140 1612 l 1
 464 1612 l 1
 464 0 l 1
 140 0 l 1
EndSplineSet
EndChar

StartChar: Iacute
Encoding: 205 205 41
AltUni2: 0000ed.ffffffff.0
Width: 604
GlyphClass: 2
Flags: MW
HStem: 0 21G<140 140 140 464> 1592 20G<140 464 464 464> 1745 327<330 372 143 610>
VStem: 140 324<0 1612 0 1612>
AnchorPoint: "Anchor-6" 392 2062 basechar 0
AnchorPoint: "Anchor-5" 464 0 basechar 0
AnchorPoint: "Anchor-4" 302 0 basechar 0
LayerCount: 2
Fore
SplineSet
372 1745 m 1
 143 1745 l 1
 330 2072 l 1
 610 2072 l 1
 372 1745 l 1
140 0 m 1
 140 1612 l 1
 464 1612 l 1
 464 0 l 1
 140 0 l 1
EndSplineSet
EndChar

StartChar: Icircumflex
Encoding: 206 206 42
AltUni2: 0000ee.ffffffff.0
Width: 604
GlyphClass: 2
Flags: MW
HStem: 0 21G<140 140 140 464> 1592 20G<140 464 464 464> 1759 293<-105 389 210 449 210 708>
VStem: 140 324<0 1612 0 1612>
AnchorPoint: "Anchor-6" 302 2052 basechar 0
AnchorPoint: "Anchor-5" 464 0 basechar 0
AnchorPoint: "Anchor-4" 302 0 basechar 0
LayerCount: 2
Fore
SplineSet
-105 1759 m 1
 210 2052 l 1
 389 2052 l 1
 708 1759 l 1
 449 1759 l 1
 300 1906 l 1
 152 1759 l 1
 -105 1759 l 1
140 0 m 1
 140 1612 l 1
 464 1612 l 1
 464 0 l 1
 140 0 l 1
EndSplineSet
EndChar

StartChar: Idieresis
Encoding: 207 207 43
AltUni2: 0000ef.ffffffff.0
Width: 604
GlyphClass: 2
Flags: MW
HStem: 0 21G<140 140 140 464> 1592 20G<140 464 464 464> 1778 241<45 110.5 493.5 559>
VStem: -43 241<1865 1930.5> 140 324<0 1612 0 1612> 406 241<1865 1930.5>
AnchorPoint: "Anchor-6" 302 2019 basechar 0
AnchorPoint: "Anchor-5" 464 0 basechar 0
AnchorPoint: "Anchor-4" 302 0 basechar 0
LayerCount: 2
Fore
SplineSet
78 1778 m 0xf4
 12 1778 -43 1832 -43 1898 c 0
 -43 1963 12 2019 78 2019 c 0
 143 2019 198 1963 198 1898 c 0
 198 1832 143 1778 78 1778 c 0xf4
526 1778 m 0
 460 1778 406 1832 406 1898 c 0
 406 1963 461 2019 526 2019 c 0
 592 2019 647 1963 647 1898 c 0
 647 1832 592 1778 526 1778 c 0
140 0 m 1xe8
 140 1612 l 1
 464 1612 l 1
 464 0 l 1
 140 0 l 1xe8
EndSplineSet
EndChar

StartChar: Idotaccent
Encoding: 304 304 44
Width: 604
GlyphClass: 2
Flags: MW
HStem: 0 21G<140 140 140 464> 1592 20G<140 464 464 464> 1776 280<264.5 341 264.5 341>
VStem: 140 324<0 1612 0 1612> 163 280<1876.5 1952>
AnchorPoint: "Anchor-6" 303 2041 basechar 0
AnchorPoint: "Anchor-5" 464 0 basechar 0
AnchorPoint: "Anchor-4" 302 0 basechar 0
LayerCount: 2
Fore
SplineSet
303 1776 m 0xe8
 225 1776 163 1839 163 1914 c 0
 163 1990 226 2056 303 2056 c 0
 379 2056 443 1990 443 1915 c 0
 443 1838 379 1776 303 1776 c 0xe8
140 0 m 1xf0
 140 1612 l 1
 464 1612 l 1
 464 0 l 1
 140 0 l 1xf0
EndSplineSet
EndChar

StartChar: Igrave
Encoding: 204 204 45
AltUni2: 0000ec.ffffffff.0
Width: 604
GlyphClass: 2
Flags: MW
HStem: 0 21G<140 140 140 464> 1592 20G<140 464 464 464> 1745 327<307 307 307 349 69 536>
VStem: 140 324<0 1612 0 1612>
AnchorPoint: "Anchor-6" 303 2072 basechar 0
AnchorPoint: "Anchor-5" 464 0 basechar 0
AnchorPoint: "Anchor-4" 302 0 basechar 0
LayerCount: 2
Fore
SplineSet
307 1745 m 1
 69 2072 l 1
 349 2072 l 1
 536 1745 l 1
 307 1745 l 1
140 0 m 1
 140 1612 l 1
 464 1612 l 1
 464 0 l 1
 140 0 l 1
EndSplineSet
EndChar

StartChar: Imacron
Encoding: 298 298 46
AltUni2: 00012b.ffffffff.0
Width: 604
GlyphClass: 2
Flags: MW
HStem: 0 21G<140 140 140 464> 1592 20G<140 464 464 464> 1808 162<11 593 11 593>
VStem: 140 324<0 1612 0 1612>
AnchorPoint: "Anchor-6" 302 1970 basechar 0
AnchorPoint: "Anchor-5" 464 0 basechar 0
AnchorPoint: "Anchor-4" 302 0 basechar 0
LayerCount: 2
Fore
SplineSet
11 1808 m 1
 11 1970 l 1
 593 1970 l 1
 593 1808 l 1
 11 1808 l 1
140 0 m 1
 140 1612 l 1
 464 1612 l 1
 464 0 l 1
 140 0 l 1
EndSplineSet
EndChar

StartChar: Iogonek
Encoding: 302 302 47
AltUni2: 00012f.ffffffff.0
Width: 604
GlyphClass: 2
Flags: MW
HStem: -554 228<296.5 336> 0 21G<140 245 140 140 464 464> 1592 20G<140 464 464 464>
VStem: 29 229<-254.5 -249> 140 324<0 1612 0 1612>
AnchorPoint: "Anchor-6" 302 1612 basechar 0
AnchorPoint: "Anchor-5" 464 0 basechar 0
AnchorPoint: "Anchor-4" 302 0 basechar 0
LayerCount: 2
Fore
SplineSet
443 -310 m 1xe8
 478 -534 l 1
 416 -548 360 -554 312 -554 c 0
 130 -554 29 -466 29 -320 c 0xf0
 29 -178 124 -60 245 0 c 1
 140 0 l 1
 140 1612 l 1
 464 1612 l 1
 464 0 l 1xe8
 323 -103 258 -168 258 -244 c 0
 258 -265 263 -326 330 -326 c 0xf0
 349 -326 394 -321 443 -310 c 1xe8
EndSplineSet
EndChar

StartChar: J
Encoding: 74 74 48
AltUni2: 00006a.ffffffff.0
Width: 1184
GlyphClass: 2
Flags: MW
HStem: -36 323<336 413 406 413 413 415> 1592 20G<728 728>
VStem: 734 324<525 610 428.5 612>
AnchorPoint: "Anchor-6" 580 1612 basechar 0
AnchorPoint: "Anchor-4" 580 0 basechar 0
LayerCount: 2
Fore
SplineSet
404 -36 m 2
 268 -36 147 2 42 75 c 1
 206 359 l 1
 262 312 323 287 406 287 c 2
 413 287 l 2
 591 287 734 438 734 612 c 2
 728 1612 l 1
 1052 1611 l 1
 1058 610 l 2
 1058 247 772 -36 415 -36 c 2
 404 -36 l 2
EndSplineSet
EndChar

StartChar: K
Encoding: 75 75 49
AltUni2: 00006b.ffffffff.0
Width: 1361
GlyphClass: 2
Flags: MW
HStem: 0 21G<140 463 140 140 953 1347 953 953> 1592 20G<140 463 463 463 916 1290 1290 1290>
VStem: 140 323<0 706 0 915 915 1612>
AnchorPoint: "Anchor-6" 704 1612 basechar 0
AnchorPoint: "Anchor-4" 704 0 basechar 0
LayerCount: 2
Fore
SplineSet
1347 0 m 1
 953 0 l 1
 463 706 l 1
 463 0 l 1
 140 0 l 1
 140 1612 l 1
 463 1612 l 1
 463 915 l 1
 916 1612 l 1
 1290 1612 l 1
 773 823 l 1
 1347 0 l 1
EndSplineSet
EndChar

StartChar: uni0136
Encoding: 310 310 50
AltUni2: 000137.ffffffff.0
Width: 1361
GlyphClass: 2
Flags: MW
HStem: -558 35<554 699> 0 21G<140 463 140 140 953 1347 953 953> 1592 20G<140 463 463 463 916 1290 1290 1290>
VStem: 140 323<0 706 0 915 915 1612> 559 299<-281.5 -235 -360.5 -210> 694 164<-444.5 -235>
AnchorPoint: "Anchor-6" 704 1612 basechar 0
AnchorPoint: "Anchor-4" 704 -558 basechar 0
LayerCount: 2
Fore
SplineSet
773 823 m 1xf4
 1347 0 l 1
 953 0 l 1
 463 706 l 1
 463 0 l 1
 140 0 l 1
 140 1612 l 1
 463 1612 l 1
 463 915 l 1
 916 1612 l 1
 1290 1612 l 1
 773 823 l 1xf4
707 -115 m 0
 789 -115 858 -177 858 -293 c 0
 858 -428 767 -558 631 -558 c 0
 582 -558 554 -533 554 -523 c 1
 607 -523 694 -486 694 -403 c 0xf4
 694 -377 691 -369 682 -357 c 1
 632 -357 559 -318 559 -245 c 0xf8
 559 -175 621 -115 707 -115 c 0
EndSplineSet
EndChar

StartChar: L
Encoding: 76 76 51
AltUni2: 00006c.ffffffff.0
Width: 1154
GlyphClass: 2
Flags: MW
HStem: 0 322<464 1112 464 1112> 1592 20G<140 464 464 464>
VStem: 140 324<322 322 322 1612>
AnchorPoint: "Anchor-8" 600 1540 basechar 0
AnchorPoint: "Anchor-7" 317 806 basechar 0
AnchorPoint: "Anchor-6" 596 1612 basechar 0
AnchorPoint: "Anchor-4" 596 0 basechar 0
LayerCount: 2
Fore
SplineSet
464 322 m 1
 1112 322 l 1
 1112 0 l 1
 140 0 l 1
 140 1612 l 1
 464 1612 l 1
 464 322 l 1
EndSplineSet
EndChar

StartChar: Lacute
Encoding: 313 313 52
AltUni2: 00013a.ffffffff.0
Width: 1154
GlyphClass: 2
Flags: MW
HStem: 0 322<464 1112 464 1112> 1592 20G<140 464 464 464> 1745 327<624 666 437 904>
VStem: 140 324<322 322 322 1612>
AnchorPoint: "Anchor-8" 600 1540 basechar 0
AnchorPoint: "Anchor-7" 317 806 basechar 0
AnchorPoint: "Anchor-6" 686 2062 basechar 0
AnchorPoint: "Anchor-4" 596 0 basechar 0
LayerCount: 2
Fore
SplineSet
904 2072 m 1
 666 1745 l 1
 437 1745 l 1
 624 2072 l 1
 904 2072 l 1
464 322 m 1
 1112 322 l 1
 1112 0 l 1
 140 0 l 1
 140 1612 l 1
 464 1612 l 1
 464 322 l 1
EndSplineSet
EndChar

StartChar: Lcaron
Encoding: 317 317 53
AltUni2: 00013e.ffffffff.0
Width: 1154
GlyphClass: 2
Flags: MW
HStem: 0 322<464 1112 464 1112> 1208 404<140 800 140 600> 1208 470<670 800 600 920>
VStem: 140 324<322 322 322 1612>
AnchorPoint: "Anchor-8" 600 1540 basechar 0
AnchorPoint: "Anchor-7" 317 806 basechar 0
AnchorPoint: "Anchor-6" 596 1612 basechar 0
AnchorPoint: "Anchor-4" 596 0 basechar 0
LayerCount: 2
Fore
SplineSet
920 1678 m 1xb0
 800 1208 l 1
 600 1208 l 1
 670 1678 l 1
 920 1678 l 1xb0
464 322 m 1
 1112 322 l 1
 1112 0 l 1
 140 0 l 1
 140 1612 l 1
 464 1612 l 1xd0
 464 322 l 1
EndSplineSet
EndChar

StartChar: uni013B
Encoding: 315 315 54
AltUni2: 00013c.ffffffff.0
Width: 1154
GlyphClass: 2
Flags: MW
HStem: -558 35<446 591> 0 322<464 1112 464 1112> 1592 20G<140 464 464 464>
VStem: 140 324<322 322 322 1612> 451 299<-281.5 -235 -360.5 -210> 586 164<-444.5 -235>
AnchorPoint: "Anchor-8" 600 1540 basechar 0
AnchorPoint: "Anchor-7" 317 806 basechar 0
AnchorPoint: "Anchor-6" 596 1612 basechar 0
AnchorPoint: "Anchor-4" 596 -558 basechar 0
LayerCount: 2
Fore
SplineSet
464 322 m 1xf4
 1112 322 l 1
 1112 0 l 1
 140 0 l 1
 140 1612 l 1
 464 1612 l 1
 464 322 l 1xf4
599 -115 m 0
 681 -115 750 -177 750 -293 c 0
 750 -428 659 -558 523 -558 c 0
 474 -558 446 -533 446 -523 c 1
 499 -523 586 -486 586 -403 c 0xf4
 586 -377 583 -369 574 -357 c 1
 524 -357 451 -318 451 -245 c 0xe8
 451 -175 513 -115 599 -115 c 0
EndSplineSet
EndChar

StartChar: Lslash
Encoding: 321 321 55
AltUni2: 000142.ffffffff.0
Width: 1154
GlyphClass: 2
Flags: MW
HStem: 0 322<464 1112 464 1112> 1592 20G<140 464 464 464>
VStem: 140 324<322 322 322 539 539 539 1026 1612>
AnchorPoint: "Anchor-8" 600 1540 basechar 0
AnchorPoint: "Anchor-7" 317 806 basechar 0
AnchorPoint: "Anchor-6" 596 1612 basechar 0
AnchorPoint: "Anchor-4" 596 0 basechar 0
LayerCount: 2
Fore
SplineSet
464 322 m 1
 1112 322 l 1
 1112 0 l 1
 140 0 l 1
 140 539 l 1
 -46 405 l 1
 -46 658 l 1
 140 792 l 1
 140 1612 l 1
 464 1612 l 1
 464 1026 l 1
 662 1169 l 1
 662 915 l 1
 464 772 l 1
 464 322 l 1
EndSplineSet
EndChar

StartChar: M
Encoding: 77 77 56
AltUni2: 00006d.ffffffff.0
Width: 1859
GlyphClass: 2
Flags: MW
HStem: 0 21G<140 464 140 140 1395 1719 1395 1395> 1632 20G<140 158 158 158 1701 1719 1719 1719>
VStem: 140 18<0 1652 1652 1652> 140 324<0 702 0 1652> 1395 324<0 702 702 702> 1701 18<0 1652>
AnchorPoint: "Anchor-6" 930 1612 basechar 0
AnchorPoint: "Anchor-4" 930 0 basechar 0
LayerCount: 2
Fore
SplineSet
1701 1652 m 1xe4
 1719 1652 l 1
 1719 0 l 1
 1395 0 l 1
 1395 702 l 1
 931 27 l 1
 929 27 l 1
 464 702 l 1
 464 0 l 1
 140 0 l 1
 140 1652 l 1xd8
 158 1652 l 1
 930 587 l 1
 1701 1652 l 1xe4
EndSplineSet
EndChar

StartChar: N
Encoding: 78 78 57
AltUni2: 00006e.ffffffff.0
Width: 1576
GlyphClass: 2
Flags: MW
HStem: -30 21G<1421 1436 1421 1421> -2 21G<140 464 140 140> 1596 20G<1111 1436 1436 1436>
VStem: 140 324<-2 901 -2 1642> 1111 325<713 1616 -30 1616>
AnchorPoint: "Anchor-6" 788 1612 basechar 0
AnchorPoint: "Anchor-4" 788 0 basechar 0
LayerCount: 2
Fore
SplineSet
1111 1616 m 1
 1436 1616 l 1
 1436 -30 l 1
 1421 -30 l 1xb8
 464 901 l 1
 464 -2 l 1
 140 -2 l 1
 140 1642 l 1
 156 1642 l 1
 1111 713 l 1
 1111 1616 l 1
EndSplineSet
EndChar

StartChar: Nacute
Encoding: 323 323 58
AltUni2: 000144.ffffffff.0
Width: 1576
GlyphClass: 2
Flags: MW
HStem: -30 21G<1421 1436 1421 1421> -2 21G<140 464 140 140> 1596 20G<1111 1436 1436 1436> 1745 327<816 858 629 1096>
VStem: 140 324<-2 901 -2 1642> 1111 325<713 1616 -30 1616>
AnchorPoint: "Anchor-6" 878 2062 basechar 0
AnchorPoint: "Anchor-4" 788 0 basechar 0
LayerCount: 2
Fore
SplineSet
1096 2072 m 1
 858 1745 l 1
 629 1745 l 1
 816 2072 l 1
 1096 2072 l 1
1111 1616 m 1
 1436 1616 l 1
 1436 -30 l 1
 1421 -30 l 1xbc
 464 901 l 1
 464 -2 l 1
 140 -2 l 1
 140 1642 l 1
 156 1642 l 1
 1111 713 l 1
 1111 1616 l 1
EndSplineSet
EndChar

StartChar: Ncaron
Encoding: 327 327 59
AltUni2: 000148.ffffffff.0
Width: 1576
GlyphClass: 2
Flags: MW
HStem: -30 21G<1421 1436 1421 1421> -2 21G<140 464 140 140> 1596 20G<1111 1436 1436 1436> 1759 293<382 876 382 697>
VStem: 140 324<-2 901 -2 1642> 1111 325<713 1616 -30 1616>
AnchorPoint: "Anchor-6" 789 2062 basechar 0
AnchorPoint: "Anchor-4" 788 0 basechar 0
LayerCount: 2
Fore
SplineSet
876 1759 m 1
 697 1759 l 1
 382 2052 l 1
 639 2052 l 1
 787 1905 l 1
 936 2052 l 1
 1195 2052 l 1
 876 1759 l 1
1111 1616 m 1
 1436 1616 l 1
 1436 -30 l 1
 1421 -30 l 1xbc
 464 901 l 1
 464 -2 l 1
 140 -2 l 1
 140 1642 l 1
 156 1642 l 1
 1111 713 l 1
 1111 1616 l 1
EndSplineSet
EndChar

StartChar: uni0145
Encoding: 325 325 60
AltUni2: 000146.ffffffff.0
Width: 1576
GlyphClass: 2
Flags: MW
HStem: -558 35<638 783> -30 21G<1421 1436 1421 1421> -2 21G<140 464 140 140> 1596 20G<1111 1436 1436 1436>
VStem: 140 324<-2 901 -2 1642> 643 299<-281.5 -235 -360.5 -210> 778 164<-444.5 -235> 1111 325<713 1616 -30 1616>
AnchorPoint: "Anchor-6" 788 1612 basechar 0
AnchorPoint: "Anchor-4" 788 -558 basechar 0
LayerCount: 2
Fore
SplineSet
1111 1616 m 1xb9
 1436 1616 l 1
 1436 -30 l 1
 1421 -30 l 1xdb
 464 901 l 1
 464 -2 l 1
 140 -2 l 1
 140 1642 l 1
 156 1642 l 1
 1111 713 l 1
 1111 1616 l 1xb9
791 -115 m 0
 873 -115 942 -177 942 -293 c 0
 942 -428 851 -558 715 -558 c 0
 666 -558 638 -533 638 -523 c 1
 691 -523 778 -486 778 -403 c 0xbb
 778 -377 775 -369 766 -357 c 1
 716 -357 643 -318 643 -245 c 0xbd
 643 -175 705 -115 791 -115 c 0
EndSplineSet
EndChar

StartChar: Eng
Encoding: 330 330 61
AltUni2: 00014b.ffffffff.0
Width: 1576
GlyphClass: 2
Flags: MW
HStem: -2 21G<140 464 140 140> 1596 20G<1111 1436 1436 1436>
VStem: 140 324<-2 901 -2 1642> 1111 325<713 1616> 1128 308<-39 -33 -33 255 255 255>
AnchorPoint: "Anchor-6" 788 1612 basechar 0
AnchorPoint: "Anchor-4" 788 0 basechar 0
LayerCount: 2
Fore
SplineSet
1111 1616 m 1xf0
 1436 1616 l 1
 1436 -33 l 2
 1436 -228 1339 -397 1169 -508 c 1
 958 -345 l 1
 1072 -283 1128 -200 1128 -39 c 2
 1128 255 l 1xe8
 464 901 l 1
 464 -2 l 1
 140 -2 l 1
 140 1642 l 1
 156 1642 l 1
 1111 713 l 1
 1111 1616 l 1xf0
EndSplineSet
EndChar

StartChar: Ntilde
Encoding: 209 209 62
AltUni2: 0000f1.ffffffff.0
Width: 1576
GlyphClass: 2
Flags: MW
HStem: -30 21G<1421 1436 1421 1421> -2 21G<140 464 140 140> 1596 20G<1111 1436 1436 1436> 1769 166<890 970.5 890 975.5> 1896 166<605 686>
VStem: 140 324<-2 901 -2 1642> 1111 325<713 1616 -30 1616>
AnchorPoint: "Anchor-6" 788 2007 basechar 0
AnchorPoint: "Anchor-4" 788 0 basechar 0
LayerCount: 2
Fore
SplineSet
636 1896 m 0x6e
 574 1896 548 1842 532 1769 c 1
 377 1829 l 1
 420 2040 565 2062 636 2062 c 0x6e
 788 2062 840 1935 940 1935 c 0
 1001 1935 1028 1989 1044 2062 c 1
 1199 2002 l 1
 1156 1791 1011 1769 940 1769 c 0x76
 788 1769 736 1896 636 1896 c 0x6e
1111 1616 m 1
 1436 1616 l 1
 1436 -30 l 1
 1421 -30 l 1xae
 464 901 l 1
 464 -2 l 1
 140 -2 l 1
 140 1642 l 1
 156 1642 l 1
 1111 713 l 1
 1111 1616 l 1
EndSplineSet
EndChar

StartChar: O
Encoding: 79 79 63
AltUni2: 00006f.ffffffff.0
Width: 1817
GlyphClass: 2
Flags: MW
HStem: -31 328<766.5 1048 766.5 1138> 1318 327<766.5 1048>
VStem: 70 327<666 947 666 1035.5> 1419 328<666 947>
AnchorPoint: "Anchor-8" 1745 1612 basechar 0
AnchorPoint: "Anchor-7" 908 806 basechar 0
AnchorPoint: "Anchor-6" 908 1612 basechar 0
AnchorPoint: "Anchor-5" 1593 10 basechar 0
AnchorPoint: "Anchor-4" 907 -31 basechar 0
LayerCount: 2
Fore
SplineSet
907 -31 m 0
 447 -31 70 345 70 804 c 0
 70 1267 447 1645 908 1645 c 0
 1369 1645 1747 1267 1747 804 c 0
 1747 345 1369 -31 907 -31 c 0
907 297 m 0
 1189 297 1419 526 1419 806 c 0
 1419 1088 1189 1318 907 1318 c 0
 626 1318 397 1088 397 806 c 0
 397 526 626 297 907 297 c 0
EndSplineSet
EndChar

StartChar: Oacute
Encoding: 211 211 64
AltUni2: 0000f3.ffffffff.0
Width: 1817
GlyphClass: 2
Flags: MW
HStem: -31 328<766.5 1048 766.5 1138> 1318 327<766.5 1048> 1745 327<936 978 749 1216>
VStem: 70 327<666 947 666 1035.5> 1419 328<666 947>
AnchorPoint: "Anchor-8" 1745 1612 basechar 0
AnchorPoint: "Anchor-7" 908 806 basechar 0
AnchorPoint: "Anchor-6" 998 2062 basechar 0
AnchorPoint: "Anchor-5" 1593 10 basechar 0
AnchorPoint: "Anchor-4" 907 -31 basechar 0
LayerCount: 2
Fore
SplineSet
978 1745 m 1
 749 1745 l 1
 936 2072 l 1
 1216 2072 l 1
 978 1745 l 1
907 -31 m 0
 447 -31 70 345 70 804 c 0
 70 1267 447 1645 908 1645 c 0
 1369 1645 1747 1267 1747 804 c 0
 1747 345 1369 -31 907 -31 c 0
907 297 m 0
 1189 297 1419 526 1419 806 c 0
 1419 1088 1189 1318 907 1318 c 0
 626 1318 397 1088 397 806 c 0
 397 526 626 297 907 297 c 0
EndSplineSet
EndChar

StartChar: Ocircumflex
Encoding: 212 212 65
AltUni2: 0000f4.ffffffff.0
Width: 1817
GlyphClass: 2
Flags: MW
HStem: -31 328<766.5 1048 766.5 1138> 1318 327<766.5 1048> 1759 293<502 996 817 1056 817 1315>
VStem: 70 327<666 947 666 1035.5> 1419 328<666 947>
AnchorPoint: "Anchor-8" 1745 1612 basechar 0
AnchorPoint: "Anchor-7" 908 806 basechar 0
AnchorPoint: "Anchor-6" 909 2052 basechar 0
AnchorPoint: "Anchor-5" 1593 10 basechar 0
AnchorPoint: "Anchor-4" 907 -31 basechar 0
LayerCount: 2
Fore
SplineSet
502 1759 m 1
 817 2052 l 1
 996 2052 l 1
 1315 1759 l 1
 1056 1759 l 1
 907 1906 l 1
 759 1759 l 1
 502 1759 l 1
907 -31 m 0
 447 -31 70 345 70 804 c 0
 70 1267 447 1645 908 1645 c 0
 1369 1645 1747 1267 1747 804 c 0
 1747 345 1369 -31 907 -31 c 0
907 297 m 0
 1189 297 1419 526 1419 806 c 0
 1419 1088 1189 1318 907 1318 c 0
 626 1318 397 1088 397 806 c 0
 397 526 626 297 907 297 c 0
EndSplineSet
EndChar

StartChar: Odieresis
Encoding: 214 214 66
AltUni2: 0000f6.ffffffff.0
Width: 1817
GlyphClass: 2
Flags: MW
HStem: -31 328<766.5 1048 766.5 1138> 1318 327<766.5 1048> 1778 241<651 716.5 1099.5 1165>
VStem: 70 327<666 947 666 1035.5> 563 241<1865 1930.5> 1012 241<1865 1930.5> 1419 328<666 947>
AnchorPoint: "Anchor-8" 1745 1612 basechar 0
AnchorPoint: "Anchor-7" 908 806 basechar 0
AnchorPoint: "Anchor-6" 908 2019 basechar 0
AnchorPoint: "Anchor-5" 1593 10 basechar 0
AnchorPoint: "Anchor-4" 907 -31 basechar 0
LayerCount: 2
Fore
SplineSet
684 1778 m 0
 618 1778 563 1832 563 1898 c 0
 563 1963 618 2019 684 2019 c 0
 749 2019 804 1963 804 1898 c 0
 804 1832 749 1778 684 1778 c 0
1132 1778 m 0
 1066 1778 1012 1832 1012 1898 c 0
 1012 1963 1067 2019 1132 2019 c 0
 1198 2019 1253 1963 1253 1898 c 0
 1253 1832 1198 1778 1132 1778 c 0
907 -31 m 0
 447 -31 70 345 70 804 c 0
 70 1267 447 1645 908 1645 c 0
 1369 1645 1747 1267 1747 804 c 0
 1747 345 1369 -31 907 -31 c 0
907 297 m 0
 1189 297 1419 526 1419 806 c 0
 1419 1088 1189 1318 907 1318 c 0
 626 1318 397 1088 397 806 c 0
 397 526 626 297 907 297 c 0
EndSplineSet
EndChar

StartChar: Ograve
Encoding: 210 210 67
AltUni2: 0000f2.ffffffff.0
Width: 1817
GlyphClass: 2
Flags: MW
HStem: -31 328<766.5 1048 766.5 1138> 1318 327<766.5 1048> 1745 327<913 913 913 955 675 1142>
VStem: 70 327<666 947 666 1035.5> 1419 328<666 947>
AnchorPoint: "Anchor-8" 1745 1612 basechar 0
AnchorPoint: "Anchor-7" 908 806 basechar 0
AnchorPoint: "Anchor-6" 909 2072 basechar 0
AnchorPoint: "Anchor-5" 1593 10 basechar 0
AnchorPoint: "Anchor-4" 907 -31 basechar 0
LayerCount: 2
Fore
SplineSet
913 1745 m 1
 675 2072 l 1
 955 2072 l 1
 1142 1745 l 1
 913 1745 l 1
907 -31 m 0
 447 -31 70 345 70 804 c 0
 70 1267 447 1645 908 1645 c 0
 1369 1645 1747 1267 1747 804 c 0
 1747 345 1369 -31 907 -31 c 0
907 297 m 0
 1189 297 1419 526 1419 806 c 0
 1419 1088 1189 1318 907 1318 c 0
 626 1318 397 1088 397 806 c 0
 397 526 626 297 907 297 c 0
EndSplineSet
EndChar

StartChar: Ohungarumlaut
Encoding: 336 336 68
AltUni2: 000151.ffffffff.0
Width: 1817
GlyphClass: 2
Flags: MW
HStem: -31 328<766.5 1048 766.5 1138> 1318 327<766.5 1048> 1745 327<570 966 716 768 909 966 1116 1118 909 909>
VStem: 70 327<666 947 666 1035.5> 1419 328<666 947>
AnchorPoint: "Anchor-8" 1745 1612 basechar 0
AnchorPoint: "Anchor-7" 908 806 basechar 0
AnchorPoint: "Anchor-6" 908 2072 basechar 0
AnchorPoint: "Anchor-5" 1593 10 basechar 0
AnchorPoint: "Anchor-4" 907 -31 basechar 0
LayerCount: 2
Fore
SplineSet
570 1745 m 1
 716 2072 l 1
 966 2072 l 1
 768 1745 l 1
 570 1745 l 1
909 1745 m 1
 1116 2072 l 1
 1386 2072 l 1
 1118 1745 l 1
 909 1745 l 1
907 -31 m 0
 447 -31 70 345 70 804 c 0
 70 1267 447 1645 908 1645 c 0
 1369 1645 1747 1267 1747 804 c 0
 1747 345 1369 -31 907 -31 c 0
907 297 m 0
 1189 297 1419 526 1419 806 c 0
 1419 1088 1189 1318 907 1318 c 0
 626 1318 397 1088 397 806 c 0
 397 526 626 297 907 297 c 0
EndSplineSet
EndChar

StartChar: Omacron
Encoding: 332 332 69
AltUni2: 00014d.ffffffff.0
Width: 1817
GlyphClass: 2
Flags: MW
HStem: -31 328<766.5 1048 766.5 1138> 1318 327<766.5 1048> 1808 162<617 1199 617 1199>
VStem: 70 327<666 947 666 1035.5> 617 582<1808 1970 1808 1970> 1419 328<666 947>
AnchorPoint: "Anchor-8" 1745 1612 basechar 0
AnchorPoint: "Anchor-7" 908 806 basechar 0
AnchorPoint: "Anchor-6" 908 1970 basechar 0
AnchorPoint: "Anchor-5" 1593 10 basechar 0
AnchorPoint: "Anchor-4" 907 -31 basechar 0
LayerCount: 2
Fore
SplineSet
617 1808 m 1
 617 1970 l 1
 1199 1970 l 1
 1199 1808 l 1
 617 1808 l 1
907 -31 m 0
 447 -31 70 345 70 804 c 0
 70 1267 447 1645 908 1645 c 0
 1369 1645 1747 1267 1747 804 c 0
 1747 345 1369 -31 907 -31 c 0
907 297 m 0
 1189 297 1419 526 1419 806 c 0
 1419 1088 1189 1318 907 1318 c 0
 626 1318 397 1088 397 806 c 0
 397 526 626 297 907 297 c 0
EndSplineSet
EndChar

StartChar: Oslash
Encoding: 216 216 70
AltUni2: 0000f8.ffffffff.0
Width: 1817
GlyphClass: 2
Flags: MW
HStem: -31 328<876.5 1048 876.5 1138> 1318 327<766.5 944> 1394 20G<1484 1484> 1629 20G<1373 1646 1646 1646>
VStem: 70 327<736.5 947 736.5 1035.5> 1419 328<666 869.5>
AnchorPoint: "Anchor-8" 1745 1612 basechar 0
AnchorPoint: "Anchor-7" 908 806 basechar 0
AnchorPoint: "Anchor-6" 858 1612 basechar 0
AnchorPoint: "Anchor-5" 1593 10 basechar 0
AnchorPoint: "Anchor-4" 858 0 basechar 0
LayerCount: 2
Fore
SplineSet
1484 1414 m 1xbc
 1646 1261 1747 1044 1747 804 c 0
 1747 345 1369 -31 907 -31 c 0
 777 -31 654 -1 544 52 c 1
 450 -83 l 1
 176 -83 l 1
 356 177 l 1
 181 331 70 555 70 804 c 0
 70 1267 447 1645 908 1645 c 0
 1050 1645 1184 1609 1302 1546 c 1xcc
 1373 1649 l 1
 1646 1649 l 1
 1484 1414 l 1xbc
397 806 m 0xcc
 397 667 453 541 544 449 c 1
 1114 1274 l 1
 1051 1302 981 1318 907 1318 c 0
 626 1318 397 1088 397 806 c 0xcc
907 297 m 0
 1189 297 1419 526 1419 806 c 0
 1419 933 1372 1050 1295 1140 c 1
 733 327 l 1
 788 308 846 297 907 297 c 0
EndSplineSet
EndChar

StartChar: Otilde
Encoding: 213 213 71
AltUni2: 0000f5.ffffffff.0
Width: 1817
GlyphClass: 2
Flags: MW
HStem: -31 328<766.5 1048 766.5 1138> 1318 327<766.5 1048> 1769 166<1010 1090.5 1010 1095.5> 1896 166<725 806>
VStem: 70 327<666 947 666 1035.5> 1419 328<666 947>
AnchorPoint: "Anchor-8" 1745 1612 basechar 0
AnchorPoint: "Anchor-7" 908 806 basechar 0
AnchorPoint: "Anchor-6" 908 2007 basechar 0
AnchorPoint: "Anchor-5" 1593 10 basechar 0
AnchorPoint: "Anchor-4" 907 -31 basechar 0
LayerCount: 2
Fore
SplineSet
652 1769 m 1xdc
 497 1829 l 1
 540 2040 685 2062 756 2062 c 0xdc
 908 2062 960 1935 1060 1935 c 0
 1121 1935 1148 1989 1164 2062 c 1
 1319 2002 l 1
 1276 1791 1131 1769 1060 1769 c 0xec
 908 1769 856 1896 756 1896 c 0
 694 1896 668 1842 652 1769 c 1xdc
907 -31 m 0
 447 -31 70 345 70 804 c 0
 70 1267 447 1645 908 1645 c 0
 1369 1645 1747 1267 1747 804 c 0
 1747 345 1369 -31 907 -31 c 0
907 297 m 0
 1189 297 1419 526 1419 806 c 0
 1419 1088 1189 1318 907 1318 c 0
 626 1318 397 1088 397 806 c 0
 397 526 626 297 907 297 c 0
EndSplineSet
EndChar

StartChar: OE
Encoding: 338 338 72
AltUni2: 000153.ffffffff.0
Width: 2489
GlyphClass: 2
Flags: MW
HStem: -31 328<766.5 995> 0 322<1743 2391 1743 2391> 655 323<1743 2299 1743 2299> 1293 319<1743 2391 1743 1743> 1318 327<766.5 996 667.5 1048>
VStem: 70 327<666 947 666 1035.5> 1419 324<0 655 170 655 322 947>
AnchorPoint: "Anchor-6" 1193 1612 basechar 0
AnchorPoint: "Anchor-5" 2391 0 basechar 0
AnchorPoint: "Anchor-4" 1193 0 basechar 0
LayerCount: 2
Fore
SplineSet
2391 1293 m 1x76
 1743 1293 l 1
 1743 978 l 1
 2299 978 l 1
 2299 655 l 1
 1743 655 l 1
 1743 322 l 1
 2391 322 l 1
 2391 0 l 1
 1419 0 l 1x76
 1419 170 l 1
 1285 45 1103 -31 887 -31 c 0
 447 -31 70 345 70 804 c 0
 70 1267 447 1645 888 1645 c 0xae
 1104 1645 1285 1569 1419 1443 c 1
 1419 1612 l 1
 2391 1612 l 1
 2391 1293 l 1x76
907 297 m 0xae
 1189 297 1419 526 1419 806 c 0
 1419 1088 1189 1318 907 1318 c 0
 626 1318 397 1088 397 806 c 0
 397 526 626 297 907 297 c 0xae
EndSplineSet
EndChar

StartChar: P
Encoding: 80 80 73
AltUni2: 000070.ffffffff.0
Width: 1315
GlyphClass: 2
Flags: MW
HStem: 0 21G<140 140 140 464> 524 320.5 1291 321<464 706 464 464>
VStem: 140 324<0 524 0 845 845 1291> 949 324<1007.5 1131>
AnchorPoint: "Anchor-6" 677 1612 basechar 0
AnchorPoint: "Anchor-4" 677 0 basechar 0
LayerCount: 2
Fore
SplineSet
140 0 m 1
 140 1612 l 1
 706 1612 l 2
 1018 1612 1273 1367 1273 1067 c 0
 1273 768 1018 524 706 524 c 2
 464 524 l 1
 464 0 l 1
 140 0 l 1
706 844 m 2
 840 843 949 945 949 1070 c 0
 949 1192 840 1291 706 1291 c 2
 464 1291 l 1
 464 845 l 1
 706 844 l 2
EndSplineSet
EndChar

StartChar: Thorn
Encoding: 222 222 74
AltUni2: 0000fe.ffffffff.0
Width: 1310
GlyphClass: 2
Flags: MW
HStem: 0 21G<140 140 140 463> 287 298<463 710 463 710> 1048 297<463 710 463 710> 1592 20G<140 463 463 463>
VStem: 140 323<0 287 585 1048 1345 1612> 942 298<752 879.5>
AnchorPoint: "Anchor-6" 665 1612 basechar 0
AnchorPoint: "Anchor-4" 665 0 basechar 0
LayerCount: 2
Fore
SplineSet
140 0 m 1
 140 1612 l 1
 463 1612 l 1
 463 1345 l 1
 710 1345 l 2
 1006 1345 1240 1111 1240 816 c 0
 1240 521 1006 287 710 287 c 2
 463 287 l 1
 463 0 l 1
 140 0 l 1
463 585 m 1
 710 585 l 2
 836 585 942 688 942 816 c 0
 942 943 837 1048 710 1048 c 2
 463 1048 l 1
 463 585 l 1
EndSplineSet
EndChar

StartChar: Q
Encoding: 81 81 75
AltUni2: 000071.ffffffff.0
Width: 1817
GlyphClass: 2
Flags: MW
HStem: -31 328<766.5 926.5 766.5 976> 1318 327<766.5 1048>
VStem: 70 327<666 947 666 1035.5> 1419 328<736 947>
AnchorPoint: "Anchor-8" 1745 1612 basechar 0
AnchorPoint: "Anchor-7" 908 806 basechar 0
AnchorPoint: "Anchor-6" 885 1612 basechar 0
AnchorPoint: "Anchor-5" 1593 10 basechar 0
AnchorPoint: "Anchor-4" 885 0 basechar 0
LayerCount: 2
Fore
SplineSet
1747 804 m 0
 1747 602 1674 415 1552 270 c 1
 1604 255 1662 244 1729 240 c 1
 1703 -76 l 1
 1527 -65 1396 -11 1290 62 c 1
 1175 2 1045 -31 907 -31 c 0
 447 -31 70 345 70 804 c 0
 70 1267 447 1645 908 1645 c 0
 1369 1645 1747 1267 1747 804 c 0
397 806 m 0
 397 526 626 297 907 297 c 0
 946 297 985 301 1021 310 c 1
 916 421 817 515 672 525 c 1
 689 803 l 1
 998 780 1111 598 1268 446 c 1
 1361 538 1419 666 1419 806 c 0
 1419 1088 1189 1318 907 1318 c 0
 626 1318 397 1088 397 806 c 0
EndSplineSet
Substitution2: "'ss04' Style Set 4 in Latin lookup 8 subtable" Q.ss04
Substitution2: "'aalt' Access All Alternates in Latin lookup 0 subtable" Q.ss04
EndChar

StartChar: Q.ss04
Encoding: 65537 -1 76
Width: 1845
GlyphClass: 2
Flags: MW
HStem: -31 328<766.5 941.5 766.5 984> 0 21G<1405 1775 1405 1405> 1318 327<766.5 1048>
VStem: 70 327<666 947 666 1035.5> 1419 328<749.5 947>
AnchorPoint: "Anchor-8" 1745 1612 basechar 0
AnchorPoint: "Anchor-7" 908 806 basechar 0
AnchorPoint: "Anchor-6" 885 1612 basechar 0
AnchorPoint: "Anchor-5" 1593 10 basechar 0
AnchorPoint: "Anchor-4" 885 0 basechar 0
LayerCount: 2
Fore
SplineSet
1775 0 m 1x78
 1405 0 l 1x78
 1330 83 l 1
 1205 11 1061 -31 907 -31 c 0xb8
 447 -31 70 345 70 804 c 0
 70 1267 447 1645 908 1645 c 0
 1369 1645 1747 1267 1747 804 c 0
 1747 596 1669 405 1542 258 c 1
 1775 0 l 1x78
907 297 m 0xb8
 976 297 1042 311 1102 335 c 1
 751 724 l 1
 1121 724 l 1
 1319 505 l 1
 1382 589 1419 693 1419 806 c 0
 1419 1088 1189 1318 907 1318 c 0
 626 1318 397 1088 397 806 c 0
 397 526 626 297 907 297 c 0xb8
EndSplineSet
EndChar

StartChar: R
Encoding: 82 82 77
AltUni2: 000072.ffffffff.0
Width: 1388
GlyphClass: 2
Flags: MW
HStem: 0 21G<141 465 141 141 978 1374 978 978> 1291 321<464 464 464 666 666 672>
VStem: 140.5 323.5 140.5 324.5 880 334<1030.5 1145.5>
AnchorPoint: "Anchor-6" 702 1612 basechar 0
AnchorPoint: "Anchor-4" 702 0 basechar 0
LayerCount: 2
Fore
SplineSet
1374 0 m 1xd8
 978 0 l 1
 465 762 l 1
 465 0 l 1
 141 0 l 1
 140 1612 l 1
 666 1612 l 2
 967 1612 1214 1380 1214 1090 c 0
 1214 883 1089 702 916 641 c 1
 1374 0 l 1xd8
464 1291 m 1xe8
 464 886 l 1
 672 885 l 2
 782 884 880 973 880 1088 c 0
 880 1203 781 1291 672 1291 c 2
 464 1291 l 1xe8
EndSplineSet
Substitution2: "'ss04' Style Set 4 in Latin lookup 8 subtable" R.ss04
Substitution2: "'aalt' Access All Alternates in Latin lookup 0 subtable" R.ss04
EndChar

StartChar: R.ss04
Encoding: 65538 -1 78
Width: 1357
GlyphClass: 2
Flags: MW
HStem: 0 21G<140 464 140 140 999 1343 999 999> 504 320.5 1291 321<464 464 464 706>
VStem: 140 324<0 504 0 825 825 1291> 949 324<994.5 1124>
AnchorPoint: "Anchor-6" 677 1612 basechar 0
AnchorPoint: "Anchor-4" 677 0 basechar 0
LayerCount: 2
Fore
SplineSet
1343 0 m 1
 999 0 l 1
 746 505 l 1
 733 504 720 504 706 504 c 2
 464 504 l 1
 464 0 l 1
 140 0 l 1
 140 1612 l 1
 706 1612 l 2
 1018 1612 1273 1364 1273 1057 c 0
 1273 861 1168 690 1011 592 c 1
 1343 0 l 1
464 1291 m 1
 464 825 l 1
 706 824 l 2
 832 823 949 929 949 1060 c 0
 949 1188 838 1291 706 1291 c 2
 464 1291 l 1
EndSplineSet
EndChar

StartChar: Racute
Encoding: 340 340 79
AltUni2: 000155.ffffffff.0
Width: 1388
GlyphClass: 2
Flags: MW
HStem: 0 21G<141 465 141 141 978 1374 978 978> 1291 321<464 464 464 666 666 672> 1745 327<730 772 543 1010>
VStem: 140.5 323.5 140.5 324.5 880 334<1030.5 1145.5>
AnchorPoint: "Anchor-6" 792 2062 basechar 0
AnchorPoint: "Anchor-4" 702 0 basechar 0
LayerCount: 2
Fore
SplineSet
1010 2072 m 1xec
 772 1745 l 1
 543 1745 l 1
 730 2072 l 1
 1010 2072 l 1xec
1374 0 m 1
 978 0 l 1
 465 762 l 1
 465 0 l 1
 141 0 l 1
 140 1612 l 1
 666 1612 l 2
 967 1612 1214 1380 1214 1090 c 0
 1214 883 1089 702 916 641 c 1
 1374 0 l 1
464 1291 m 1xf4
 464 886 l 1
 672 885 l 2
 782 884 880 973 880 1088 c 0
 880 1203 781 1291 672 1291 c 2
 464 1291 l 1xf4
EndSplineSet
EndChar

StartChar: Rcaron
Encoding: 344 344 80
AltUni2: 000159.ffffffff.0
Width: 1388
GlyphClass: 2
Flags: MW
HStem: 0 21G<141 465 141 141 978 1374 978 978> 1291 321<464 464 464 666 666 672> 1759 293<296 790 296 611>
VStem: 140.5 323.5 140.5 324.5 880 334<1030.5 1145.5>
AnchorPoint: "Anchor-6" 703 2062 basechar 0
AnchorPoint: "Anchor-4" 702 0 basechar 0
LayerCount: 2
Fore
SplineSet
790 1759 m 1xec
 611 1759 l 1
 296 2052 l 1
 553 2052 l 1
 701 1905 l 1
 850 2052 l 1
 1109 2052 l 1
 790 1759 l 1xec
1374 0 m 1
 978 0 l 1
 465 762 l 1
 465 0 l 1
 141 0 l 1
 140 1612 l 1
 666 1612 l 2
 967 1612 1214 1380 1214 1090 c 0
 1214 883 1089 702 916 641 c 1
 1374 0 l 1
464 1291 m 1xf4
 464 886 l 1
 672 885 l 2
 782 884 880 973 880 1088 c 0
 880 1203 781 1291 672 1291 c 2
 464 1291 l 1xf4
EndSplineSet
EndChar

StartChar: uni0156
Encoding: 342 342 81
AltUni2: 000157.ffffffff.0
Width: 1388
GlyphClass: 2
Flags: MW
HStem: -558 35<552 697> 0 21G<141 465 141 141 978 1374 978 978> 1291 321<464 464 464 666 666 672>
VStem: 140.5 323.5 140.5 324.5 557 299<-281.5 -235 -360.5 -210> 692 164<-444.5 -235> 880 334<1030.5 1145.5>
AnchorPoint: "Anchor-6" 702 1612 basechar 0
AnchorPoint: "Anchor-4" 702 -558 basechar 0
LayerCount: 2
Fore
SplineSet
916 641 m 1xe9
 1374 0 l 1
 978 0 l 1
 465 762 l 1
 465 0 l 1
 141 0 l 1
 140 1612 l 1
 666 1612 l 2
 967 1612 1214 1380 1214 1090 c 0
 1214 883 1089 702 916 641 c 1xe9
464 1291 m 1xf1
 464 886 l 1
 672 885 l 2
 782 884 880 973 880 1088 c 0
 880 1203 781 1291 672 1291 c 2
 464 1291 l 1xf1
705 -115 m 0xeb
 787 -115 856 -177 856 -293 c 0
 856 -428 765 -558 629 -558 c 0
 580 -558 552 -533 552 -523 c 1
 605 -523 692 -486 692 -403 c 0xeb
 692 -377 689 -369 680 -357 c 1
 630 -357 557 -318 557 -245 c 0xed
 557 -175 619 -115 705 -115 c 0xeb
EndSplineSet
EndChar

StartChar: S
Encoding: 83 83 82
AltUni2: 000073.ffffffff.0
Width: 1264
GlyphClass: 2
Flags: MW
HStem: -32 326<558.5 704 558.5 795.5> 1328 318<616.5 722>
VStem: 140 326<1127 1216.5 1127 1322.5> 882 326<399 501>
AnchorPoint: "Anchor-6" 645 1612 basechar 0
AnchorPoint: "Anchor-4" 645 0 basechar 0
LayerCount: 2
Fore
SplineSet
623 -32 m 0
 359 -32 164 78 56 278 c 1
 315 460 l 1
 386 346 489 294 628 294 c 0
 780 294 882 356 882 442 c 0
 882 560 689 653 520 737 c 0
 339 827 140 926 140 1183 c 0
 140 1462 376 1646 672 1646 c 0
 892 1646 1074 1555 1147 1360 c 1
 908 1193 l 1
 860 1289 767 1328 677 1328 c 0
 556 1328 466 1258 466 1175 c 0
 466 1079 588 1046 773 959 c 0
 1040 833 1208 697 1208 449 c 0
 1208 155 968 -32 623 -32 c 0
EndSplineSet
EndChar

StartChar: Sacute
Encoding: 346 346 83
AltUni2: 00015b.ffffffff.0
Width: 1264
GlyphClass: 2
Flags: MW
HStem: -32 326<558.5 704 558.5 795.5> 1328 318<616.5 722> 1745 327<673 715 486 953>
VStem: 140 326<1127 1216.5 1127 1322.5> 882 326<399 501>
AnchorPoint: "Anchor-6" 735 2062 basechar 0
AnchorPoint: "Anchor-4" 645 0 basechar 0
LayerCount: 2
Fore
SplineSet
715 1745 m 1
 486 1745 l 1
 673 2072 l 1
 953 2072 l 1
 715 1745 l 1
623 -32 m 0
 359 -32 164 78 56 278 c 1
 315 460 l 1
 386 346 489 294 628 294 c 0
 780 294 882 356 882 442 c 0
 882 560 689 653 520 737 c 0
 339 827 140 926 140 1183 c 0
 140 1462 376 1646 672 1646 c 0
 892 1646 1074 1555 1147 1360 c 1
 908 1193 l 1
 860 1289 767 1328 677 1328 c 0
 556 1328 466 1258 466 1175 c 0
 466 1079 588 1046 773 959 c 0
 1040 833 1208 697 1208 449 c 0
 1208 155 968 -32 623 -32 c 0
EndSplineSet
EndChar

StartChar: Scaron
Encoding: 352 352 84
AltUni2: 000161.ffffffff.0
Width: 1264
GlyphClass: 2
Flags: MW
HStem: -32 326<558.5 704 558.5 795.5> 1328 318<616.5 722> 1759 293<239 733 239 554>
VStem: 140 326<1127 1216.5 1127 1322.5> 882 326<399 501>
AnchorPoint: "Anchor-6" 646 2062 basechar 0
AnchorPoint: "Anchor-4" 645 0 basechar 0
LayerCount: 2
Fore
SplineSet
239 2052 m 1
 496 2052 l 1
 644 1905 l 1
 793 2052 l 1
 1052 2052 l 1
 733 1759 l 1
 554 1759 l 1
 239 2052 l 1
623 -32 m 0
 359 -32 164 78 56 278 c 1
 315 460 l 1
 386 346 489 294 628 294 c 0
 780 294 882 356 882 442 c 0
 882 560 689 653 520 737 c 0
 339 827 140 926 140 1183 c 0
 140 1462 376 1646 672 1646 c 0
 892 1646 1074 1555 1147 1360 c 1
 908 1193 l 1
 860 1289 767 1328 677 1328 c 0
 556 1328 466 1258 466 1175 c 0
 466 1079 588 1046 773 959 c 0
 1040 833 1208 697 1208 449 c 0
 1208 155 968 -32 623 -32 c 0
EndSplineSet
EndChar

StartChar: Scedilla
Encoding: 350 350 85
AltUni2: 00015f.ffffffff.0
Width: 1264
GlyphClass: 2
Flags: MW
HStem: -550 196<443 455 362 557> -30 21G<563 563> 1328 318<616.5 722>
VStem: 140 326<1127 1216.5 1127 1322.5> 624 220<-290 -249.5> 882 326<399 501>
AnchorPoint: "Anchor-6" 645 1612 basechar 0
AnchorPoint: "Anchor-4" 615 -550 basechar 0
LayerCount: 2
Fore
SplineSet
1208 449 m 0
 1208 184 1013 6 723 -26 c 1
 667 -97 l 1
 683 -95 693 -94 709 -94 c 0
 782 -94 844 -161 844 -253 c 0
 844 -410 671 -550 443 -550 c 1
 362 -354 l 1
 548 -354 624 -317 624 -263 c 0
 624 -236 605 -210 551 -210 c 0
 537 -210 520 -212 501 -216 c 1
 461 -164 l 1
 563 -30 l 1
 329 -14 156 93 56 278 c 1
 315 460 l 1
 386 346 489 294 628 294 c 0
 780 294 882 356 882 442 c 0
 882 560 689 653 520 737 c 0
 339 827 140 926 140 1183 c 0
 140 1462 376 1646 672 1646 c 0
 892 1646 1074 1555 1147 1360 c 1
 908 1193 l 1
 860 1289 767 1328 677 1328 c 0
 556 1328 466 1258 466 1175 c 0
 466 1079 588 1046 773 959 c 0
 1040 833 1208 697 1208 449 c 0
EndSplineSet
Substitution2: "'locl' Localized Forms in Latin lookup 4 per glyph data 2" uni0218
Substitution2: "'locl' Localized Forms in Latin lookup 4 per glyph data 0" uni0218
Substitution2: "'aalt' Access All Alternates in Latin lookup 0 subtable" uni0218
EndChar

StartChar: uni0218
Encoding: 536 536 86
AltUni2: 000219.ffffffff.0
Width: 1264
GlyphClass: 2
Flags: MW
HStem: -558 35<495 640> -357 242<605 623> -32 326<558.5 704 558.5 795.5> 1328 318<616.5 722>
VStem: 140 326<1127 1216.5 1127 1322.5> 500 299<-281.5 -235 -360.5 -210> 635 164<-444.5 -235> 882 326<399 501>
AnchorPoint: "Anchor-6" 645 1612 basechar 0
AnchorPoint: "Anchor-4" 645 -558 basechar 0
LayerCount: 2
Fore
SplineSet
623 -32 m 0xfb
 359 -32 164 78 56 278 c 1
 315 460 l 1
 386 346 489 294 628 294 c 0
 780 294 882 356 882 442 c 0
 882 560 689 653 520 737 c 0
 339 827 140 926 140 1183 c 0
 140 1462 376 1646 672 1646 c 0
 892 1646 1074 1555 1147 1360 c 1
 908 1193 l 1
 860 1289 767 1328 677 1328 c 0
 556 1328 466 1258 466 1175 c 0
 466 1079 588 1046 773 959 c 0
 1040 833 1208 697 1208 449 c 0
 1208 155 968 -32 623 -32 c 0xfb
572 -558 m 0
 523 -558 495 -533 495 -523 c 1
 548 -523 635 -486 635 -403 c 0xfb
 635 -377 632 -369 623 -357 c 1
 573 -357 500 -318 500 -245 c 0xfd
 500 -175 562 -115 648 -115 c 0
 730 -115 799 -177 799 -293 c 0
 799 -428 708 -558 572 -558 c 0
EndSplineSet
EndChar

StartChar: uni1E9E
Encoding: 223 223 87
AltUni2: 001e9e.ffffffff.0
Width: 1814
GlyphClass: 2
Flags: MW
HStem: -32 326<1142 1281 1142 1387.5> 0 21G<140 466 140 140> 1344 299<726 855>
VStem: 140 326<0 1061 0 1247> 1445 327<407.5 511.5>
AnchorPoint: "Anchor-6" 926 1612 basechar 0
AnchorPoint: "Anchor-4" 926 0 basechar 0
LayerCount: 2
Fore
SplineSet
1367 990 m 0x78
 1647 854 1772 686 1772 468 c 0
 1772 189 1566 -32 1209 -32 c 0
 961 -32 778 74 660 288 c 1
 886 513 l 1
 973 383 1068 294 1216 294 c 0xb8
 1346 294 1445 362 1445 453 c 0
 1445 570 1284 687 1140 764 c 0
 1073 799 877 898 773 929 c 1
 1029 1301 l 1
 966 1330 891 1344 819 1344 c 0
 633 1344 466 1232 466 1061 c 2
 466 0 l 1
 140 0 l 1
 140 1061 l 2
 140 1433 472 1643 884 1643 c 0
 1102 1643 1346 1587 1538 1462 c 1
 1201 1053 l 1
 1248 1042 1301 1022 1367 990 c 0x78
EndSplineSet
EndChar

StartChar: uni018F
Encoding: 399 399 88
AltUni2: 000259.ffffffff.0
Width: 1775
GlyphClass: 2
Flags: MW
HStem: -12 326<772.5 994 772.5 1117> 641 327<424 1349 424 424> 1297 327
VStem: 70 1635<577.5 832.5>
AnchorPoint: "Anchor-6" 888 1612 basechar 0
AnchorPoint: "Anchor-4" 888 0 basechar 0
LayerCount: 2
Fore
SplineSet
889 -12 m 0
 433 -12 70 349 70 806 c 0
 70 859 75 918 86 968 c 1
 1349 968 l 1
 1277 1164 1097 1297 885 1297 c 0
 783 1297 694 1269 614 1214 c 1
 438 1487 l 1
 562 1567 723 1623 889 1624 c 0
 1353 1626 1705 1250 1705 804 c 0
 1705 350 1345 -12 889 -12 c 0
889 314 m 0
 1099 314 1281 451 1349 641 c 1
 424 641 l 1
 486 466 656 314 889 314 c 0
EndSplineSet
EndChar

StartChar: T
Encoding: 84 84 89
AltUni2: 000074.ffffffff.0
Width: 1202
GlyphClass: 2
Flags: MW
HStem: 0 21G<439 764 439 439> 1291 321<42 439 42 1160 764 1160 764 764>
VStem: 439 325<0 1291 0 1291>
AnchorPoint: "Anchor-7" 601 806 basechar 0
AnchorPoint: "Anchor-6" 601 1612 basechar 0
AnchorPoint: "Anchor-4" 601 0 basechar 0
LayerCount: 2
Fore
SplineSet
1160 1612 m 1
 1160 1291 l 1
 764 1291 l 1
 764 0 l 1
 439 0 l 1
 439 1291 l 1
 42 1291 l 1
 42 1612 l 1
 1160 1612 l 1
EndSplineSet
EndChar

StartChar: Tbar
Encoding: 358 358 90
AltUni2: 000167.ffffffff.0
Width: 1202
GlyphClass: 2
Flags: MW
HStem: 0 21G<439 764 439 439> 692 230<207 439 207 439 764 996> 1291 321<42 439 42 1160 764 1160 764 764>
VStem: 439 325<0 692 0 692 922 1291>
AnchorPoint: "Anchor-7" 601 806 basechar 0
AnchorPoint: "Anchor-6" 601 1612 basechar 0
AnchorPoint: "Anchor-4" 601 0 basechar 0
LayerCount: 2
Fore
SplineSet
1160 1291 m 1
 764 1291 l 1
 764 922 l 1
 996 922 l 1
 996 692 l 1
 764 692 l 1
 764 0 l 1
 439 0 l 1
 439 692 l 1
 207 692 l 1
 207 922 l 1
 439 922 l 1
 439 1291 l 1
 42 1291 l 1
 42 1612 l 1
 1160 1612 l 1
 1160 1291 l 1
EndSplineSet
EndChar

StartChar: Tcaron
Encoding: 356 356 91
AltUni2: 000165.ffffffff.0
Width: 1202
GlyphClass: 2
Flags: MW
HStem: 0 21G<439 764 439 439> 1291 321<42 439 42 1160 764 1160 764 764> 1759 293<195 689 195 510>
VStem: 439 325<0 1291 0 1291>
AnchorPoint: "Anchor-7" 601 806 basechar 0
AnchorPoint: "Anchor-6" 602 2062 basechar 0
AnchorPoint: "Anchor-4" 601 0 basechar 0
LayerCount: 2
Fore
SplineSet
689 1759 m 1
 510 1759 l 1
 195 2052 l 1
 452 2052 l 1
 600 1905 l 1
 749 2052 l 1
 1008 2052 l 1
 689 1759 l 1
1160 1612 m 1
 1160 1291 l 1
 764 1291 l 1
 764 0 l 1
 439 0 l 1
 439 1291 l 1
 42 1291 l 1
 42 1612 l 1
 1160 1612 l 1
EndSplineSet
EndChar

StartChar: uni0162
Encoding: 354 354 92
AltUni2: 000163.ffffffff.0
Width: 1202
GlyphClass: 2
Flags: MW
HStem: -550 196<399 411 318 513> 0 21G<439 542 439 439 700 764 700 700> 1291 321<42 439 42 1160 764 764 764 1160>
VStem: 439 325<0 1291> 580 220<-290 -249.5>
AnchorPoint: "Anchor-7" 601 806 basechar 0
AnchorPoint: "Anchor-6" 601 1612 basechar 0
AnchorPoint: "Anchor-4" 571 -550 basechar 0
LayerCount: 2
Fore
SplineSet
764 0 m 1xf0
 700 0 l 1xf0
 623 -97 l 1
 639 -95 649 -94 665 -94 c 0
 738 -94 800 -161 800 -253 c 0
 800 -410 627 -550 399 -550 c 1
 318 -354 l 1
 504 -354 580 -317 580 -263 c 0
 580 -236 561 -210 507 -210 c 0xe8
 493 -210 476 -212 457 -216 c 1
 417 -164 l 1
 542 0 l 1
 439 0 l 1
 439 1291 l 1
 42 1291 l 1
 42 1612 l 1
 1160 1612 l 1
 1160 1291 l 1
 764 1291 l 1
 764 0 l 1xf0
EndSplineSet
Substitution2: "'locl' Localized Forms in Latin lookup 4 per glyph data 2" uni021A
Substitution2: "'locl' Localized Forms in Latin lookup 4 per glyph data 0" uni021A
Substitution2: "'aalt' Access All Alternates in Latin lookup 0 subtable" uni021A
EndChar

StartChar: uni021A
Encoding: 538 538 93
AltUni2: 00021b.ffffffff.0
Width: 1202
GlyphClass: 2
Flags: MW
HStem: -558 35<451 596> 0 21G<439 764 439 439> 1291 321<42 439 42 1160 764 1160 764 764>
VStem: 439 325<0 1291 0 1291> 456 308<-281.5 1291> 591 164<-444.5 -235>
AnchorPoint: "Anchor-7" 601 806 basechar 0
AnchorPoint: "Anchor-6" 601 1612 basechar 0
AnchorPoint: "Anchor-4" 601 -558 basechar 0
LayerCount: 2
Fore
SplineSet
1160 1612 m 1xf0
 1160 1291 l 1
 764 1291 l 1
 764 0 l 1
 439 0 l 1
 439 1291 l 1
 42 1291 l 1
 42 1612 l 1
 1160 1612 l 1xf0
604 -115 m 0xe4
 686 -115 755 -177 755 -293 c 0
 755 -428 664 -558 528 -558 c 0
 479 -558 451 -533 451 -523 c 1
 504 -523 591 -486 591 -403 c 0xe4
 591 -377 588 -369 579 -357 c 1
 529 -357 456 -318 456 -245 c 0xe8
 456 -175 518 -115 604 -115 c 0xe4
EndSplineSet
EndChar

StartChar: U
Encoding: 85 85 94
AltUni2: 000075.ffffffff.0
Width: 1496
GlyphClass: 2
Flags: MW
HStem: -35 328<669 825 669 919.5> 1592 20G<126 452 452 452 1044 1370 1370 1370>
VStem: 126 326<596 597 597 1612> 1044 326<597 1612>
AnchorPoint: "Anchor-8" 1480 1612 basechar 0
AnchorPoint: "Anchor-6" 748 1612 basechar 0
AnchorPoint: "Anchor-5" 925 10 basechar 0
AnchorPoint: "Anchor-4" 748 0 basechar 0
LayerCount: 2
Fore
SplineSet
748 -35 m 0
 405 -35 126 231 126 596 c 2
 126 1612 l 1
 452 1612 l 1
 452 597 l 2
 452 421 591 293 747 293 c 0
 903 293 1044 422 1044 597 c 2
 1044 1612 l 1
 1370 1612 l 1
 1370 596 l 2
 1370 231 1091 -35 748 -35 c 0
EndSplineSet
EndChar

StartChar: Uacute
Encoding: 218 218 95
AltUni2: 0000fa.ffffffff.0
Width: 1496
GlyphClass: 2
Flags: MW
HStem: -35 328<669 825 669 919.5> 1592 20G<126 452 452 452 1044 1370 1370 1370> 1745 327<776 818 589 1056>
VStem: 126 326<596 597 597 1612> 1044 326<597 1612>
AnchorPoint: "Anchor-8" 1480 1612 basechar 0
AnchorPoint: "Anchor-6" 838 2062 basechar 0
AnchorPoint: "Anchor-5" 925 10 basechar 0
AnchorPoint: "Anchor-4" 748 0 basechar 0
LayerCount: 2
Fore
SplineSet
818 1745 m 1
 589 1745 l 1
 776 2072 l 1
 1056 2072 l 1
 818 1745 l 1
748 -35 m 0
 405 -35 126 231 126 596 c 2
 126 1612 l 1
 452 1612 l 1
 452 597 l 2
 452 421 591 293 747 293 c 0
 903 293 1044 422 1044 597 c 2
 1044 1612 l 1
 1370 1612 l 1
 1370 596 l 2
 1370 231 1091 -35 748 -35 c 0
EndSplineSet
EndChar

StartChar: Ucircumflex
Encoding: 219 219 96
AltUni2: 0000fb.ffffffff.0
Width: 1496
GlyphClass: 2
Flags: MW
HStem: -35 328<669 825 669 919.5> 1592 20G<126 452 452 452 1044 1370 1370 1370> 1759 293<342 836 657 896 657 1155>
VStem: 126 326<596 597 597 1612> 1044 326<597 1612>
AnchorPoint: "Anchor-8" 1480 1612 basechar 0
AnchorPoint: "Anchor-6" 749 2052 basechar 0
AnchorPoint: "Anchor-5" 925 10 basechar 0
AnchorPoint: "Anchor-4" 748 0 basechar 0
LayerCount: 2
Fore
SplineSet
342 1759 m 1
 657 2052 l 1
 836 2052 l 1
 1155 1759 l 1
 896 1759 l 1
 747 1906 l 1
 599 1759 l 1
 342 1759 l 1
748 -35 m 0
 405 -35 126 231 126 596 c 2
 126 1612 l 1
 452 1612 l 1
 452 597 l 2
 452 421 591 293 747 293 c 0
 903 293 1044 422 1044 597 c 2
 1044 1612 l 1
 1370 1612 l 1
 1370 596 l 2
 1370 231 1091 -35 748 -35 c 0
EndSplineSet
EndChar

StartChar: Udieresis
Encoding: 220 220 97
AltUni2: 0000fc.ffffffff.0
Width: 1496
GlyphClass: 2
Flags: MW
HStem: -35 328<669 825 669 919.5> 1592 20G<126 452 452 452 1044 1370 1370 1370> 1778 241<491 556.5 939.5 1005>
VStem: 126 326<596 597 597 1612> 403 241<1865 1930.5> 852 241<1865 1930.5> 1044 326<597 1612>
AnchorPoint: "Anchor-8" 1480 1612 basechar 0
AnchorPoint: "Anchor-6" 748 2019 basechar 0
AnchorPoint: "Anchor-5" 925 10 basechar 0
AnchorPoint: "Anchor-4" 748 0 basechar 0
LayerCount: 2
Fore
SplineSet
524 1778 m 0xec
 458 1778 403 1832 403 1898 c 0
 403 1963 458 2019 524 2019 c 0
 589 2019 644 1963 644 1898 c 0
 644 1832 589 1778 524 1778 c 0xec
972 1778 m 0
 906 1778 852 1832 852 1898 c 0
 852 1963 907 2019 972 2019 c 0
 1038 2019 1093 1963 1093 1898 c 0
 1093 1832 1038 1778 972 1778 c 0
748 -35 m 0xf2
 405 -35 126 231 126 596 c 2
 126 1612 l 1
 452 1612 l 1
 452 597 l 2
 452 421 591 293 747 293 c 0
 903 293 1044 422 1044 597 c 2
 1044 1612 l 1
 1370 1612 l 1
 1370 596 l 2
 1370 231 1091 -35 748 -35 c 0xf2
EndSplineSet
EndChar

StartChar: Ugrave
Encoding: 217 217 98
AltUni2: 0000f9.ffffffff.0
Width: 1496
GlyphClass: 2
Flags: MW
HStem: -35 328<669 825 669 919.5> 1592 20G<126 452 452 452 1044 1370 1370 1370> 1745 327<753 753 753 795 515 982>
VStem: 126 326<596 597 597 1612> 1044 326<597 1612>
AnchorPoint: "Anchor-8" 1480 1612 basechar 0
AnchorPoint: "Anchor-6" 749 2072 basechar 0
AnchorPoint: "Anchor-5" 925 10 basechar 0
AnchorPoint: "Anchor-4" 748 0 basechar 0
LayerCount: 2
Fore
SplineSet
753 1745 m 1
 515 2072 l 1
 795 2072 l 1
 982 1745 l 1
 753 1745 l 1
748 -35 m 0
 405 -35 126 231 126 596 c 2
 126 1612 l 1
 452 1612 l 1
 452 597 l 2
 452 421 591 293 747 293 c 0
 903 293 1044 422 1044 597 c 2
 1044 1612 l 1
 1370 1612 l 1
 1370 596 l 2
 1370 231 1091 -35 748 -35 c 0
EndSplineSet
EndChar

StartChar: Uhungarumlaut
Encoding: 368 368 99
AltUni2: 000171.ffffffff.0
Width: 1496
GlyphClass: 2
Flags: MW
HStem: -35 328<669 825 669 919.5> 1592 20G<126 452 452 452 1044 1370 1370 1370> 1745 327<410 806 556 608 749 806 956 958 749 749>
VStem: 126 326<596 597 597 1612> 1044 326<597 1612>
AnchorPoint: "Anchor-8" 1480 1612 basechar 0
AnchorPoint: "Anchor-6" 748 2072 basechar 0
AnchorPoint: "Anchor-5" 925 10 basechar 0
AnchorPoint: "Anchor-4" 748 0 basechar 0
LayerCount: 2
Fore
SplineSet
410 1745 m 1
 556 2072 l 1
 806 2072 l 1
 608 1745 l 1
 410 1745 l 1
749 1745 m 1
 956 2072 l 1
 1226 2072 l 1
 958 1745 l 1
 749 1745 l 1
748 -35 m 0
 405 -35 126 231 126 596 c 2
 126 1612 l 1
 452 1612 l 1
 452 597 l 2
 452 421 591 293 747 293 c 0
 903 293 1044 422 1044 597 c 2
 1044 1612 l 1
 1370 1612 l 1
 1370 596 l 2
 1370 231 1091 -35 748 -35 c 0
EndSplineSet
EndChar

StartChar: Umacron
Encoding: 362 362 100
AltUni2: 00016b.ffffffff.0
Width: 1496
GlyphClass: 2
Flags: MW
HStem: -35 328<669 825 669 919.5> 1592 20G<126 452 452 452 1044 1370 1370 1370> 1808 162<457 1039 457 1039>
VStem: 126 326<596 597 597 1612> 457 582<1808 1970 1808 1970> 1044 326<597 1612>
AnchorPoint: "Anchor-8" 1480 1612 basechar 0
AnchorPoint: "Anchor-6" 748 1970 basechar 0
AnchorPoint: "Anchor-5" 925 10 basechar 0
AnchorPoint: "Anchor-4" 748 0 basechar 0
LayerCount: 2
Fore
SplineSet
457 1808 m 1
 457 1970 l 1
 1039 1970 l 1
 1039 1808 l 1
 457 1808 l 1
748 -35 m 0xf4
 405 -35 126 231 126 596 c 2
 126 1612 l 1
 452 1612 l 1
 452 597 l 2
 452 421 591 293 747 293 c 0
 903 293 1044 422 1044 597 c 2
 1044 1612 l 1
 1370 1612 l 1
 1370 596 l 2
 1370 231 1091 -35 748 -35 c 0xf4
EndSplineSet
EndChar

StartChar: Uogonek
Encoding: 370 370 101
AltUni2: 000173.ffffffff.0
Width: 1496
GlyphClass: 2
Flags: MW
HStem: -544 228<757.5 797> -27 21G 1592 20G<126 452 452 452 1044 1370 1370 1370>
VStem: 126 326<596 597 597 1612> 490 229<-383 -200> 1044 326<597 1612>
AnchorPoint: "Anchor-8" 1480 1612 basechar 0
AnchorPoint: "Anchor-6" 748 1612 basechar 0
AnchorPoint: "Anchor-5" 925 10 basechar 0
AnchorPoint: "Anchor-4" 748 0 basechar 0
LayerCount: 2
Fore
SplineSet
1044 1612 m 1
 1370 1612 l 1
 1370 596 l 2
 1370 281 1162 39 884 -21 c 1
 771 -107 719 -166 719 -234 c 0
 719 -255 724 -316 791 -316 c 0
 810 -316 855 -311 904 -300 c 1
 939 -524 l 1
 877 -538 821 -544 773 -544 c 0
 591 -544 490 -456 490 -310 c 0
 490 -193 554 -92 645 -27 c 1
 351 20 126 268 126 596 c 2
 126 1612 l 1
 452 1612 l 1
 452 597 l 2
 452 421 591 293 747 293 c 0
 903 293 1044 422 1044 597 c 2
 1044 1612 l 1
EndSplineSet
EndChar

StartChar: Uring
Encoding: 366 366 102
AltUni2: 00016f.ffffffff.0
Width: 1496
GlyphClass: 2
Flags: MW
HStem: -35 328<669 825 669 919.5> 1592 20G<126 452 452 452 1044 1370 1370 1370> 1708 131<724 774 724 809> 2020 132<724 774>
VStem: 126 326<596 597 597 1612> 527 131<1904 1954 1904 1991> 839 131<1904 1954> 1044 326<597 1612>
AnchorPoint: "Anchor-8" 1480 1612 basechar 0
AnchorPoint: "Anchor-6" 749 2152 basechar 0
AnchorPoint: "Anchor-5" 925 10 basechar 0
AnchorPoint: "Anchor-4" 748 0 basechar 0
LayerCount: 2
Fore
SplineSet
749 1708 m 0
 627 1708 527 1808 527 1930 c 0
 527 2052 627 2152 749 2152 c 0
 869 2152 970 2051 970 1930 c 0
 970 1809 869 1708 749 1708 c 0
749 1839 m 0
 799 1839 839 1879 839 1929 c 0
 839 1979 799 2020 749 2020 c 0
 699 2020 658 1979 658 1929 c 0
 658 1879 699 1839 749 1839 c 0
748 -35 m 0
 405 -35 126 231 126 596 c 2
 126 1612 l 1
 452 1612 l 1
 452 597 l 2
 452 421 591 293 747 293 c 0
 903 293 1044 422 1044 597 c 2
 1044 1612 l 1
 1370 1612 l 1
 1370 596 l 2
 1370 231 1091 -35 748 -35 c 0
EndSplineSet
EndChar

StartChar: V
Encoding: 86 86 103
AltUni2: 000076.ffffffff.0
Width: 1559
GlyphClass: 2
Flags: MW
HStem: 1592 20G<21 364 364 364 1191 1538 1538 1538>
VStem: 21 1517<1612 1612>
AnchorPoint: "Anchor-6" 780 1612 basechar 0
AnchorPoint: "Anchor-4" 780 0 basechar 0
LayerCount: 2
Fore
SplineSet
1191 1612 m 1
 1538 1612 l 1
 784 -40 l 1
 772 -40 l 1
 21 1612 l 1
 364 1612 l 1
 777 676 l 1
 1191 1612 l 1
EndSplineSet
EndChar

StartChar: W
Encoding: 87 87 104
AltUni2: 000077.ffffffff.0
Width: 1933
GlyphClass: 2
Flags: MW
HStem: -20 21G<546 546 546 564 1368 1368 1368 1387> 1592 20G<21 370 370 370 1562 1912 1912 1912>
VStem: 21 1891<1612 1612>
AnchorPoint: "Anchor-6" 967 1612 basechar 0
AnchorPoint: "Anchor-4" 967 0 basechar 0
LayerCount: 2
Fore
SplineSet
546 -20 m 1
 21 1612 l 1
 370 1612 l 1
 618 799 l 1
 964 1606 l 1
 970 1606 l 1
 1315 800 l 1
 1562 1612 l 1
 1912 1612 l 1
 1387 -20 l 1
 1368 -20 l 1
 963 856 l 1
 564 -20 l 1
 546 -20 l 1
EndSplineSet
EndChar

StartChar: Wacute
Encoding: 7810 7810 105
AltUni2: 001e83.ffffffff.0
Width: 1933
GlyphClass: 2
Flags: MW
HStem: -20 21G<546 546 546 564 1368 1368 1368 1387> 1592 20G<21 370 370 370 1562 1912 1912 1912> 1745 327<995 1037 808 1275>
VStem: 21 1891<1612 1612>
AnchorPoint: "Anchor-6" 1057 2062 basechar 0
AnchorPoint: "Anchor-4" 967 0 basechar 0
LayerCount: 2
Fore
SplineSet
1037 1745 m 1
 808 1745 l 1
 995 2072 l 1
 1275 2072 l 1
 1037 1745 l 1
546 -20 m 1
 21 1612 l 1
 370 1612 l 1
 618 799 l 1
 964 1606 l 1
 970 1606 l 1
 1315 800 l 1
 1562 1612 l 1
 1912 1612 l 1
 1387 -20 l 1
 1368 -20 l 1
 963 856 l 1
 564 -20 l 1
 546 -20 l 1
EndSplineSet
EndChar

StartChar: Wcircumflex
Encoding: 372 372 106
AltUni2: 000175.ffffffff.0
Width: 1933
GlyphClass: 2
Flags: MW
HStem: -20 21G<546 546 546 564 1368 1368 1368 1387> 1592 20G<21 370 370 370 1562 1912 1912 1912> 1759 293<561 1055 876 1115 876 1374>
VStem: 21 1891<1612 1612>
AnchorPoint: "Anchor-6" 968 2052 basechar 0
AnchorPoint: "Anchor-4" 967 0 basechar 0
LayerCount: 2
Fore
SplineSet
561 1759 m 1
 876 2052 l 1
 1055 2052 l 1
 1374 1759 l 1
 1115 1759 l 1
 966 1906 l 1
 818 1759 l 1
 561 1759 l 1
546 -20 m 1
 21 1612 l 1
 370 1612 l 1
 618 799 l 1
 964 1606 l 1
 970 1606 l 1
 1315 800 l 1
 1562 1612 l 1
 1912 1612 l 1
 1387 -20 l 1
 1368 -20 l 1
 963 856 l 1
 564 -20 l 1
 546 -20 l 1
EndSplineSet
EndChar

StartChar: Wdieresis
Encoding: 7812 7812 107
AltUni2: 001e85.ffffffff.0
Width: 1933
GlyphClass: 2
Flags: MW
HStem: -20 21G<546 546 546 564 1368 1368 1368 1387> 1592 20G<21 370 370 370 1562 1912 1912 1912> 1778 241<710 775.5 1158.5 1224>
VStem: 622 241<1865 1930.5> 1071 241<1865 1930.5>
AnchorPoint: "Anchor-6" 967 2019 basechar 0
AnchorPoint: "Anchor-4" 967 0 basechar 0
LayerCount: 2
Fore
SplineSet
743 1778 m 0
 677 1778 622 1832 622 1898 c 0
 622 1963 677 2019 743 2019 c 0
 808 2019 863 1963 863 1898 c 0
 863 1832 808 1778 743 1778 c 0
1191 1778 m 0
 1125 1778 1071 1832 1071 1898 c 0
 1071 1963 1126 2019 1191 2019 c 0
 1257 2019 1312 1963 1312 1898 c 0
 1312 1832 1257 1778 1191 1778 c 0
546 -20 m 1
 21 1612 l 1
 370 1612 l 1
 618 799 l 1
 964 1606 l 1
 970 1606 l 1
 1315 800 l 1
 1562 1612 l 1
 1912 1612 l 1
 1387 -20 l 1
 1368 -20 l 1
 963 856 l 1
 564 -20 l 1
 546 -20 l 1
EndSplineSet
EndChar

StartChar: Wgrave
Encoding: 7808 7808 108
AltUni2: 001e81.ffffffff.0
Width: 1933
GlyphClass: 2
Flags: MW
HStem: -20 21G<546 546 546 564 1368 1368 1368 1387> 1592 20G<21 370 370 370 1562 1912 1912 1912> 1745 327<972 972 972 1014 734 1201>
VStem: 21 1891<1612 1612>
AnchorPoint: "Anchor-6" 968 2072 basechar 0
AnchorPoint: "Anchor-4" 967 0 basechar 0
LayerCount: 2
Fore
SplineSet
972 1745 m 1
 734 2072 l 1
 1014 2072 l 1
 1201 1745 l 1
 972 1745 l 1
546 -20 m 1
 21 1612 l 1
 370 1612 l 1
 618 799 l 1
 964 1606 l 1
 970 1606 l 1
 1315 800 l 1
 1562 1612 l 1
 1912 1612 l 1
 1387 -20 l 1
 1368 -20 l 1
 963 856 l 1
 564 -20 l 1
 546 -20 l 1
EndSplineSet
EndChar

StartChar: X
Encoding: 88 88 109
AltUni2: 000078.ffffffff.0
Width: 1397
GlyphClass: 2
Flags: MW
HStem: 0 21G<21 21 21 393 1004 1004 1004 1376> 1592 20G<51 423 423 423 974 1346 1346 1346>
VStem: 21 1355<0 0>
AnchorPoint: "Anchor-6" 699 1612 basechar 0
AnchorPoint: "Anchor-4" 699 0 basechar 0
LayerCount: 2
Fore
SplineSet
21 0 m 1
 511 837 l 1
 51 1612 l 1
 423 1612 l 1
 699 1124 l 1
 974 1612 l 1
 1346 1612 l 1
 885 838 l 1
 1376 0 l 1
 1004 0 l 1
 698 541 l 1
 393 0 l 1
 21 0 l 1
EndSplineSet
EndChar

StartChar: Y
Encoding: 89 89 110
AltUni2: 000079.ffffffff.0
Width: 1363
GlyphClass: 2
Flags: MW
HStem: 0 21G<520 520 520 842> 1592 20G<21 387 387 387 975 1342 1342 1342>
VStem: 520 322<0 692 0 692>
AnchorPoint: "Anchor-7" 681 667 basechar 0
AnchorPoint: "Anchor-6" 682 1612 basechar 0
AnchorPoint: "Anchor-4" 682 0 basechar 0
LayerCount: 2
Fore
SplineSet
520 0 m 1
 520 692 l 1
 21 1612 l 1
 387 1612 l 1
 681 1052 l 1
 975 1612 l 1
 1342 1612 l 1
 842 692 l 1
 842 0 l 1
 520 0 l 1
EndSplineSet
EndChar

StartChar: Yacute
Encoding: 221 221 111
AltUni2: 0000fd.ffffffff.0
Width: 1363
GlyphClass: 2
Flags: MW
HStem: 0 21G<520 520 520 842> 1592 20G<21 387 387 387 975 1342 1342 1342> 1745 327<710 752 523 990>
VStem: 520 322<0 692 0 692>
AnchorPoint: "Anchor-7" 681 667 basechar 0
AnchorPoint: "Anchor-6" 772 2062 basechar 0
AnchorPoint: "Anchor-4" 682 0 basechar 0
LayerCount: 2
Fore
SplineSet
752 1745 m 1
 523 1745 l 1
 710 2072 l 1
 990 2072 l 1
 752 1745 l 1
520 0 m 1
 520 692 l 1
 21 1612 l 1
 387 1612 l 1
 681 1052 l 1
 975 1612 l 1
 1342 1612 l 1
 842 692 l 1
 842 0 l 1
 520 0 l 1
EndSplineSet
EndChar

StartChar: Ycircumflex
Encoding: 374 374 112
AltUni2: 000177.ffffffff.0
Width: 1363
GlyphClass: 2
Flags: MW
HStem: 0 21G<520 520 520 842> 1592 20G<21 387 387 387 975 1342 1342 1342> 1759 293<276 770 591 830 591 1089>
VStem: 520 322<0 692 0 692>
AnchorPoint: "Anchor-7" 681 667 basechar 0
AnchorPoint: "Anchor-6" 683 2052 basechar 0
AnchorPoint: "Anchor-4" 682 0 basechar 0
LayerCount: 2
Fore
SplineSet
276 1759 m 1
 591 2052 l 1
 770 2052 l 1
 1089 1759 l 1
 830 1759 l 1
 681 1906 l 1
 533 1759 l 1
 276 1759 l 1
520 0 m 1
 520 692 l 1
 21 1612 l 1
 387 1612 l 1
 681 1052 l 1
 975 1612 l 1
 1342 1612 l 1
 842 692 l 1
 842 0 l 1
 520 0 l 1
EndSplineSet
EndChar

StartChar: Ydieresis
Encoding: 255 255 113
AltUni2: 000178.ffffffff.0
Width: 1363
GlyphClass: 2
Flags: MW
HStem: 0 21G<520 520 520 842> 1592 20G<21 387 387 387 975 1342 1342 1342> 1778 241<425 490.5 873.5 939>
VStem: 337 241<1865 1930.5> 520 322<0 692 0 692> 786 241<1865 1930.5>
AnchorPoint: "Anchor-7" 681 667 basechar 0
AnchorPoint: "Anchor-6" 682 2019 basechar 0
AnchorPoint: "Anchor-4" 682 0 basechar 0
LayerCount: 2
Fore
SplineSet
458 1778 m 0xf4
 392 1778 337 1832 337 1898 c 0
 337 1963 392 2019 458 2019 c 0
 523 2019 578 1963 578 1898 c 0
 578 1832 523 1778 458 1778 c 0xf4
906 1778 m 0
 840 1778 786 1832 786 1898 c 0
 786 1963 841 2019 906 2019 c 0
 972 2019 1027 1963 1027 1898 c 0
 1027 1832 972 1778 906 1778 c 0
520 0 m 1xe8
 520 692 l 1
 21 1612 l 1
 387 1612 l 1
 681 1052 l 1
 975 1612 l 1
 1342 1612 l 1
 842 692 l 1
 842 0 l 1
 520 0 l 1xe8
EndSplineSet
EndChar

StartChar: Ygrave
Encoding: 7922 7922 114
AltUni2: 001ef3.ffffffff.0
Width: 1363
GlyphClass: 2
Flags: MW
HStem: 0 21G<520 520 520 842> 1592 20G<21 387 387 387 975 1342 1342 1342> 1745 327<687 687 687 729 449 916>
VStem: 520 322<0 692 0 692>
AnchorPoint: "Anchor-7" 681 667 basechar 0
AnchorPoint: "Anchor-6" 683 2072 basechar 0
AnchorPoint: "Anchor-4" 682 0 basechar 0
LayerCount: 2
Fore
SplineSet
687 1745 m 1
 449 2072 l 1
 729 2072 l 1
 916 1745 l 1
 687 1745 l 1
520 0 m 1
 520 692 l 1
 21 1612 l 1
 387 1612 l 1
 681 1052 l 1
 975 1612 l 1
 1342 1612 l 1
 842 692 l 1
 842 0 l 1
 520 0 l 1
EndSplineSet
EndChar

StartChar: Z
Encoding: 90 90 115
AltUni2: 00007a.ffffffff.0
Width: 1302
GlyphClass: 2
Flags: MW
HStem: 0 322<597 1218 597 1218> 1291 321<84 705 84 1218>
VStem: 84 1134<0 322 0 1612>
AnchorPoint: "Anchor-7" 651 806 basechar 0
AnchorPoint: "Anchor-6" 651 1612 basechar 0
AnchorPoint: "Anchor-4" 651 0 basechar 0
LayerCount: 2
Fore
SplineSet
84 0 m 1
 705 1291 l 1
 84 1291 l 1
 84 1612 l 1
 1218 1612 l 1
 597 322 l 1
 1218 322 l 1
 1218 0 l 1
 84 0 l 1
EndSplineSet
EndChar

StartChar: Zacute
Encoding: 377 377 116
AltUni2: 00017a.ffffffff.0
Width: 1302
GlyphClass: 2
Flags: MW
HStem: 0 322<597 1218 597 1218> 1291 321<84 705 84 1218> 1745 327<679 721 492 959>
VStem: 84 1134<0 322 0 1612>
AnchorPoint: "Anchor-7" 651 806 basechar 0
AnchorPoint: "Anchor-6" 741 2062 basechar 0
AnchorPoint: "Anchor-4" 651 0 basechar 0
LayerCount: 2
Fore
SplineSet
721 1745 m 1
 492 1745 l 1
 679 2072 l 1
 959 2072 l 1
 721 1745 l 1
84 0 m 1
 705 1291 l 1
 84 1291 l 1
 84 1612 l 1
 1218 1612 l 1
 597 322 l 1
 1218 322 l 1
 1218 0 l 1
 84 0 l 1
EndSplineSet
EndChar

StartChar: Zcaron
Encoding: 381 381 117
AltUni2: 00017e.ffffffff.0
Width: 1302
GlyphClass: 2
Flags: MW
HStem: 0 322<597 1218 597 1218> 1291 321<84 705 84 1218> 1759 293<245 739 245 560>
VStem: 84 1134<0 322 0 1612>
AnchorPoint: "Anchor-7" 651 806 basechar 0
AnchorPoint: "Anchor-6" 652 2062 basechar 0
AnchorPoint: "Anchor-4" 651 0 basechar 0
LayerCount: 2
Fore
SplineSet
245 2052 m 1
 502 2052 l 1
 650 1905 l 1
 799 2052 l 1
 1058 2052 l 1
 739 1759 l 1
 560 1759 l 1
 245 2052 l 1
84 0 m 1
 705 1291 l 1
 84 1291 l 1
 84 1612 l 1
 1218 1612 l 1
 597 322 l 1
 1218 322 l 1
 1218 0 l 1
 84 0 l 1
EndSplineSet
EndChar

StartChar: Zdotaccent
Encoding: 379 379 118
AltUni2: 00017c.ffffffff.0
Width: 1302
GlyphClass: 2
Flags: MW
HStem: 0 322<597 1218 597 1218> 1291 321<84 705 84 1218> 1776 280<613.5 690 613.5 690>
VStem: 512 280<1876.5 1952>
AnchorPoint: "Anchor-7" 651 806 basechar 0
AnchorPoint: "Anchor-6" 652 2041 basechar 0
AnchorPoint: "Anchor-4" 651 0 basechar 0
LayerCount: 2
Fore
SplineSet
652 1776 m 0
 574 1776 512 1839 512 1914 c 0
 512 1990 575 2056 652 2056 c 0
 728 2056 792 1990 792 1915 c 0
 792 1838 728 1776 652 1776 c 0
84 0 m 1
 705 1291 l 1
 84 1291 l 1
 84 1612 l 1
 1218 1612 l 1
 597 322 l 1
 1218 322 l 1
 1218 0 l 1
 84 0 l 1
EndSplineSet
EndChar

StartChar: i
Encoding: 105 105 119
Width: 604
GlyphClass: 2
Flags: MW
HStem: 0 21G<140 140 140 464> 1592 20G<140 464 464 464>
VStem: 140 324<0 1612 0 1612>
AnchorPoint: "Anchor-6" 302 1612 basechar 0
AnchorPoint: "Anchor-5" 464 0 basechar 0
AnchorPoint: "Anchor-4" 302 0 basechar 0
LayerCount: 2
Fore
SplineSet
140 0 m 1
 140 1612 l 1
 464 1612 l 1
 464 0 l 1
 140 0 l 1
EndSplineSet
Substitution2: "Single Substitution lookup 10 subtable" dotlessi
Substitution2: "'locl' Localized Forms in Latin lookup 4 per glyph data 6" i.loclTRK
Substitution2: "'locl' Localized Forms in Latin lookup 4 per glyph data 5" i.loclTRK
Substitution2: "'locl' Localized Forms in Latin lookup 4 per glyph data 4" i.loclTRK
Substitution2: "'locl' Localized Forms in Latin lookup 4 per glyph data 3" i.loclTRK
Substitution2: "'locl' Localized Forms in Latin lookup 4 per glyph data 1" i.loclTRK
Substitution2: "'aalt' Access All Alternates in Latin lookup 0 subtable" i.loclTRK
EndChar

StartChar: dotlessi
Encoding: 305 305 120
Width: 604
GlyphClass: 2
Flags: MW
HStem: 0 21G<140 140 140 464> 1592 20G<140 464 464 464>
VStem: 140 324<0 1612 0 1612>
AnchorPoint: "Anchor-6" 302 1612 basechar 0
AnchorPoint: "Anchor-5" 464 0 basechar 0
AnchorPoint: "Anchor-4" 302 0 basechar 0
LayerCount: 2
Fore
SplineSet
140 0 m 1
 140 1612 l 1
 464 1612 l 1
 464 0 l 1
 140 0 l 1
EndSplineSet
EndChar

StartChar: i.loclTRK
Encoding: 65539 -1 121
Width: 604
GlyphClass: 2
Flags: MW
HStem: 0 21G<140 140 140 464> 1592 20G<140 464 464 464> 1776 280<264.5 341 264.5 341>
VStem: 140 324<0 1612 0 1612> 163 280<1876.5 1952>
AnchorPoint: "Anchor-6" 303 2041 basechar 0
AnchorPoint: "Anchor-5" 464 0 basechar 0
AnchorPoint: "Anchor-4" 302 0 basechar 0
LayerCount: 2
Fore
SplineSet
303 1776 m 0xe8
 225 1776 163 1839 163 1914 c 0
 163 1990 226 2056 303 2056 c 0
 379 2056 443 1990 443 1915 c 0
 443 1838 379 1776 303 1776 c 0xe8
140 0 m 1xf0
 140 1612 l 1
 464 1612 l 1
 464 0 l 1
 140 0 l 1xf0
EndSplineSet
EndChar

StartChar: zero
Encoding: 48 48 122
Width: 1476
Flags: MW
HStem: -28 327<632 842 632 938.5> 1315 326<632 842>
VStem: 70 323<657.5 955 657.5 1050.5> 1081 325<657.5 955>
LayerCount: 2
Fore
SplineSet
739 -28 m 0
 339 -28 70 318 70 806 c 0
 70 1295 339 1641 739 1641 c 0
 1138 1641 1406 1295 1406 806 c 0
 1406 318 1138 -28 739 -28 c 0
737 299 m 0
 947 299 1081 509 1081 806 c 0
 1081 1104 947 1315 737 1315 c 0
 527 1315 393 1104 393 806 c 0
 393 509 527 299 737 299 c 0
EndSplineSet
Substitution2: "'tnum' Tabular Numbers in Latin lookup 6 subtable" zero.tf
AlternateSubs2: "'aalt' Access All Alternates in Latin lookup 1 subtable" zero.tf
EndChar

StartChar: zero.lf
Encoding: 65540 -1 123
Width: 1476
Flags: MW
HStem: -28 327<632 842 632 938.5> 1315 326<632 842>
VStem: 70 323<657.5 955 657.5 1050.5> 1081 325<657.5 955>
LayerCount: 2
Fore
SplineSet
739 -28 m 0
 339 -28 70 318 70 806 c 0
 70 1295 339 1641 739 1641 c 0
 1138 1641 1406 1295 1406 806 c 0
 1406 318 1138 -28 739 -28 c 0
737 299 m 0
 947 299 1081 509 1081 806 c 0
 1081 1104 947 1315 737 1315 c 0
 527 1315 393 1104 393 806 c 0
 393 509 527 299 737 299 c 0
EndSplineSet
EndChar

StartChar: zero.tf
Encoding: 65541 -1 124
Width: 1416
Flags: MW
HStem: -28 327<662 872 662 968.5> 1315 326<662 872>
VStem: 100 323<657.5 955 657.5 1050.5> 1111 325<657.5 955>
LayerCount: 2
Fore
SplineSet
769 -28 m 0
 369 -28 100 318 100 806 c 0
 100 1295 369 1641 769 1641 c 0
 1168 1641 1436 1295 1436 806 c 0
 1436 318 1168 -28 769 -28 c 0
767 299 m 0
 977 299 1111 509 1111 806 c 0
 1111 1104 977 1315 767 1315 c 0
 557 1315 423 1104 423 806 c 0
 423 509 557 299 767 299 c 0
EndSplineSet
Substitution2: "'case' Case-Sensitive Forms in Latin lookup 7 subtable" zero.lf
Substitution2: "'pnum' Proportional Numbers in Latin lookup 5 subtable" zero
AlternateSubs2: "'aalt' Access All Alternates in Latin lookup 1 subtable" zero zero.lf
EndChar

StartChar: one
Encoding: 49 49 125
Width: 717
Flags: MW
HStem: 0 21G<253 577 253 253>
VStem: 70 507<1163 1501 1501 1501> 253 324<0 1216 1216 1216>
LayerCount: 2
Fore
SplineSet
482 1632 m 1xa0
 577 1632 l 1
 577 0 l 1
 253 0 l 1
 253 1216 l 1xa0
 70 1163 l 1
 70 1501 l 1xc0
 482 1632 l 1xa0
EndSplineSet
Substitution2: "'tnum' Tabular Numbers in Latin lookup 6 subtable" one.tf
AlternateSubs2: "'aalt' Access All Alternates in Latin lookup 1 subtable" one.tf
EndChar

StartChar: one.lf
Encoding: 65542 -1 126
Width: 717
Flags: MW
HStem: 0 21G<253 577 253 253>
VStem: 70 507<1163 1501 1501 1501> 253 324<0 1216 1216 1216>
LayerCount: 2
Fore
SplineSet
482 1632 m 1xa0
 577 1632 l 1
 577 0 l 1
 253 0 l 1
 253 1216 l 1xa0
 70 1163 l 1
 70 1501 l 1xc0
 482 1632 l 1xa0
EndSplineSet
EndChar

StartChar: one.tf
Encoding: 65543 -1 127
Width: 1416
Flags: MW
HStem: 0 300<258 542 866 1158 258 542>
VStem: 359 507<1163 1501 1501 1501> 542 324<300 1216 1216 1216>
LayerCount: 2
Fore
SplineSet
866 300 m 1xa0
 1158 300 l 1
 1158 0 l 1
 258 0 l 1
 258 300 l 1
 542 300 l 1
 542 1216 l 1xa0
 359 1163 l 1
 359 1501 l 1xc0
 771 1632 l 1
 866 1632 l 1
 866 300 l 1xa0
EndSplineSet
Substitution2: "'case' Case-Sensitive Forms in Latin lookup 7 subtable" one.lf
Substitution2: "'pnum' Proportional Numbers in Latin lookup 5 subtable" one
AlternateSubs2: "'aalt' Access All Alternates in Latin lookup 1 subtable" one one.lf
EndChar

StartChar: two
Encoding: 50 50 128
Width: 1353
Flags: MW
HStem: 0 323<760 1283 760 1283> 1317 324<635.5 760>
VStem: 139 294<1111 1113.5 1036 1257> 935 325<968 1131.5>
LayerCount: 2
Fore
SplineSet
760 323 m 1
 1283 323 l 1
 1283 0 l 1
 70 0 l 1
 70 59 l 1
 664 597 935 881 935 1055 c 0
 935 1208 811 1317 709 1317 c 0
 562 1317 433 1191 433 1036 c 1
 139 1111 l 1
 139 1403 395 1641 698 1641 c 0
 1008 1641 1260 1370 1260 1072 c 0
 1260 807 991 489 760 323 c 1
EndSplineSet
Substitution2: "'tnum' Tabular Numbers in Latin lookup 6 subtable" two.tf
AlternateSubs2: "'aalt' Access All Alternates in Latin lookup 1 subtable" two.tf
EndChar

StartChar: two.lf
Encoding: 65544 -1 129
Width: 1353
Flags: MW
HStem: 0 323<760 1283 760 1283> 1317 324<635.5 760>
VStem: 139 294<1111 1113.5 1036 1257> 935 325<968 1131.5>
LayerCount: 2
Fore
SplineSet
760 323 m 1
 1283 323 l 1
 1283 0 l 1
 70 0 l 1
 70 59 l 1
 664 597 935 881 935 1055 c 0
 935 1208 811 1317 709 1317 c 0
 562 1317 433 1191 433 1036 c 1
 139 1111 l 1
 139 1403 395 1641 698 1641 c 0
 1008 1641 1260 1370 1260 1072 c 0
 1260 807 991 489 760 323 c 1
EndSplineSet
EndChar

StartChar: two.tf
Encoding: 65545 -1 130
Width: 1416
Flags: MW
HStem: 0 323<805 1328 805 1328> 1317 324<680.5 805>
VStem: 184 294<1111 1113.5 1036 1257> 980 325<968 1131.5>
LayerCount: 2
Fore
SplineSet
805 323 m 1
 1328 323 l 1
 1328 0 l 1
 115 0 l 1
 115 59 l 1
 709 597 980 881 980 1055 c 0
 980 1208 856 1317 754 1317 c 0
 607 1317 478 1191 478 1036 c 1
 184 1111 l 1
 184 1403 440 1641 743 1641 c 0
 1053 1641 1305 1370 1305 1072 c 0
 1305 807 1036 489 805 323 c 1
EndSplineSet
Substitution2: "'case' Case-Sensitive Forms in Latin lookup 7 subtable" two.lf
Substitution2: "'pnum' Proportional Numbers in Latin lookup 5 subtable" two
AlternateSubs2: "'aalt' Access All Alternates in Latin lookup 1 subtable" two two.lf
EndChar

StartChar: three
Encoding: 51 51 131
Width: 1234
Flags: MW
HStem: -20 320<560 682 560 774.5> 808 184<466 532> 1345 318<577.5 651>
VStem: 756 325<1152.5 1241> 837 327<457 595.5 350 602.5>
LayerCount: 2
Fore
SplineSet
905 908 m 1xe8
 1042 844 1164 699 1164 492 c 0
 1164 208 927 -20 622 -20 c 0
 359 -20 124 161 70 379 c 1
 388 460 l 1
 412 365 505 300 615 300 c 0
 749 300 837 398 837 516 c 0xe8
 837 689 647 808 417 808 c 1
 466 992 l 1
 630 992 756 1079 756 1198 c 0
 756 1284 691 1345 611 1345 c 0
 544 1345 491 1302 476 1232 c 1
 144 1301 l 1
 190 1494 372 1663 613 1663 c 0
 863 1663 1081 1481 1081 1224 c 0xf0
 1081 1081 1011 960 905 908 c 1xe8
EndSplineSet
Substitution2: "'tnum' Tabular Numbers in Latin lookup 6 subtable" three.tf
AlternateSubs2: "'aalt' Access All Alternates in Latin lookup 1 subtable" three.tf
EndChar

StartChar: three.lf
Encoding: 65546 -1 132
Width: 1234
Flags: MW
HStem: -20 320<560 682 560 774.5> 808 184<466 532> 1345 318<577.5 651>
VStem: 756 325<1152.5 1241> 837 327<457 595.5 350 602.5>
LayerCount: 2
Fore
SplineSet
905 908 m 1xe8
 1042 844 1164 699 1164 492 c 0
 1164 208 927 -20 622 -20 c 0
 359 -20 124 161 70 379 c 1
 388 460 l 1
 412 365 505 300 615 300 c 0
 749 300 837 398 837 516 c 0xe8
 837 689 647 808 417 808 c 1
 466 992 l 1
 630 992 756 1079 756 1198 c 0
 756 1284 691 1345 611 1345 c 0
 544 1345 491 1302 476 1232 c 1
 144 1301 l 1
 190 1494 372 1663 613 1663 c 0
 863 1663 1081 1481 1081 1224 c 0xf0
 1081 1081 1011 960 905 908 c 1xe8
EndSplineSet
EndChar

StartChar: three.tf
Encoding: 65547 -1 133
Width: 1416
Flags: MW
HStem: -20 320<656 778 656 870.5> 808 184<562 628> 1345 318<673.5 747>
VStem: 852 325<1152.5 1241> 933 327<457 595.5 350 602.5>
LayerCount: 2
Fore
SplineSet
1001 908 m 1xe8
 1138 844 1260 699 1260 492 c 0
 1260 208 1023 -20 718 -20 c 0
 455 -20 220 161 166 379 c 1
 484 460 l 1
 508 365 601 300 711 300 c 0
 845 300 933 398 933 516 c 0xe8
 933 689 743 808 513 808 c 1
 562 992 l 1
 726 992 852 1079 852 1198 c 0
 852 1284 787 1345 707 1345 c 0
 640 1345 587 1302 572 1232 c 1
 240 1301 l 1
 286 1494 468 1663 709 1663 c 0
 959 1663 1177 1481 1177 1224 c 0xf0
 1177 1081 1107 960 1001 908 c 1xe8
EndSplineSet
Substitution2: "'case' Case-Sensitive Forms in Latin lookup 7 subtable" three.lf
Substitution2: "'pnum' Proportional Numbers in Latin lookup 5 subtable" three
AlternateSubs2: "'aalt' Access All Alternates in Latin lookup 1 subtable" three three.lf
EndChar

StartChar: four
Encoding: 52 52 134
Width: 1379
Flags: MW
HStem: 0 21G<852 1175 852 852> 346 323<503 852 503 852 1175 1337> 1599 20G<572 572>
VStem: 852 323<0 346 0 346 669 1116>
LayerCount: 2
Fore
SplineSet
1337 669 m 1
 1337 346 l 1
 1175 346 l 1
 1175 0 l 1
 852 0 l 1
 852 346 l 1
 21 346 l 1
 572 1619 l 1
 913 1617 l 1
 503 669 l 1
 852 669 l 1
 852 1116 l 1
 1175 1116 l 1
 1175 669 l 1
 1337 669 l 1
EndSplineSet
Substitution2: "'tnum' Tabular Numbers in Latin lookup 6 subtable" four.tf
AlternateSubs2: "'aalt' Access All Alternates in Latin lookup 1 subtable" four.tf
EndChar

StartChar: four.lf
Encoding: 65548 -1 135
Width: 1379
Flags: MW
HStem: 0 21G<852 1175 852 852> 346 323<503 852 503 852 1175 1337> 1599 20G<572 572>
VStem: 852 323<0 346 0 346 669 1116>
LayerCount: 2
Fore
SplineSet
1337 669 m 1
 1337 346 l 1
 1175 346 l 1
 1175 0 l 1
 852 0 l 1
 852 346 l 1
 21 346 l 1
 572 1619 l 1
 913 1617 l 1
 503 669 l 1
 852 669 l 1
 852 1116 l 1
 1175 1116 l 1
 1175 669 l 1
 1337 669 l 1
EndSplineSet
EndChar

StartChar: four.tf
Encoding: 65549 -1 136
Width: 1416
Flags: MW
HStem: 0 21G<852 1175 852 852> 346 323<503 852 503 852 1175 1337> 1599 20G<572 572>
VStem: 852 323<0 346 0 346 669 1116>
LayerCount: 2
Fore
SplineSet
1337 669 m 1
 1337 346 l 1
 1175 346 l 1
 1175 0 l 1
 852 0 l 1
 852 346 l 1
 21 346 l 1
 572 1619 l 1
 913 1617 l 1
 503 669 l 1
 852 669 l 1
 852 1116 l 1
 1175 1116 l 1
 1175 669 l 1
 1337 669 l 1
EndSplineSet
Substitution2: "'case' Case-Sensitive Forms in Latin lookup 7 subtable" four.lf
Substitution2: "'pnum' Proportional Numbers in Latin lookup 5 subtable" four
AlternateSubs2: "'aalt' Access All Alternates in Latin lookup 1 subtable" four four.lf
EndChar

StartChar: five
Encoding: 53 53 137
Width: 1289
Flags: MW
HStem: -19 323<568.5 671 568.5 791.5> 811 313<618 697.5> 1291 322<487 1077 487 487>
VStem: 882 337<471.5 642.5>
LayerCount: 2
Fore
SplineSet
661 1124 m 0
 1005 1124 1219 884 1219 567 c 0
 1219 213 955 -19 628 -19 c 0
 383 -19 163 113 70 321 c 1
 392 424 l 1
 441 349 523 304 614 304 c 0
 728 304 882 376 882 567 c 0
 882 718 781 811 614 811 c 0
 502 811 377 768 304 682 c 1
 124 775 l 1
 246 1613 l 1
 1077 1613 l 1
 1077 1291 l 1
 487 1291 l 1
 452 1069 l 1
 508 1109 575 1124 661 1124 c 0
EndSplineSet
Substitution2: "'tnum' Tabular Numbers in Latin lookup 6 subtable" five.tf
AlternateSubs2: "'aalt' Access All Alternates in Latin lookup 1 subtable" five.tf
EndChar

StartChar: five.lf
Encoding: 65550 -1 138
Width: 1289
Flags: MW
HStem: -19 323<568.5 671 568.5 791.5> 811 313<618 697.5> 1291 322<487 1077 487 487>
VStem: 882 337<471.5 642.5>
LayerCount: 2
Fore
SplineSet
661 1124 m 0
 1005 1124 1219 884 1219 567 c 0
 1219 213 955 -19 628 -19 c 0
 383 -19 163 113 70 321 c 1
 392 424 l 1
 441 349 523 304 614 304 c 0
 728 304 882 376 882 567 c 0
 882 718 781 811 614 811 c 0
 502 811 377 768 304 682 c 1
 124 775 l 1
 246 1613 l 1
 1077 1613 l 1
 1077 1291 l 1
 487 1291 l 1
 452 1069 l 1
 508 1109 575 1124 661 1124 c 0
EndSplineSet
EndChar

StartChar: five.tf
Encoding: 65551 -1 139
Width: 1416
Flags: MW
HStem: -19 323<641.5 744 641.5 864.5> 811 313<691 770.5> 1291 322<560 1150 560 560>
VStem: 955 337<471.5 642.5>
LayerCount: 2
Fore
SplineSet
734 1124 m 0
 1078 1124 1292 884 1292 567 c 0
 1292 213 1028 -19 701 -19 c 0
 456 -19 236 113 143 321 c 1
 465 424 l 1
 514 349 596 304 687 304 c 0
 801 304 955 376 955 567 c 0
 955 718 854 811 687 811 c 0
 575 811 450 768 377 682 c 1
 197 775 l 1
 319 1613 l 1
 1150 1613 l 1
 1150 1291 l 1
 560 1291 l 1
 525 1069 l 1
 581 1109 648 1124 734 1124 c 0
EndSplineSet
Substitution2: "'case' Case-Sensitive Forms in Latin lookup 7 subtable" five.lf
Substitution2: "'pnum' Proportional Numbers in Latin lookup 5 subtable" five
AlternateSubs2: "'aalt' Access All Alternates in Latin lookup 1 subtable" five five.lf
EndChar

StartChar: six
Encoding: 54 54 140
Width: 1274
Flags: MW
HStem: -26 322<571 705 571 793> 783 245<572.5 852> 1592 20G<588 588>
VStem: 70 325<472 592> 883 321<473 605>
LayerCount: 2
Fore
SplineSet
730 1028 m 0
 974 1028 1204 819 1204 529 c 0
 1204 226 953 -26 633 -26 c 0
 317 -26 70 180 70 513 c 0
 70 671 121 749 588 1612 c 1
 957 1610 l 1
 622 1014 l 1
 658 1023 694 1028 730 1028 c 0
638 296 m 0
 772 296 883 407 883 539 c 0
 883 671 773 783 639 783 c 0
 506 783 395 672 395 538 c 0
 395 406 504 296 638 296 c 0
EndSplineSet
Substitution2: "'tnum' Tabular Numbers in Latin lookup 6 subtable" six.tf
AlternateSubs2: "'aalt' Access All Alternates in Latin lookup 1 subtable" six.tf
EndChar

StartChar: six.lf
Encoding: 65552 -1 141
Width: 1274
Flags: MW
HStem: -26 322<571 705 571 793> 783 245<572.5 852> 1592 20G<588 588>
VStem: 70 325<472 592> 883 321<473 605>
LayerCount: 2
Fore
SplineSet
730 1028 m 0
 974 1028 1204 819 1204 529 c 0
 1204 226 953 -26 633 -26 c 0
 317 -26 70 180 70 513 c 0
 70 671 121 749 588 1612 c 1
 957 1610 l 1
 622 1014 l 1
 658 1023 694 1028 730 1028 c 0
638 296 m 0
 772 296 883 407 883 539 c 0
 883 671 773 783 639 783 c 0
 506 783 395 672 395 538 c 0
 395 406 504 296 638 296 c 0
EndSplineSet
EndChar

StartChar: six.tf
Encoding: 65553 -1 142
Width: 1416
Flags: MW
HStem: -26 322<642 776 642 864> 783 245<643.5 923> 1592 20G<659 659>
VStem: 141 325<472 592> 954 321<473 605>
LayerCount: 2
Fore
SplineSet
801 1028 m 0
 1045 1028 1275 819 1275 529 c 0
 1275 226 1024 -26 704 -26 c 0
 388 -26 141 180 141 513 c 0
 141 671 192 749 659 1612 c 1
 1028 1610 l 1
 693 1014 l 1
 729 1023 765 1028 801 1028 c 0
709 296 m 0
 843 296 954 407 954 539 c 0
 954 671 844 783 710 783 c 0
 577 783 466 672 466 538 c 0
 466 406 575 296 709 296 c 0
EndSplineSet
Substitution2: "'case' Case-Sensitive Forms in Latin lookup 7 subtable" six.lf
Substitution2: "'pnum' Proportional Numbers in Latin lookup 5 subtable" six
AlternateSubs2: "'aalt' Access All Alternates in Latin lookup 1 subtable" six six.lf
EndChar

StartChar: seven
Encoding: 55 55 143
Width: 1165
Flags: MW
HStem: 0 21G<195 535 195 195> 1296 316<42 689 42 1144>
VStem: 42 1102<1552 1612 1552 1612 1552 1612>
LayerCount: 2
Fore
SplineSet
42 1612 m 1
 1144 1612 l 1
 1144 1552 l 1
 535 0 l 1
 195 0 l 1
 689 1296 l 1
 42 1296 l 1
 42 1612 l 1
EndSplineSet
Substitution2: "'tnum' Tabular Numbers in Latin lookup 6 subtable" seven.tf
AlternateSubs2: "'aalt' Access All Alternates in Latin lookup 1 subtable" seven.tf
EndChar

StartChar: seven.lf
Encoding: 65554 -1 144
Width: 1165
Flags: MW
HStem: 0 21G<195 535 195 195> 1296 316<42 689 42 1144>
VStem: 42 1102<1552 1612 1552 1612 1552 1612>
LayerCount: 2
Fore
SplineSet
42 1612 m 1
 1144 1612 l 1
 1144 1552 l 1
 535 0 l 1
 195 0 l 1
 689 1296 l 1
 42 1296 l 1
 42 1612 l 1
EndSplineSet
EndChar

StartChar: seven.tf
Encoding: 65555 -1 145
Width: 1416
Flags: MW
HStem: 0 21G<342 682 342 342> 1296 316<189 836 189 1291>
VStem: 189 1102<1552 1612 1552 1612 1552 1612>
LayerCount: 2
Fore
SplineSet
189 1612 m 1
 1291 1612 l 1
 1291 1552 l 1
 682 0 l 1
 342 0 l 1
 836 1296 l 1
 189 1296 l 1
 189 1612 l 1
EndSplineSet
Substitution2: "'case' Case-Sensitive Forms in Latin lookup 7 subtable" seven.lf
Substitution2: "'pnum' Proportional Numbers in Latin lookup 5 subtable" seven
AlternateSubs2: "'aalt' Access All Alternates in Latin lookup 1 subtable" seven seven.lf
EndChar

StartChar: eight
Encoding: 56 56 146
Width: 1255
Flags: MW
HStem: -34 323<560.5 691.5 560.5 793> 733 325<588 667 588 691> 1347 300<586.5 671.5>
VStem: 70 325<444.5 569 444.5 615.5> 157 313<1156 1251 1156 1331> 789 312<1150 1249.5> 860 325<445.5 570>
LayerCount: 2
Fore
SplineSet
627 -34 m 0xf2
 293 -34 70 212 70 487 c 0xf2
 70 744 262 895 368 913 c 1
 264 940 157 1067 157 1225 c 0
 157 1437 350 1647 628 1647 c 0
 904 1647 1101 1441 1101 1226 c 0xec
 1101 1054 973 936 891 913 c 1
 981 893 1185 749 1185 486 c 0
 1185 209 959 -34 627 -34 c 0xf2
629 1058 m 0xec
 705 1058 789 1099 789 1201 c 0
 789 1298 714 1347 629 1347 c 0
 544 1347 470 1298 470 1204 c 0
 470 1108 547 1058 629 1058 c 0xec
626 289 m 0xf2
 757 289 860 384 860 507 c 0
 860 633 753 733 629 733 c 0
 505 733 395 633 395 505 c 0
 395 384 495 289 626 289 c 0xf2
EndSplineSet
Substitution2: "'tnum' Tabular Numbers in Latin lookup 6 subtable" eight.tf
AlternateSubs2: "'aalt' Access All Alternates in Latin lookup 1 subtable" eight.tf
EndChar

StartChar: eight.lf
Encoding: 65556 -1 147
Width: 1255
Flags: MW
HStem: -34 323<560.5 691.5 560.5 793> 733 325<588 667 588 691> 1347 300<586.5 671.5>
VStem: 70 325<444.5 569 444.5 615.5> 157 313<1156 1251 1156 1331> 789 312<1150 1249.5> 860 325<445.5 570>
LayerCount: 2
Fore
SplineSet
627 -34 m 0xf2
 293 -34 70 212 70 487 c 0xf2
 70 744 262 895 368 913 c 1
 264 940 157 1067 157 1225 c 0
 157 1437 350 1647 628 1647 c 0
 904 1647 1101 1441 1101 1226 c 0xec
 1101 1054 973 936 891 913 c 1
 981 893 1185 749 1185 486 c 0
 1185 209 959 -34 627 -34 c 0xf2
629 1058 m 0xec
 705 1058 789 1099 789 1201 c 0
 789 1298 714 1347 629 1347 c 0
 544 1347 470 1298 470 1204 c 0
 470 1108 547 1058 629 1058 c 0xec
626 289 m 0xf2
 757 289 860 384 860 507 c 0
 860 633 753 733 629 733 c 0
 505 733 395 633 395 505 c 0
 395 384 495 289 626 289 c 0xf2
EndSplineSet
EndChar

StartChar: eight.tf
Encoding: 65557 -1 148
Width: 1416
Flags: MW
HStem: -34 323<641.5 772.5 641.5 874> 733 325<669 748 669 772> 1347 300<667.5 752.5>
VStem: 151 325<444.5 569 444.5 615.5> 238 313<1156 1251 1156 1331> 870 312<1150 1249.5> 941 325<445.5 570>
LayerCount: 2
Fore
SplineSet
708 -34 m 0xf2
 374 -34 151 212 151 487 c 0xf2
 151 744 343 895 449 913 c 1
 345 940 238 1067 238 1225 c 0
 238 1437 431 1647 709 1647 c 0
 985 1647 1182 1441 1182 1226 c 0xec
 1182 1054 1054 936 972 913 c 1
 1062 893 1266 749 1266 486 c 0
 1266 209 1040 -34 708 -34 c 0xf2
710 1058 m 0xec
 786 1058 870 1099 870 1201 c 0
 870 1298 795 1347 710 1347 c 0
 625 1347 551 1298 551 1204 c 0
 551 1108 628 1058 710 1058 c 0xec
707 289 m 0xf2
 838 289 941 384 941 507 c 0
 941 633 834 733 710 733 c 0
 586 733 476 633 476 505 c 0
 476 384 576 289 707 289 c 0xf2
EndSplineSet
Substitution2: "'case' Case-Sensitive Forms in Latin lookup 7 subtable" eight.lf
Substitution2: "'pnum' Proportional Numbers in Latin lookup 5 subtable" eight
AlternateSubs2: "'aalt' Access All Alternates in Latin lookup 1 subtable" eight eight.lf
EndChar

StartChar: nine
Encoding: 57 57 149
Width: 1274
Flags: MW
HStem: 0 21G<316 687 316 316> 565 266<418 702.5> 1318 322<569 702.5>
VStem: 70 323<1008.5 1140 1008.5 1231> 880 324<1008 1140>
LayerCount: 2
Fore
SplineSet
637 1640 m 0
 957 1640 1204 1381 1204 1075 c 0
 1204 868 1143 808 687 0 c 1
 316 0 l 1
 637 577 l 1
 605 569 573 565 541 565 c 0
 295 565 70 790 70 1079 c 0
 70 1383 319 1640 637 1640 c 0
636 831 m 0
 769 831 880 942 880 1074 c 0
 880 1206 769 1318 636 1318 c 0
 502 1318 393 1206 393 1074 c 0
 393 943 503 831 636 831 c 0
EndSplineSet
Substitution2: "'tnum' Tabular Numbers in Latin lookup 6 subtable" nine.tf
AlternateSubs2: "'aalt' Access All Alternates in Latin lookup 1 subtable" nine.tf
EndChar

StartChar: nine.lf
Encoding: 65558 -1 150
Width: 1274
Flags: MW
HStem: 0 21G<316 687 316 316> 565 266<418 702.5> 1318 322<569 702.5>
VStem: 70 323<1008.5 1140 1008.5 1231> 880 324<1008 1140>
LayerCount: 2
Fore
SplineSet
637 1640 m 0
 957 1640 1204 1381 1204 1075 c 0
 1204 868 1143 808 687 0 c 1
 316 0 l 1
 637 577 l 1
 605 569 573 565 541 565 c 0
 295 565 70 790 70 1079 c 0
 70 1383 319 1640 637 1640 c 0
636 831 m 0
 769 831 880 942 880 1074 c 0
 880 1206 769 1318 636 1318 c 0
 502 1318 393 1206 393 1074 c 0
 393 943 503 831 636 831 c 0
EndSplineSet
EndChar

StartChar: nine.tf
Encoding: 65559 -1 151
Width: 1416
Flags: MW
HStem: 0 21G<387 758 387 387> 565 266<489 773.5> 1318 322<640 773.5>
VStem: 141 323<1008.5 1140 1008.5 1231> 951 324<1008 1140>
LayerCount: 2
Fore
SplineSet
708 1640 m 0
 1028 1640 1275 1381 1275 1075 c 0
 1275 868 1214 808 758 0 c 1
 387 0 l 1
 708 577 l 1
 676 569 644 565 612 565 c 0
 366 565 141 790 141 1079 c 0
 141 1383 390 1640 708 1640 c 0
707 831 m 0
 840 831 951 942 951 1074 c 0
 951 1206 840 1318 707 1318 c 0
 573 1318 464 1206 464 1074 c 0
 464 943 574 831 707 831 c 0
EndSplineSet
Substitution2: "'case' Case-Sensitive Forms in Latin lookup 7 subtable" nine.lf
Substitution2: "'pnum' Proportional Numbers in Latin lookup 5 subtable" nine
AlternateSubs2: "'aalt' Access All Alternates in Latin lookup 1 subtable" nine nine.lf
EndChar

StartChar: period
Encoding: 46 46 152
Width: 624
Flags: MW
HStem: -51 413<255.5 368 255.5 368.5>
VStem: 105 414<98.5 211 98.5 211.5>
LayerCount: 2
Fore
SplineSet
312 -51 m 0
 198 -51 105 41 105 155 c 0
 105 268 199 362 312 362 c 0
 424 362 519 267 519 155 c 0
 519 42 425 -51 312 -51 c 0
EndSplineSet
EndChar

StartChar: comma
Encoding: 44 44 153
Width: 653
Flags: MW
HStem: -364 58<111 329.5> -44 406<261 285>
VStem: 105 443<79.5 162 -41 202> 300 248<-182.5 162>
LayerCount: 2
Fore
SplineSet
228 -364 m 0xd0
 152 -364 111 -322 111 -306 c 1
 189 -306 300 -246 300 -119 c 0xd0
 300 -78 297 -66 285 -44 c 1
 215 -44 105 16 105 143 c 0xe0
 105 261 197 362 325 362 c 0
 453 362 548 258 548 66 c 0
 548 -148 431 -364 228 -364 c 0xd0
EndSplineSet
EndChar

StartChar: colon
Encoding: 58 58 154
Width: 624
Flags: MW
HStem: 0 21G<255 368.5> 0 414<255.5 368 255.5 368.5> 744 413<255 368.5>
VStem: 105 414<150.5 263 150.5 263.5 893.5 1006.5>
LayerCount: 2
Fore
SplineSet
312 744 m 0xb0
 198 744 105 836 105 950 c 0
 105 1064 198 1157 312 1157 c 0
 425 1157 519 1063 519 950 c 0
 519 837 425 744 312 744 c 0xb0
312 0 m 0
 198 0 105 93 105 207 c 0
 105 320 199 414 312 414 c 0x70
 424 414 519 319 519 207 c 0
 519 94 425 0 312 0 c 0
EndSplineSet
EndChar

StartChar: semicolon
Encoding: 59 59 155
Width: 676
Flags: MW
HStem: -364 58<134 352.5> -44 406<284 308> 744 413<255 368.5>
VStem: 105 414<893.5 1006.5 893.5 1007> 128 443<79.5 162 -41 202> 323 248<-182.5 162>
LayerCount: 2
Fore
SplineSet
312 744 m 0xf0
 198 744 105 836 105 950 c 0
 105 1064 198 1157 312 1157 c 0
 425 1157 519 1063 519 950 c 0
 519 837 425 744 312 744 c 0xf0
251 -364 m 0
 175 -364 134 -322 134 -306 c 1
 212 -306 323 -246 323 -119 c 0xe4
 323 -78 320 -66 308 -44 c 1
 238 -44 128 16 128 143 c 0xe8
 128 261 220 362 348 362 c 0
 476 362 571 258 571 66 c 0xe4
 571 -148 454 -364 251 -364 c 0
EndSplineSet
EndChar

StartChar: ellipsis
Encoding: 8230 8230 156
Width: 2214
Flags: MW
HStem: -51 413<350.5 463 350.5 463.5 1050.5 1163 1750.5 1863>
VStem: 200 414<98.5 211 98.5 211.5> 900 414<98.5 211 98.5 211.5> 1600 414<98.5 211 98.5 211.5>
LayerCount: 2
Fore
SplineSet
407 -51 m 0
 293 -51 200 41 200 155 c 0
 200 268 294 362 407 362 c 0
 519 362 614 267 614 155 c 0
 614 42 520 -51 407 -51 c 0
1107 -51 m 0
 993 -51 900 41 900 155 c 0
 900 268 994 362 1107 362 c 0
 1219 362 1314 267 1314 155 c 0
 1314 42 1220 -51 1107 -51 c 0
1807 -51 m 0
 1693 -51 1600 41 1600 155 c 0
 1600 268 1694 362 1807 362 c 0
 1919 362 2014 267 2014 155 c 0
 2014 42 1920 -51 1807 -51 c 0
EndSplineSet
EndChar

StartChar: exclam
Encoding: 33 33 157
Width: 694
Flags: MW
HStem: -51 409<290 402.5 289.5 403.5> 1592 20G<158 532 532 532>
VStem: 140 414<98 207 94.5 211.5>
LayerCount: 2
Fore
SplineSet
211 557 m 1
 158 1612 l 1
 532 1612 l 1
 481 557 l 1
 211 557 l 1
347 -51 m 0
 233 -51 140 41 140 155 c 0
 140 268 234 358 345 358 c 0
 460 358 554 263 554 151 c 0
 554 38 460 -51 347 -51 c 0
EndSplineSet
EndChar

StartChar: exclamdown
Encoding: 161 161 158
Width: 694
Flags: MW
HStem: -450 21G<162 536 162 162> 804 409<291.5 404 290.5 404.5> 1193 20G<290.5 404>
VStem: 140 414<955 1064 950.5 1067.5>
LayerCount: 2
Fore
SplineSet
347 1213 m 0xb0
 461 1213 554 1121 554 1007 c 0
 554 894 460 804 349 804 c 0xd0
 234 804 140 899 140 1011 c 0
 140 1124 234 1213 347 1213 c 0xb0
483 605 m 1
 536 -450 l 1
 162 -450 l 1
 213 605 l 1
 483 605 l 1
EndSplineSet
EndChar

StartChar: question
Encoding: 63 63 159
Width: 1043
Flags: MW
HStem: -51 409<410 523.5 410 524.5> 1359 313<404 530.5>
VStem: 261 414<99 207 94.5 211.5> 312 304<555 689 594 674.5> 678 295<1166 1239>
LayerCount: 2
Fore
SplineSet
312 555 m 1xd8
 312 584 l 2
 312 765 413 885 598 1027 c 0
 639 1058 678 1117 678 1181 c 0
 678 1297 595 1359 466 1359 c 0
 342 1359 228 1297 185 1195 c 1
 70 1449 l 1
 102 1508 204 1672 484 1672 c 0
 777 1672 973 1440 973 1242 c 0
 973 1090 934 991 840 894 c 0
 739 790 616 777 616 601 c 0
 616 587 616 572 618 556 c 1
 312 555 l 1xd8
468 -51 m 0xe0
 352 -51 261 43 261 155 c 0
 261 268 354 358 466 358 c 0
 581 358 675 263 675 151 c 0
 675 38 581 -51 468 -51 c 0xe0
EndSplineSet
EndChar

StartChar: questiondown
Encoding: 191 191 160
Width: 1043
Flags: MW
HStem: -475 313<512.5 639 512.5 699> 839 409<519.5 633>
VStem: 70 295<-42 31> 368 414<990 1098 985.5 1102.5> 427 304<522.5 603>
LayerCount: 2
Fore
SplineSet
575 1248 m 0xd0
 691 1248 782 1154 782 1042 c 0
 782 929 689 839 577 839 c 0
 462 839 368 934 368 1046 c 0
 368 1159 462 1248 575 1248 c 0xd0
731 642 m 1xe8
 731 613 l 2
 731 432 630 312 445 170 c 0
 404 139 365 80 365 16 c 0
 365 -100 448 -162 577 -162 c 0
 701 -162 815 -100 858 2 c 1
 973 -252 l 1
 941 -311 839 -475 559 -475 c 0
 266 -475 70 -243 70 -45 c 0
 70 107 109 206 203 303 c 0
 304 407 427 420 427 596 c 0
 427 610 427 625 425 641 c 1
 731 642 l 1xe8
EndSplineSet
EndChar

StartChar: periodcentered
Encoding: 183 183 161
Width: 624
Flags: MW
HStem: 579 413<255.5 368 255.5 368.5>
VStem: 105 414<728.5 841 728.5 841.5>
LayerCount: 2
Fore
SplineSet
312 579 m 0
 198 579 105 671 105 785 c 0
 105 898 199 992 312 992 c 0
 424 992 519 897 519 785 c 0
 519 672 425 579 312 579 c 0
EndSplineSet
EndChar

StartChar: bullet
Encoding: 8226 8226 162
Width: 1054
Flags: MW
HStem: 461 649<437 616>
VStem: 200 654<696 873.5>
LayerCount: 2
Fore
SplineSet
526 461 m 0
 347 461 200 606 200 784 c 0
 200 963 347 1110 527 1110 c 0
 707 1110 854 964 854 785 c 0
 854 607 706 461 526 461 c 0
EndSplineSet
EndChar

StartChar: asterisk
Encoding: 42 42 163
Width: 866
Flags: MW
HStem: 1192 20G<70 70 796 796>
VStem: 70 726<1212 1212 1212 1425>
LayerCount: 2
Fore
SplineSet
326 945 m 1
 364 1204 l 1
 183 1046 l 1
 70 1212 l 1
 326 1320 l 1
 70 1425 l 1
 183 1592 l 1
 364 1435 l 1
 326 1693 l 1
 540 1693 l 1
 501 1435 l 1
 683 1592 l 1
 796 1425 l 1
 540 1314 l 1
 796 1212 l 1
 683 1046 l 1
 501 1202 l 1
 540 945 l 1
 326 945 l 1
EndSplineSet
EndChar

StartChar: numbersign
Encoding: 35 35 164
Width: 1516
Flags: MW
HStem: 0 21G<240 500 240 240 825 1085 825 825> 374 241<80 289 50 321 581 874 80 549 1166 1361> 940 241<155 364 123 395 155 624 655 949 1240 1436> 1592 20G<452 712 712 712 1037 1297 1297 1297>
VStem: 50 1416<374 1181>
LayerCount: 2
Fore
SplineSet
1436 940 m 1
 1209 940 l 1
 1166 615 l 1
 1393 615 l 1
 1361 374 l 1
 1134 374 l 1
 1085 0 l 1
 825 0 l 1
 874 374 l 1
 549 374 l 1
 500 0 l 1
 240 0 l 1
 289 374 l 1
 50 374 l 1
 80 615 l 1
 321 615 l 1
 364 940 l 1
 123 940 l 1
 155 1181 l 1
 395 1181 l 1
 452 1612 l 1
 712 1612 l 1
 655 1181 l 1
 980 1181 l 1
 1037 1612 l 1
 1297 1612 l 1
 1240 1181 l 1
 1466 1181 l 1
 1436 940 l 1
906 615 m 1
 949 940 l 1
 624 940 l 1
 581 615 l 1
 906 615 l 1
EndSplineSet
EndChar

StartChar: slash
Encoding: 47 47 165
Width: 974
Flags: MW
HStem: -120 1852<21 953 21 953>
VStem: 21 932
LayerCount: 2
Fore
SplineSet
21 -120 m 1
 669 1732 l 1
 953 1732 l 1
 304 -120 l 1
 21 -120 l 1
EndSplineSet
EndChar

StartChar: backslash
Encoding: 92 92 166
Width: 974
Flags: MW
HStem: -120 1852<21 953 21 670>
VStem: 21 932
LayerCount: 2
Fore
SplineSet
953 -120 m 1
 670 -120 l 1
 21 1732 l 1
 305 1732 l 1
 953 -120 l 1
EndSplineSet
EndChar

StartChar: twodotenleader
Encoding: 8229 8229 167
Width: 1454
Flags: MW
HStem: -51 413<350.5 463 350.5 463.5 990.5 1103>
VStem: 200 414<98.5 211 98.5 211.5> 840 414<98.5 211 98.5 211.5>
LayerCount: 2
Fore
SplineSet
407 -51 m 0
 293 -51 200 41 200 155 c 0
 200 268 294 362 407 362 c 0
 519 362 614 267 614 155 c 0
 614 42 520 -51 407 -51 c 0
1047 -51 m 0
 933 -51 840 41 840 155 c 0
 840 268 934 362 1047 362 c 0
 1159 362 1254 267 1254 155 c 0
 1254 42 1160 -51 1047 -51 c 0
EndSplineSet
EndChar

StartChar: parenleft
Encoding: 40 40 168
Width: 708
Flags: MW
HStem: -120 1852<346 636 346 636 346 638>
VStem: 70 307<665.5 948 665.5 950.5>
LayerCount: 2
Fore
SplineSet
346 -120 m 1
 129 184 70 520 70 807 c 0
 70 1094 129 1426 346 1732 c 1
 636 1732 l 1
 491 1492 377 1089 377 807 c 0
 377 524 492 119 638 -120 c 1
 346 -120 l 1
EndSplineSet
EndChar

StartChar: parenright
Encoding: 41 41 169
Width: 708
Flags: MW
HStem: -120 1852<72 362 72 362 70 362>
VStem: 331 307<665.5 948>
LayerCount: 2
Fore
SplineSet
362 -120 m 1
 70 -120 l 1
 216 119 331 524 331 807 c 0
 331 1089 217 1492 72 1732 c 1
 362 1732 l 1
 579 1426 638 1094 638 807 c 0
 638 520 579 184 362 -120 c 1
EndSplineSet
EndChar

StartChar: braceleft
Encoding: 123 123 170
Width: 886
Flags: MW
HStem: -120 242<491.5 816 655 816 655 816> 722 185<70 130.5> 1488 244
VStem: 290 278<262 315 315 382 382 414 1247 1297>
LayerCount: 2
Fore
SplineSet
568 -120 m 2
 415 -120 290 13 290 176 c 2
 290 382 l 2
 290 569 191 722 70 722 c 1
 70 907 l 1
 191 907 290 1060 290 1247 c 2
 290 1436 l 2
 290 1599 415 1732 568 1732 c 2
 816 1732 l 1
 816 1490 l 1
 655 1486 l 2
 607 1485 568 1399 568 1297 c 2
 568 1215 l 2
 568 995 472 815 355 815 c 1
 472 815 568 635 568 414 c 2
 568 315 l 2
 568 209 607 122 655 122 c 2
 816 122 l 1
 816 -120 l 1
 568 -120 l 2
EndSplineSet
EndChar

StartChar: braceright
Encoding: 125 125 171
Width: 886
Flags: MW
HStem: -120 242<70 231 231 255 70 318 70 231> 722 185<755.5 816> 1488 244
VStem: 318 278<-120 176 315 382 94.5 414 94.5 524.5 1215 1247 1247 1297 1297 1348>
LayerCount: 2
Fore
SplineSet
318 -120 m 2
 70 -120 l 1
 70 122 l 1
 231 122 l 2
 279 122 318 209 318 315 c 2
 318 414 l 2
 318 635 414 815 531 815 c 1
 414 815 318 995 318 1215 c 2
 318 1297 l 2
 318 1399 279 1485 231 1486 c 2
 70 1490 l 1
 70 1732 l 1
 318 1732 l 2
 471 1732 596 1599 596 1436 c 2
 596 1247 l 2
 596 1060 695 907 816 907 c 1
 816 722 l 1
 695 722 596 569 596 382 c 2
 596 176 l 2
 596 13 471 -120 318 -120 c 2
EndSplineSet
EndChar

StartChar: bracketleft
Encoding: 91 91 172
Width: 736
Flags: MW
HStem: -120 242<418 666 418 666> 1490 242<418 666 418 418>
VStem: 140 278<122 1490 122 1732 122 1732> 140 526<-120 122 1490 1732>
LayerCount: 2
Fore
SplineSet
666 1490 m 1xd0
 418 1490 l 1
 418 122 l 1xe0
 666 122 l 1
 666 -120 l 1xd0
 140 -120 l 1
 140 1732 l 1xe0
 666 1732 l 1
 666 1490 l 1xd0
EndSplineSet
EndChar

StartChar: bracketright
Encoding: 93 93 173
Width: 736
Flags: MW
HStem: -120 242<70 318 70 596 70 318> 1490 242<70 318 70 596>
VStem: 70 526<-120 122 122 122 1490 1732 -120 1732> 318 278<122 1490 1490 1490>
LayerCount: 2
Fore
SplineSet
596 1732 m 1xd0
 596 -120 l 1xd0
 70 -120 l 1
 70 122 l 1xe0
 318 122 l 1
 318 1490 l 1xd0
 70 1490 l 1
 70 1732 l 1xe0
 596 1732 l 1xd0
EndSplineSet
EndChar

StartChar: hyphen
Encoding: 45 45 174
Width: 930
Flags: MW
HStem: 644 283<70 860 70 860>
VStem: 70 790<644 927 644 927>
LayerCount: 2
Fore
SplineSet
70 644 m 1
 70 927 l 1
 860 927 l 1
 860 644 l 1
 70 644 l 1
EndSplineSet
EndChar

StartChar: endash
Encoding: 8211 8211 175
Width: 1416
Flags: MW
HStem: 644 283<70 1346 70 1346>
VStem: 70 1276<644 927 644 927>
LayerCount: 2
Fore
SplineSet
70 644 m 1
 70 927 l 1
 1346 927 l 1
 1346 644 l 1
 70 644 l 1
EndSplineSet
EndChar

StartChar: emdash
Encoding: 8212 8212 176
Width: 2048
Flags: MW
HStem: 644 283<44 2004 44 2004>
VStem: 44 1960<644 927 644 927>
LayerCount: 2
Fore
SplineSet
44 644 m 1
 44 927 l 1
 2004 927 l 1
 2004 644 l 1
 44 644 l 1
EndSplineSet
EndChar

StartChar: figuredash
Encoding: 8210 8210 177
Width: 1040
Flags: MW
HStem: 644 283<70 970 70 970>
VStem: 70 900<644 927 644 927>
LayerCount: 2
Fore
SplineSet
70 644 m 1
 70 927 l 1
 970 927 l 1
 970 644 l 1
 70 644 l 1
EndSplineSet
EndChar

StartChar: underscore
Encoding: 95 95 178
Width: 1209
Flags: MW
HStem: -110 221<0 1209 0 1209>
VStem: 0 1209<-110 111 -110 111>
LayerCount: 2
Fore
SplineSet
0 -110 m 1
 0 111 l 1
 1209 111 l 1
 1209 -110 l 1
 0 -110 l 1
EndSplineSet
EndChar

StartChar: quotesinglbase
Encoding: 8218 8218 179
Width: 543
Flags: MW
HStem: -302 53<76 274.5> -11 21G<202 234>
VStem: 70 403<101.5 176.5 -8.5 212.5> 248 225<-137 176.5>
LayerCount: 2
Fore
SplineSet
182 -302 m 0xd0
 113 -302 76 -264 76 -249 c 1
 147 -249 248 -195 248 -79 c 0xd0
 248 -42 245 -31 234 -11 c 1
 170 -11 70 44 70 159 c 0xe0
 70 266 154 358 270 358 c 0
 387 358 473 264 473 89 c 0
 473 -106 367 -302 182 -302 c 0xd0
EndSplineSet
EndChar

StartChar: quotedblbase
Encoding: 8222 8222 180
Width: 1066
Flags: MW
HStem: -303 53<76 274.5> -12 21G<202 234 725 757> -12 369<212 234 735 757>
VStem: 70 403<100.5 175.5 -9.5 211.5> 248 225<-138 175.5> 593 403<100.5 175.5 -9.5 211.5> 771 225<-138 175.5>
LayerCount: 2
Fore
SplineSet
182 -303 m 0xca
 113 -303 76 -265 76 -250 c 1
 147 -250 248 -196 248 -80 c 0xca
 248 -43 245 -32 234 -12 c 1
 170 -12 70 43 70 158 c 0xb2
 70 265 154 357 270 357 c 0xaa
 387 357 473 263 473 88 c 0
 473 -107 367 -303 182 -303 c 0xca
705 -303 m 0
 636 -303 599 -265 599 -250 c 1
 670 -250 771 -196 771 -80 c 0xca
 771 -43 768 -32 757 -12 c 1
 693 -12 593 43 593 158 c 0xac
 593 265 677 357 793 357 c 0xaa
 910 357 996 263 996 88 c 0
 996 -107 890 -303 705 -303 c 0
EndSplineSet
EndChar

StartChar: quotedblleft
Encoding: 8220 8220 181
Width: 1066
Flags: MW
HStem: 976 369<309 331 832 854> 1583 53<268.5 467>
VStem: 70 225<1157.5 1471> 70 403<1157.5 1232.5 1121.5 1342.5> 593 225<1157.5 1471> 593 403<1157.5 1232.5 1121.5 1342.5>
LayerCount: 2
Fore
SplineSet
361 1636 m 0xe8
 430 1636 467 1598 467 1583 c 1
 396 1583 295 1529 295 1413 c 0xe8
 295 1376 298 1365 309 1345 c 1
 373 1345 473 1290 473 1175 c 0xd8
 473 1068 389 976 273 976 c 0
 156 976 70 1070 70 1245 c 0
 70 1440 176 1636 361 1636 c 0xe8
884 1636 m 0
 953 1636 990 1598 990 1583 c 1
 919 1583 818 1529 818 1413 c 0xe8
 818 1376 821 1365 832 1345 c 1
 896 1345 996 1290 996 1175 c 0xe4
 996 1068 912 976 796 976 c 0
 679 976 593 1070 593 1245 c 0
 593 1440 699 1636 884 1636 c 0
EndSplineSet
EndChar

StartChar: quotedblright
Encoding: 8221 8221 182
Width: 1066
Flags: MW
HStem: 986 53<76 274.5> 1277 369<212 234 735 757>
VStem: 70 403<1389.5 1464.5 1279.5 1500.5> 248 225<1151 1464.5> 593 403<1389.5 1464.5 1279.5 1500.5> 771 225<1151 1464.5>
LayerCount: 2
Fore
SplineSet
182 986 m 0xd4
 113 986 76 1024 76 1039 c 1
 147 1039 248 1093 248 1209 c 0xd4
 248 1246 245 1257 234 1277 c 1
 170 1277 70 1332 70 1447 c 0xe4
 70 1554 154 1646 270 1646 c 0
 387 1646 473 1552 473 1377 c 0
 473 1182 367 986 182 986 c 0xd4
705 986 m 0
 636 986 599 1024 599 1039 c 1
 670 1039 771 1093 771 1209 c 0xd4
 771 1246 768 1257 757 1277 c 1
 693 1277 593 1332 593 1447 c 0xd8
 593 1554 677 1646 793 1646 c 0
 910 1646 996 1552 996 1377 c 0
 996 1182 890 986 705 986 c 0
EndSplineSet
EndChar

StartChar: quoteleft
Encoding: 8216 8216 183
Width: 543
Flags: MW
HStem: 976 369<309 331> 1583 53<268.5 467>
VStem: 70 225<1157.5 1471> 70 403<1157.5 1232.5 1121.5 1342.5>
LayerCount: 2
Fore
SplineSet
361 1636 m 0xe0
 430 1636 467 1598 467 1583 c 1
 396 1583 295 1529 295 1413 c 0xe0
 295 1376 298 1365 309 1345 c 1
 373 1345 473 1290 473 1175 c 0xd0
 473 1068 389 976 273 976 c 0
 156 976 70 1070 70 1245 c 0
 70 1440 176 1636 361 1636 c 0xe0
EndSplineSet
EndChar

StartChar: quoteright
Encoding: 8217 8217 184
Width: 543
Flags: MW
HStem: 989 53<76 274.5> 1629 20G<212 328.5>
VStem: 70 403<1392.5 1467.5 1282.5 1503.5> 248 225<1154 1467.5>
LayerCount: 2
Fore
SplineSet
182 989 m 0xd0
 113 989 76 1027 76 1042 c 1
 147 1042 248 1096 248 1212 c 0xd0
 248 1249 245 1260 234 1280 c 1
 170 1280 70 1335 70 1450 c 0xe0
 70 1557 154 1649 270 1649 c 0
 387 1649 473 1555 473 1380 c 0
 473 1185 367 989 182 989 c 0xd0
EndSplineSet
EndChar

StartChar: quotereversed
Encoding: 8219 8219 185
Width: 543
Flags: MW
HStem: 995 53<268.5 467> 1635 20G<214.5 331>
VStem: 70 225<1160 1473.5> 70 403<1398.5 1473.5>
LayerCount: 2
Fore
SplineSet
361 995 m 0xe0
 176 995 70 1191 70 1386 c 0xe0
 70 1561 156 1655 273 1655 c 0
 389 1655 473 1563 473 1456 c 0xd0
 473 1341 373 1286 309 1286 c 1
 298 1266 295 1255 295 1218 c 0
 295 1102 396 1048 467 1048 c 1
 467 1033 430 995 361 995 c 0xe0
EndSplineSet
EndChar

StartChar: guillemotleft
Encoding: 171 171 186
Width: 1255
Flags: MW
HStem: 262 1076<451 451 451 981>
VStem: 70 1115<303 800>
LayerCount: 2
Fore
SplineSet
655 1298 m 1
 369 800 l 1
 655 303 l 1
 451 262 l 1
 70 800 l 1
 451 1338 l 1
 655 1298 l 1
1185 1298 m 1
 899 800 l 1
 1185 303 l 1
 981 262 l 1
 600 800 l 1
 981 1338 l 1
 1185 1298 l 1
EndSplineSet
EndChar

StartChar: guillemotright
Encoding: 187 187 187
Width: 1255
Flags: MW
HStem: 262 1076<274 274 274 804>
VStem: 70 1115<303 800 800 1298>
LayerCount: 2
Fore
SplineSet
274 1338 m 1
 655 800 l 1
 274 262 l 1
 70 303 l 1
 356 800 l 1
 70 1298 l 1
 274 1338 l 1
804 1338 m 1
 1185 800 l 1
 804 262 l 1
 600 303 l 1
 886 800 l 1
 600 1298 l 1
 804 1338 l 1
EndSplineSet
EndChar

StartChar: guilsinglleft
Encoding: 8249 8249 188
Width: 725
Flags: MW
HStem: 262 1076<451 451>
VStem: 70 585<303 800>
LayerCount: 2
Fore
SplineSet
655 1298 m 1
 369 800 l 1
 655 303 l 1
 451 262 l 1
 70 800 l 1
 451 1338 l 1
 655 1298 l 1
EndSplineSet
EndChar

StartChar: guilsinglright
Encoding: 8250 8250 189
Width: 725
Flags: MW
HStem: 262 1076<274 274>
VStem: 70 585<303 800 800 1298>
LayerCount: 2
Fore
SplineSet
274 1338 m 1
 655 800 l 1
 274 262 l 1
 70 303 l 1
 356 800 l 1
 70 1298 l 1
 274 1338 l 1
EndSplineSet
EndChar

StartChar: quotedbl
Encoding: 34 34 190
Width: 867
Flags: MW
HStem: 1128 525<141 141 141 323 543 725 543 543>
VStem: 70 727<1653 1653>
LayerCount: 2
Fore
SplineSet
141 1128 m 1
 70 1653 l 1
 395 1653 l 1
 323 1128 l 1
 141 1128 l 1
543 1128 m 1
 472 1653 l 1
 797 1653 l 1
 725 1128 l 1
 543 1128 l 1
EndSplineSet
EndChar

StartChar: quotesingle
Encoding: 39 39 191
Width: 465
Flags: MW
HStem: 1128 525<141 141 141 323>
VStem: 70 325<1653 1653>
LayerCount: 2
Fore
SplineSet
141 1128 m 1
 70 1653 l 1
 395 1653 l 1
 323 1128 l 1
 141 1128 l 1
EndSplineSet
EndChar

StartChar: uni0E3F
Encoding: 3647 3647 210
Width: 1284
GlyphClass: 2
Flags: MW
HStem: 0 316<140 719 720 749 720 720> 698 210<463 973.5> 698 284<463 594 594 632.5 463 718 463 594> 1297 315<140 463 140 600>
VStem: 140 323<316 698 982 1297> 447 273<-225 0 -225 0 1612 1838> 746 302<1099.5 1187.5> 936 316<450 558.5>
AnchorPoint: "Anchor-10" 671 1612 basechar 0
AnchorPoint: "Anchor-9" 671 0 basechar 0
LayerCount: 2
Fore
SplineSet
896 908 m 1xd9
 1051 908 1252 748 1252 489 c 0
 1252 251 1081 0 749 0 c 2
 720 0 l 1
 720 -225 l 1
 447 -225 l 1
 447 0 l 1xb5
 140 0 l 1
 140 1612 l 1xb8
 447 1612 l 1
 447 1838 l 1
 720 1838 l 1
 720 1594 l 1xb4
 924 1538 1048 1364 1048 1185 c 0xda
 1048 1014 935 908 896 908 c 1xd9
463 1297 m 1xba
 463 982 l 1
 594 982 l 2
 671 982 746 1048 746 1142 c 0
 746 1233 675 1297 600 1297 c 2
 463 1297 l 1xba
719 316 m 2xb9
 824 316 936 388 936 512 c 0
 936 605 872 698 718 698 c 2
 463 698 l 1
 463 316 l 1
 719 316 l 2xb9
EndSplineSet
EndChar

StartChar: uni20BF
Encoding: 8383 8383 211
Width: 1284
GlyphClass: 2
Flags: MW
HStem: -225 541<463 530 327 719 617 719 719 771.5 463 820 617 617> 0 316<140 719 530 617 530 530> 698 210<463 973.5> 698 284<463 594 594 632.5 463 718 463 594> 1297 315<530 580 580 586.5 140 600 140 463> 1297 541<463 530 327 600 463 463>
VStem: 140 323<316 698 982 1297> 327 203<-225 0 -225 0 1612 1838> 617 203<-225 0 0 0 1611 1838> 746 302<1099.5 1187.5> 936 316<450 558.5>
AnchorPoint: "Anchor-1" 671 1612 basechar 0
AnchorPoint: "Anchor-0" 671 0 basechar 0
LayerCount: 2
Fore
SplineSet
1252 489 m 0x5aa0
 1252 269 1105 37 820 4 c 1
 820 -225 l 1
 617 -225 l 1x9aa0
 617 0 l 1
 530 0 l 1x59a0
 530 -225 l 1
 327 -225 l 1x99a0
 327 0 l 1x59a0
 140 0 l 1
 140 1612 l 1x5aa0
 327 1612 l 1x59a0
 327 1838 l 1
 530 1838 l 1x55a0
 530 1612 l 1
 580 1612 l 2
 593 1612 605 1612 617 1611 c 1x59a0
 617 1838 l 1
 820 1838 l 1
 820 1554 l 1x56a0
 964 1477 1048 1333 1048 1185 c 0x6a40
 1048 1014 935 908 896 908 c 1x6aa0
 1051 908 1252 748 1252 489 c 0x5aa0
600 1297 m 2
 463 1297 l 1
 463 982 l 1
 594 982 l 2
 671 982 746 1048 746 1142 c 0x5a40
 746 1233 675 1297 600 1297 c 2
719 316 m 2x5aa0
 824 316 936 388 936 512 c 0
 936 605 872 698 718 698 c 2
 463 698 l 1
 463 316 l 1
 719 316 l 2x5aa0
EndSplineSet
EndChar

StartChar: cent
Encoding: 162 162 212
Width: 1185
GlyphClass: 2
Flags: MW
HStem: -87 505<613.5 750 613.5 800 539 750> 1082 518.5 1363 20G<800 800>
VStem: 65 308<658 841.5 658 898> 539 261<-87 117 -87 132 -87 132 1383 1600 1600 1600>
AnchorPoint: "Anchor-1" 646 1350 basechar 0
AnchorPoint: "Anchor-0" 646 150 basechar 0
LayerCount: 2
Fore
SplineSet
1120 262 m 1xb8
 1031 186 921 135 800 117 c 1
 800 -87 l 1
 539 -87 l 1
 539 132 l 1
 265 205 65 454 65 750 c 0
 65 1046 265 1295 539 1368 c 1
 539 1600 l 1
 800 1601 l 1xd8
 800 1383 l 1xb8
 914 1366 1018 1319 1105 1250 c 1
 932 992 l 1
 873 1048 793 1082 706 1082 c 0xd8
 521 1082 373 933 373 750 c 0
 373 566 521 418 706 418 c 0
 794 418 874 452 933 508 c 1
 1120 262 l 1xb8
EndSplineSet
EndChar

StartChar: currency
Encoding: 164 164 213
Width: 1231
Flags: MW
HStem: 384 249<573 658.5> 979 249<575 657> 1204 20G<1161 1161>
VStem: 196 248<762 847> 790 251<762.5 849 762.5 858>
LayerCount: 2
Fore
SplineSet
1041 806 m 0xb8
 1041 719 1014 638 969 571 c 1
 1156 382 l 1
 1035 262 l 1
 846 452 l 1
 780 409 701 384 616 384 c 0
 530 384 448 411 381 457 c 1
 190 269 l 1
 70 391 l 1
 262 579 l 1
 220 644 196 721 196 803 c 0
 196 891 222 972 267 1040 c 1
 79 1230 l 1
 201 1351 l 1
 388 1160 l 1
 454 1203 532 1228 618 1228 c 0
 704 1228 783 1203 850 1159 c 1xd8
 1039 1346 l 1
 1161 1224 l 1
 972 1037 l 1
 1016 971 1041 892 1041 806 c 0xb8
618 633 m 0
 714 633 790 711 790 807 c 0
 790 909 702 979 612 979 c 0xd8
 518 979 444 903 444 806 c 0
 444 709 523 633 618 633 c 0
EndSplineSet
EndChar

StartChar: dollar
Encoding: 36 36 214
Width: 1264
GlyphClass: 2
Flags: MW
HStem: -225 519<558.5 704 558.5 790 517 704> -26 21G<517 517> -16 21G<790 790> 1328 510<616.5 722>
VStem: 140 326<1127 1216.5 1127 1297> 517 273<-225 -26 -26 -26 1637 1838> 882 326<399 501>
AnchorPoint: "Anchor-1" 645 1612 basechar 0
AnchorPoint: "Anchor-0" 645 0 basechar 0
LayerCount: 2
Fore
SplineSet
1208 449 m 0x3e
 1208 205 1043 35 790 -16 c 1x3e
 790 -225 l 1
 517 -225 l 1x9e
 517 -26 l 1x5e
 306 0 149 106 56 278 c 1
 315 460 l 1
 386 346 489 294 628 294 c 0x9e
 780 294 882 356 882 442 c 0
 882 560 689 653 520 737 c 0
 339 827 140 926 140 1183 c 0
 140 1411 298 1576 517 1628 c 1
 517 1838 l 1
 790 1838 l 1
 790 1637 l 1
 956 1609 1088 1519 1147 1360 c 1
 908 1193 l 1
 860 1289 767 1328 677 1328 c 0
 556 1328 466 1258 466 1175 c 0
 466 1079 588 1046 773 959 c 0
 1040 833 1208 697 1208 449 c 0x3e
EndSplineSet
EndChar

StartChar: Euro
Encoding: 8364 8364 215
Width: 1698
GlyphClass: 2
Flags: MW
HStem: -31 325<966 1133 966 1191> 601 162<87 227 87 252 70 227 599 599 599 1202> 862 162<87 228 70 256 607 1229> 1315 330<967 1063 873.5 1129.5> 1376 20G<1628 1628>
VStem: 70 1558<216 601 216 862> 226 328<798 813 796.5 814.5>
AnchorPoint: "Anchor-1" 1005 1612 basechar 0
AnchorPoint: "Anchor-0" 1035 0 basechar 0
LayerCount: 2
Fore
SplineSet
1059 294 m 0xec
 1207 294 1335 373 1442 478 c 1
 1628 216 l 1
 1486 75 1313 -31 1069 -31 c 0
 676 -31 345 243 252 601 c 1
 70 601 l 1
 87 763 l 1
 227 763 l 1
 226 777 226 791 226 805 c 0
 226 824 227 843 228 862 c 1
 70 862 l 1
 87 1024 l 1
 256 1024 l 1
 355 1377 684 1645 1063 1645 c 0xf2
 1273 1642 1459 1559 1628 1396 c 1xec
 1441 1141 l 1
 1331 1249 1199 1315 1060 1315 c 0
 874 1315 693 1196 607 1024 c 1
 1246 1024 l 1
 1229 862 l 1
 558 862 l 1
 555 843 554 823 554 803 c 0
 554 790 555 776 556 763 c 1xf2
 1219 763 l 1
 1202 601 l 1
 599 601 l 1
 683 418 873 294 1059 294 c 0xec
EndSplineSet
EndChar

StartChar: florin
Encoding: 402 402 216
Width: 1281
Flags: MW
HStem: 0 310<42 191 191 252 42 191> 700 280<120 467 120 521 825 1163 120 770> 1318 310<1029 1090 1090 1239>
VStem: 42 1197<0 1628 310 1628>
LayerCount: 2
Fore
SplineSet
1090 1318 m 2
 941 1318 886 1288 832 1015 c 2
 825 980 l 1
 1163 980 l 1
 1163 700 l 1
 770 700 l 1
 735 523 l 2
 665 170 562 0 252 0 c 2
 42 0 l 1
 42 310 l 1
 191 310 l 2
 324 310 390 310 456 646 c 2
 467 700 l 1
 120 700 l 1
 120 980 l 1
 521 980 l 1
 552 1138 l 2
 618 1478 732 1628 1029 1628 c 2
 1239 1628 l 1
 1239 1318 l 1
 1090 1318 l 2
EndSplineSet
EndChar

StartChar: franc
Encoding: 8355 8355 217
Width: 1154
GlyphClass: 2
Flags: MW
HStem: -2 21G<140 464 140 140> 256 230<10 140 10 140 464 799> 645 323<464 1020 464 1020> 1293 323<464 1112 464 464>
VStem: 140 324<-2 256 -2 256 486 645 968 1293>
AnchorPoint: "Anchor-1" 596 1612 basechar 0
AnchorPoint: "Anchor-0" 596 0 basechar 0
LayerCount: 2
Fore
SplineSet
1112 1293 m 1
 464 1293 l 1
 464 968 l 1
 1020 968 l 1
 1020 645 l 1
 464 645 l 1
 464 486 l 1
 799 486 l 1
 799 256 l 1
 464 256 l 1
 464 -2 l 1
 140 -2 l 1
 140 256 l 1
 10 256 l 1
 10 486 l 1
 140 486 l 1
 140 1616 l 1
 1112 1616 l 1
 1112 1293 l 1
EndSplineSet
EndChar

StartChar: uni20AD
Encoding: 8365 8365 218
Width: 1361
GlyphClass: 2
Flags: MW
HStem: 0 21G<140 463 140 140 953 1347 953 953> 670 280<10 140 10 140 463 486 880 880 880 1233> 1592 20G<140 463 463 463 916 1290 1290 1290>
VStem: 10 453<0 950 0 950> 140 323<0 670 0 670 950 1612>
AnchorPoint: "Anchor-1" 704 1612 basechar 0
AnchorPoint: "Anchor-0" 704 0 basechar 0
LayerCount: 2
Fore
SplineSet
953 0 m 1xe8
 488 670 l 1
 463 670 l 1
 463 0 l 1
 140 0 l 1
 140 670 l 1xe8
 10 670 l 1
 10 950 l 1xf0
 140 950 l 1
 140 1612 l 1
 463 1612 l 1
 463 950 l 1
 486 950 l 1
 916 1612 l 1
 1290 1612 l 1
 856 950 l 1
 1233 950 l 1
 1233 670 l 1
 880 670 l 1
 1347 0 l 1
 953 0 l 1xe8
EndSplineSet
EndChar

StartChar: lira
Encoding: 8356 8356 219
Width: 1186
Flags: MW
HStem: 0 291<70 194 523 1116 70 194> 528 209<78 245 78 270 78 245 594 594 594 845> 817 209<78 182 78 221 78 182 548 548 548 845> 1346 292<701.5 823>
VStem: 78 430<528 1042 737 1042 817 1042 1026 1042> 182 326<1026 1042 1026 1043 1026 1043>
LayerCount: 2
Fore
SplineSet
523 291 m 1xf4
 1116 291 l 1
 1116 0 l 1
 70 0 l 1
 70 291 l 1
 194 291 l 1
 239 370 263 449 270 528 c 1
 78 528 l 1
 78 737 l 1
 245 737 l 1
 221 817 l 1
 78 817 l 1
 78 1026 l 1xf8
 182 1026 l 1
 182 1043 l 2
 181 1378 417 1638 783 1638 c 0
 868 1638 993 1617 1093 1572 c 1
 936 1302 l 1
 908 1328 850 1346 796 1346 c 0
 607 1346 508 1202 508 1042 c 2
 508 1026 l 1
 845 1026 l 1
 845 817 l 1
 548 817 l 1
 556 790 565 764 572 737 c 1
 845 737 l 1
 845 528 l 1
 594 528 l 1
 589 438 568 365 523 291 c 1xf4
EndSplineSet
EndChar

StartChar: uni20A6
Encoding: 8358 8358 220
Width: 1636
GlyphClass: 2
Flags: MW
HStem: -30 21G<1451 1466 1451 1451> -2 21G<170 494 170 170> 670 280<10 170 10 170 1466 1626> 1596 20G<1141 1466 1466 1466>
VStem: 10 484<670 901 -2 950 -2 950> 170 324<-2 670 670 670 -2 1642> 1141 325<-30 950 950 1616> 1141 485<713 950 670 1616>
AnchorPoint: "Anchor-1" 818 1612 basechar 0
AnchorPoint: "Anchor-0" 818 0 basechar 0
LayerCount: 2
Fore
SplineSet
1626 950 m 1x75
 1626 670 l 1x75
 1466 670 l 1
 1466 -30 l 1
 1451 -30 l 1xb6
 494 901 l 1
 494 -2 l 1
 170 -2 l 1
 170 670 l 1x76
 10 670 l 1
 10 950 l 1x7a
 170 950 l 1
 170 1642 l 1
 186 1642 l 1
 1141 713 l 1
 1141 1616 l 1
 1466 1616 l 1
 1466 950 l 1x76
 1626 950 l 1x75
EndSplineSet
EndChar

StartChar: uni20B1
Encoding: 8369 8369 221
Width: 1551
GlyphClass: 2
Flags: MW
HStem: 0 21G<206 530 206 206> 524 320.5 840 210<42 206 42 206 1339 1509> 1090 210<42 206 42 206 1338 1509 1338 1338> 1291 321<530 772 530 530>
VStem: 206 324<0 524 0 840 0 840 1050 1090 1090 1090> 1015 324<1050 1067 1050 1131> 1015 494<1007.5 1050 1090 1131>
AnchorPoint: "Anchor-1" 743 1612 basechar 0
AnchorPoint: "Anchor-0" 743 0 basechar 0
LayerCount: 2
Fore
SplineSet
1509 1300 m 1xb5
 1509 1090 l 1xd5
 1338 1090 l 1
 1339 1082 1339 1075 1339 1067 c 2
 1339 1050 l 1xb6
 1509 1050 l 1
 1509 840 l 1
 1287 840 l 1xad
 1197 654 1000 524 772 524 c 2
 530 524 l 1xcc
 530 0 l 1
 206 0 l 1
 206 840 l 1
 42 840 l 1
 42 1050 l 1
 206 1050 l 1
 206 1090 l 1
 42 1090 l 1
 42 1300 l 1
 206 1300 l 1xb4
 206 1612 l 1
 772 1612 l 2xad
 997 1612 1193 1484 1284 1300 c 1
 1509 1300 l 1xb5
772 844 m 2
 906 843 1015 945 1015 1070 c 0
 1015 1192 906 1291 772 1291 c 2
 530 1291 l 1xad
 530 845 l 1
 772 844 l 2
EndSplineSet
EndChar

StartChar: uni20BD
Encoding: 8381 8381 222
Width: 1487
Flags: HMW
HStem: 0 453<70 608 70 284> 223 230<70 284 70 284 608 1030> 584 301<70 284 70 284> 584 320<608 932 608 932> 1291 321<608 608 608 850>
VStem: 284 324<0 223 0 223 453 584 905 1291> 1093 324<1037.5 1146>
LayerCount: 2
Fore
SplineSet
820 584 m 2x9e
 608 584 l 1
 608 453 l 1
 1030 453 l 1x9e
 1030 223 l 1
 608 223 l 1x5e
 608 0 l 1
 284 0 l 1x9e
 284 223 l 1
 70 223 l 1x5e
 70 453 l 1
 284 453 l 1
 284 584 l 1
 70 584 l 1x9e
 70 885 l 1
 284 885 l 1xae
 284 1612 l 1
 850 1612 l 2
 1192 1612 1417 1367 1417 1097 c 0
 1417 798 1162 584 820 584 c 2x9e
608 1291 m 1
 608 980 l 0
 608 905 l 1
 850 904 l 2
 1014 904 1093 975 1093 1100 c 0
 1093 1192 1015 1291 850 1291 c 2
 608 1291 l 1
EndSplineSet
EndChar

StartChar: uni20A8
Encoding: 8360 8360 223
Width: 1355
Flags: MW
HStem: 0 21G<872 1268 872 872> 601 244<556 720> 999 215<187 756 187 769 149 756 1110 1110 1110 1249> 1331 281<190 556 140 1290 1064 1064 1064 1240>
VStem: 140 1150<1331 1612>
LayerCount: 2
Fore
SplineSet
829 613 m 0
 801 604 756 599 720 601 c 1
 1268 0 l 1
 872 0 l 1
 162 837 l 1
 162 846 l 1
 556 845 l 2
 659 845 738 906 769 999 c 1
 149 999 l 1
 187 1214 l 1
 756 1214 l 1
 718 1288 644 1331 556 1331 c 2
 140 1331 l 1
 190 1612 l 1
 1290 1612 l 1
 1240 1331 l 1
 1064 1331 l 1
 1082 1295 1096 1256 1106 1214 c 1
 1287 1214 l 1
 1249 999 l 1
 1110 999 l 1
 1079 804 958 652 829 613 c 0
EndSplineSet
EndChar

StartChar: sterling
Encoding: 163 163 224
Width: 1186
Flags: MW
HStem: 0 291<70 194 523 1116 70 194> 666 230<78 200 78 263 78 200 589 589 589 845> 1346 292<701.5 823>
VStem: 182 326<1016.5 1043> 273 323<533.5 596>
LayerCount: 2
Fore
SplineSet
523 291 m 1xe8
 1116 291 l 1
 1116 0 l 1
 70 0 l 1
 70 291 l 1
 194 291 l 1
 249 388 273 485 273 582 c 0
 273 610 269 638 263 666 c 1xe8
 78 666 l 1
 78 896 l 1
 200 896 l 1
 189 942 182 990 182 1043 c 0
 181 1378 417 1638 783 1638 c 0
 868 1638 993 1617 1093 1572 c 1
 936 1302 l 1
 908 1328 850 1346 796 1346 c 0
 607 1346 508 1202 508 1042 c 0
 508 988 515 940 526 896 c 1xf0
 845 896 l 1
 845 666 l 1
 589 666 l 1
 593 639 596 612 596 582 c 0
 596 467 577 379 523 291 c 1xe8
EndSplineSet
EndChar

StartChar: uni20B8
Encoding: 8376 8376 225
Width: 1202
Flags: MW
HStem: 0 21G<439 764 439 439> 889 311<42 430 42 1160 755 1160 755 755> 1301 311<42 1160 42 1160>
VStem: 434.5 325
LayerCount: 2
Fore
SplineSet
42 1612 m 1
 1160 1612 l 1
 1160 1301 l 1
 42 1301 l 1
 42 1612 l 1
1160 1200 m 1
 1160 889 l 1
 755 889 l 1
 764 0 l 1
 439 0 l 1
 430 889 l 1
 42 889 l 1
 42 1200 l 1
 1160 1200 l 1
EndSplineSet
EndChar

StartChar: uni20AE
Encoding: 8366 8366 226
Width: 1202
GlyphClass: 2
Flags: MW
HStem: 0 21G<439 764 439 439> 1179 20G<1025 1025> 1291 321<42 439 42 1160 764 1160 764 764>
VStem: 439 325<0 366 366 366 0 687 0 687 1066 1291>
AnchorPoint: "Anchor-2" 601 806 basechar 0
AnchorPoint: "Anchor-1" 601 1612 basechar 0
AnchorPoint: "Anchor-0" 601 0 basechar 0
LayerCount: 2
Fore
SplineSet
1160 1291 m 1
 764 1291 l 1
 764 1066 l 1
 1025 1199 l 1
 1025 985 l 1
 764 852 l 1
 764 745 l 1
 1025 878 l 1
 1025 664 l 1
 764 531 l 1
 764 0 l 1
 439 0 l 1
 439 366 l 1
 176 232 l 1
 176 446 l 1
 439 580 l 1
 439 687 l 1
 176 553 l 1
 176 767 l 1
 439 901 l 1
 439 1291 l 1
 42 1291 l 1
 42 1612 l 1
 1160 1612 l 1
 1160 1291 l 1
EndSplineSet
EndChar

StartChar: uni20A9
Encoding: 8361 8361 227
Width: 1933
GlyphClass: 2
Flags: MW
HStem: -20 21G<546 564 546 546 1368 1387 1368 1368> 670 280<30 234 30 324 30 234 1699 1903> 1592 20G<21 370 370 370 1562 1912 1912 1912>
VStem: 21 1891<1612 1612>
AnchorPoint: "Anchor-1" 967 1612 basechar 0
AnchorPoint: "Anchor-0" 967 0 basechar 0
LayerCount: 2
Fore
SplineSet
1912 1612 m 1
 1699 950 l 1
 1903 950 l 1
 1903 670 l 1
 1609 670 l 1
 1387 -20 l 1
 1368 -20 l 1
 963 856 l 1
 564 -20 l 1
 546 -20 l 1
 324 670 l 1
 30 670 l 1
 30 950 l 1
 234 950 l 1
 21 1612 l 1
 370 1612 l 1
 618 799 l 1
 964 1606 l 1
 970 1606 l 1
 1315 800 l 1
 1562 1612 l 1
 1912 1612 l 1
EndSplineSet
EndChar

StartChar: yen
Encoding: 165 165 228
Width: 1461
GlyphClass: 2
Flags: MW
HStem: 0 21G<569 891 569 569> 302 249<122 569 122 569 891 1355> 659 249<122 452 122 569 122 452 1008 1355> 1592 20G<70 436 436 436 1024 1391 1391 1391>
VStem: 569 322<0 302 0 302 551 659>
AnchorPoint: "Anchor-2" 730 667 basechar 0
AnchorPoint: "Anchor-1" 731 1612 basechar 0
AnchorPoint: "Anchor-0" 731 0 basechar 0
LayerCount: 2
Fore
SplineSet
1391 1612 m 1
 1008 908 l 1
 1355 908 l 1
 1355 659 l 1
 891 659 l 1
 891 551 l 1
 1355 551 l 1
 1355 302 l 1
 891 302 l 1
 891 0 l 1
 569 0 l 1
 569 302 l 1
 122 302 l 1
 122 551 l 1
 569 551 l 1
 569 659 l 1
 122 659 l 1
 122 908 l 1
 452 908 l 1
 70 1612 l 1
 436 1612 l 1
 730 1052 l 1
 1024 1612 l 1
 1391 1612 l 1
EndSplineSet
EndChar

StartChar: plus
Encoding: 43 43 229
Width: 1281
Flags: MW
HStem: 626 300<140 491 140 491 791 1141>
VStem: 491 300<229 626 229 626 926 1322>
LayerCount: 2
Fore
SplineSet
1141 926 m 1
 1141 626 l 1
 791 626 l 1
 791 229 l 1
 491 229 l 1
 491 626 l 1
 140 626 l 1
 140 926 l 1
 491 926 l 1
 491 1322 l 1
 791 1322 l 1
 791 926 l 1
 1141 926 l 1
EndSplineSet
EndChar

StartChar: minus
Encoding: 8722 8722 230
Width: 1258
Flags: MW
HStem: 627 300<140 1118 140 1118>
VStem: 140 978<627 927 627 927>
LayerCount: 2
Fore
SplineSet
140 627 m 1
 140 927 l 1
 1118 927 l 1
 1118 627 l 1
 140 627 l 1
EndSplineSet
EndChar

StartChar: multiply
Encoding: 215 215 231
Width: 1356
Flags: MW
HStem: 214 1127<343 1013>
VStem: 140 1076<404 1151>
LayerCount: 2
Fore
SplineSet
1216 404 m 1
 1014 215 l 1
 678 574 l 1
 343 214 l 1
 141 402 l 1
 489 777 l 1
 140 1151 l 1
 342 1340 l 1
 678 980 l 1
 1013 1341 l 1
 1215 1151 l 1
 867 777 l 1
 1216 404 l 1
EndSplineSet
EndChar

StartChar: divide
Encoding: 247 247 232
Width: 1516
Flags: MW
HStem: 49 402<688 795 688 796.5> 635 269<140 1376 140 1376> 1076 401
VStem: 541 402<197 304 197 307 1222.5 1329.5>
LayerCount: 2
Fore
SplineSet
742 1076 m 0
 632 1075 541 1166 541 1277 c 0
 541 1387 633 1477 740 1477 c 0
 850 1477 943 1383 943 1276 c 0
 943 1169 851 1077 742 1076 c 0
140 635 m 1
 140 904 l 1
 1376 904 l 1
 1376 635 l 1
 140 635 l 1
741 49 m 0
 633 49 541 140 541 251 c 0
 541 363 635 451 741 451 c 0
 849 451 943 358 943 250 c 0
 943 144 852 49 741 49 c 0
EndSplineSet
EndChar

StartChar: equal
Encoding: 61 61 233
Width: 1396
Flags: MW
HStem: 351 283<140 1256 140 1256> 916 284<140 1256 140 1256>
VStem: 140 1116<351 634 351 634 916 1200 351 1200>
LayerCount: 2
Fore
SplineSet
140 916 m 1
 140 1200 l 1
 1256 1200 l 1
 1256 916 l 1
 140 916 l 1
140 351 m 1
 140 634 l 1
 1256 634 l 1
 1256 351 l 1
 140 351 l 1
EndSplineSet
EndChar

StartChar: notequal
Encoding: 8800 8800 234
Width: 1396
Flags: MW
HStem: 351 283<140 479 140 576 766 1256 140 669> 916 284<140 673 140 770 960 1256 140 863>
VStem: 140 1116<351 634 351 634 916 1200 351 1200>
LayerCount: 2
Fore
SplineSet
1256 916 m 1
 863 916 l 1
 766 634 l 1
 1256 634 l 1
 1256 351 l 1
 669 351 l 1
 560 32 l 1
 370 32 l 1
 479 351 l 1
 140 351 l 1
 140 634 l 1
 576 634 l 1
 673 916 l 1
 140 916 l 1
 140 1200 l 1
 770 1200 l 1
 891 1552 l 1
 1081 1552 l 1
 960 1200 l 1
 1256 1200 l 1
 1256 916 l 1
EndSplineSet
EndChar

StartChar: greater
Encoding: 62 62 235
Width: 1249
Flags: MW
HStem: 208 1240<140 150>
VStem: 140 969<818 1448>
LayerCount: 2
Fore
SplineSet
150 208 m 1
 150 546 l 1
 648 828 l 1
 150 1111 l 1
 140 1448 l 1
 1109 838 l 1
 1109 818 l 1
 150 208 l 1
EndSplineSet
EndChar

StartChar: less
Encoding: 60 60 236
Width: 1249
Flags: MW
HStem: 208 1240<1099 1109>
VStem: 140 969<818 1448 838 1448>
LayerCount: 2
Fore
SplineSet
1099 208 m 1
 140 818 l 1
 140 838 l 1
 1109 1448 l 1
 1099 1111 l 1
 601 828 l 1
 1099 546 l 1
 1099 208 l 1
EndSplineSet
EndChar

StartChar: greaterequal
Encoding: 8805 8805 237
Width: 1265
Flags: MW
HStem: 100 230<149 1125 149 1125>
VStem: 140 985
LayerCount: 2
Fore
SplineSet
150 526 m 1
 150 797 l 1
 648 1022 l 1
 150 1249 l 1
 140 1518 l 1
 1109 1030 l 1
 1109 1014 l 1
 150 526 l 1
1125 100 m 1
 149 100 l 1
 149 330 l 1
 1125 330 l 1
 1125 100 l 1
EndSplineSet
EndChar

StartChar: lessequal
Encoding: 8804 8804 238
Width: 1265
Flags: MW
HStem: 100 230<140 1116 140 1116>
VStem: 140 985
LayerCount: 2
Fore
SplineSet
1115 526 m 1
 156 1014 l 1
 156 1030 l 1
 1125 1518 l 1
 1115 1249 l 1
 617 1022 l 1
 1115 797 l 1
 1115 526 l 1
140 100 m 1
 140 330 l 1
 1116 330 l 1
 1116 100 l 1
 140 100 l 1
EndSplineSet
EndChar

StartChar: plusminus
Encoding: 177 177 239
Width: 1171
Flags: MW
HStem: 200 253<140 1031 140 1031> 874 273<140 436 140 436 736 1031> 1392 20G<436 736 736 736>
VStem: 436 300<579 874 579 874 1147 1412>
LayerCount: 2
Fore
SplineSet
736 1147 m 1
 1031 1147 l 1
 1031 874 l 1
 736 874 l 1
 736 579 l 1
 436 579 l 1
 436 874 l 1
 140 874 l 1
 140 1147 l 1
 436 1147 l 1
 436 1412 l 1
 736 1412 l 1
 736 1147 l 1
140 200 m 1
 140 453 l 1
 1031 453 l 1
 1031 200 l 1
 140 200 l 1
EndSplineSet
EndChar

StartChar: approxequal
Encoding: 8776 8776 240
Width: 1349
Flags: MW
HStem: 344 216<807 911.5 807 918> 509 216<436.5 542> 857 216<807 911.5 807 918> 1022 216<436.5 542>
VStem: 140 1069<422 647 647 935>
LayerCount: 2
Fore
SplineSet
341 857 m 1x58
 140 935 l 1
 196 1209 384 1238 477 1238 c 0x58
 674 1238 742 1073 872 1073 c 0x68
 951 1073 986 1143 1007 1238 c 1x58
 1209 1160 l 1
 1153 886 964 857 872 857 c 0x68
 674 857 607 1022 477 1022 c 0
 396 1022 362 952 341 857 c 1x58
341 344 m 1
 140 422 l 1
 196 696 384 725 477 725 c 0x58
 674 725 742 560 872 560 c 0
 951 560 986 630 1007 725 c 1
 1209 647 l 1
 1153 373 964 344 872 344 c 0x98
 674 344 607 509 477 509 c 0
 396 509 362 439 341 344 c 1
EndSplineSet
EndChar

StartChar: asciitilde
Encoding: 126 126 241
Width: 1595
GlyphClass: 2
Flags: MW
HStem: 555 266<961 1089.5 961 1097.5> 758 266<504.5 634>
VStem: 140 1315<651 928>
AnchorPoint: "Anchor-1" 798 936 basechar 0
LayerCount: 2
Fore
SplineSet
388 555 m 1x60
 140 651 l 1
 209 989 441 1024 554 1024 c 0x60
 798 1024 881 821 1041 821 c 0
 1138 821 1182 907 1207 1024 c 1
 1455 928 l 1
 1386 590 1154 555 1041 555 c 0xa0
 798 555 714 758 554 758 c 0
 455 758 414 672 388 555 c 1x60
EndSplineSet
EndChar

StartChar: logicalnot
Encoding: 172 172 242
Width: 1481
Flags: MW
HStem: 736 300<140 1041 140 1341>
VStem: 1041 300<409 736 736 736>
LayerCount: 2
Fore
SplineSet
140 1036 m 1
 1341 1036 l 1
 1341 409 l 1
 1041 409 l 1
 1041 736 l 1
 140 736 l 1
 140 1036 l 1
EndSplineSet
EndChar

StartChar: asciicircum
Encoding: 94 94 243
Width: 950
Flags: MW
HStem: 1660 20G<464 484 484 484>
VStem: 21 908<1096 1096>
LayerCount: 2
Fore
SplineSet
21 1096 m 1
 464 1680 l 1
 484 1680 l 1
 929 1096 l 1
 648 1096 l 1
 475 1321 l 1
 301 1096 l 1
 21 1096 l 1
EndSplineSet
EndChar

StartChar: emptyset
Encoding: 8709 8709 244
Width: 1489
Flags: MW
HStem: -15 21G<109 350 109 109> 92 276<720 853.5 720 929.5> 1164 277<633.5 761.5> 1371 20G<997 997>
VStem: 70 273<716 875 716 951> 1142 277<656 821>
LayerCount: 2
Fore
SplineSet
1172 1287 m 1xdc
 1323 1164 1419 976 1419 768 c 0
 1419 396 1115 92 744 92 c 0
 642 92 545 115 458 156 c 1
 350 -15 l 1
 109 -15 l 1
 289 270 l 1
 154 393 70 570 70 765 c 0
 70 1137 373 1441 744 1441 c 0xec
 834 1441 919 1423 997 1391 c 1
 1128 1598 l 1
 1368 1598 l 1
 1172 1287 l 1xdc
343 765 m 0
 343 667 379 577 439 508 c 1
 845 1151 l 1
 813 1159 779 1164 744 1164 c 0xec
 523 1164 343 985 343 765 c 0
744 368 m 0
 963 368 1142 547 1142 765 c 0
 1142 877 1096 977 1022 1050 c 1
 607 392 l 1
 650 376 696 368 744 368 c 0
EndSplineSet
EndChar

StartChar: infinity
Encoding: 8734 8734 245
Width: 2372
Flags: MW
HStem: 235 287<557.5 707.5 557.5 735.5 1664.5 1814.5> 1098 287<556 707.5 1664.5 1816>
VStem: 70 289<730 889.5 730 970.5> 2013 289<730 889.5>
LayerCount: 2
Fore
SplineSet
1747 1385 m 0
 2052 1385 2302 1131 2302 810 c 0
 2302 488 2052 235 1747 235 c 0
 1526 235 1322 353 1186 532 c 1
 1050 353 846 235 625 235 c 0
 320 235 70 488 70 810 c 0
 70 1131 320 1385 625 1385 c 0
 846 1385 1050 1267 1186 1088 c 1
 1322 1267 1526 1385 1747 1385 c 0
628 522 m 0
 787 522 937 643 1048 810 c 1
 937 976 787 1098 628 1098 c 0
 484 1098 359 969 359 810 c 0
 359 650 487 522 628 522 c 0
1744 522 m 0
 1885 522 2013 650 2013 810 c 0
 2013 969 1888 1098 1744 1098 c 0
 1585 1098 1435 976 1324 810 c 1
 1435 643 1585 522 1744 522 c 0
EndSplineSet
EndChar

StartChar: integral
Encoding: 8747 8747 246
Width: 1181
Flags: MW
HStem: -300 290<42 141 42 141 141 200 42 202> 1610 290<981 1040 1040 1139>
VStem: 42 1097
LayerCount: 2
Fore
SplineSet
42 -300 m 1
 42 -10 l 1
 141 -10 l 2
 259 -10 339 80 356 201 c 2
 548 1537 l 2
 583 1778 734 1900 979 1900 c 2
 1139 1900 l 1
 1139 1610 l 1
 1040 1610 l 2
 922 1610 842 1520 825 1399 c 2
 633 63 l 2
 598 -178 447 -300 202 -300 c 2
 42 -300 l 1
EndSplineSet
EndChar

StartChar: product
Encoding: 8719 8719 247
Width: 1484
Flags: MW
HStem: 1650 300<42 278 42 1442 598 898 598 598 1218 1442 1218 1218>
VStem: 278 320<-250 1650 -250 1650> 898 320<-250 1650 -250 1650>
LayerCount: 2
Fore
SplineSet
1442 1950 m 1
 1442 1650 l 1
 1218 1650 l 1
 1218 -250 l 1
 898 -250 l 1
 898 1650 l 1
 598 1650 l 1
 598 -250 l 1
 278 -250 l 1
 278 1650 l 1
 42 1650 l 1
 42 1950 l 1
 1442 1950 l 1
EndSplineSet
EndChar

StartChar: summation
Encoding: 8721 8721 248
Width: 1482
Flags: MW
HStem: -299.49 299 0 21G<558 558> 1600 300<558 1384 558 558>
VStem: 21 1363<1882 1900 1600 1900>
LayerCount: 2
Fore
SplineSet
1384 1900 m 1
 1384 1600 l 1
 558 1600 l 1
 1037 802 l 1
 1037 799 l 1
 558 0 l 1x70
 1383 -1 l 1
 1383 -300 l 1
 21 -299 l 1
 21 -281 l 1
 673 801 l 1
 21 1882 l 1
 21 1900 l 1
 1384 1900 l 1
EndSplineSet
EndChar

StartChar: radical
Encoding: 8730 8730 249
Width: 1062
Flags: MW
HStem: 1856 300<1181 1562 1181 1181>
VStem: 21 1541<1262 2156>
LayerCount: 2
Fore
SplineSet
1562 2156 m 1
 1562 1856 l 1
 1181 1856 l 1
 517 -56 l 1
 495 -56 l 1
 21 1262 l 1
 330 1262 l 1
 502 702 l 1
 982 2156 l 1
 1562 2156 l 1
EndSplineSet
EndChar

StartChar: uni00B5
Encoding: 181 181 250
Width: 1350
GlyphClass: 2
Flags: MW
HStem: -450 21G<130 438 130 130> -30 298<712.5 757 604 898> 1180 20G<130 438 438 438 912 1220 1220 1220>
VStem: 130 308<-450 111 461 551 551 1200> 912 308<551 1200>
AnchorPoint: "Anchor-2" 337 -215 basechar 0
AnchorPoint: "Anchor-1" 778 1200 basechar 0
AnchorPoint: "Anchor-0" 778 -412 basechar 0
LayerCount: 2
Fore
SplineSet
912 1200 m 1
 1220 1200 l 1
 1220 551 l 2
 1220 83 1013 -30 783 -30 c 0
 642 -30 524 22 438 111 c 1
 438 -450 l 1
 130 -450 l 1
 130 1200 l 1
 438 1200 l 1
 438 551 l 2
 438 371 528 268 680 268 c 0
 834 268 912 341 912 551 c 2
 912 1200 l 1
EndSplineSet
EndChar

StartChar: partialdiff
Encoding: 8706 8706 251
Width: 1261
Flags: MW
HStem: -40 308<569.5 721 569.5 795.5> 772 308<570.5 660.5 433.5 713.5> 1606 20G<714 714>
VStem: 65 308<450.5 592 450.5 674> 905 291<460 583.5>
LayerCount: 2
Fore
SplineSet
619 -40 m 0
 282 -40 65 220 65 520 c 0
 65 828 287 1080 580 1080 c 0
 741 1080 876 1006 915 888 c 1
 894 1129 742 1315 464 1441 c 1
 714 1626 l 1
 931 1536 1196 1230 1196 675 c 0
 1196 245 972 -40 619 -40 c 0
645 268 m 0
 797 268 905 383 905 515 c 0
 905 652 787 772 640 772 c 0
 501 772 373 664 373 520 c 0
 373 381 494 268 645 268 c 0
EndSplineSet
EndChar

StartChar: percent
Encoding: 37 37 252
Width: 1770
Flags: MW
HStem: -20 209<1275 1368.5 1275 1425> 0 21G<193 193 193 464> 524 210<1275 1368.5> 877 209<400 493.5 400 550> 1421 210<400 493.5> 1593 20G<1292 1562 1562 1562>
VStem: 70 208<1207 1299.5 1207 1356.5> 614 211<1207 1299.5> 945 208<310.5 403 310.5 460.5> 1489 211<310.5 403>
LayerCount: 2
Fore
SplineSet
447 877 m 0xb7c0
 242 877 70 1046 70 1253 c 0
 70 1460 242 1631 448 1631 c 0xbbc0
 654 1631 825 1461 825 1254 c 0
 825 1047 653 877 447 877 c 0xb7c0
193 0 m 1x77c0
 1292 1613 l 1
 1562 1613 l 1
 464 0 l 1
 193 0 l 1x77c0
447 1086 m 0
 540 1086 614 1161 614 1253 c 0
 614 1346 540 1421 447 1421 c 0xbbc0
 353 1421 278 1346 278 1253 c 0
 278 1161 353 1086 447 1086 c 0
1322 -20 m 0xb7c0
 1117 -20 945 150 945 357 c 0
 945 564 1117 734 1323 734 c 0
 1529 734 1700 565 1700 358 c 0
 1700 151 1528 -20 1322 -20 c 0xb7c0
1322 189 m 0
 1415 189 1489 264 1489 357 c 0
 1489 449 1415 524 1322 524 c 0
 1228 524 1153 449 1153 357 c 0
 1153 264 1228 189 1322 189 c 0
EndSplineSet
EndChar

StartChar: perthousand
Encoding: 8240 8240 253
Width: 2577
Flags: MW
HStem: -20 209<1275 1368.5 1275 1425 2082 2175.5> 0 21G<193 193 193 464> 524 210<1275 1368.5 2082 2175.5> 877 209<400 493.5 400 550> 1421 210<400 493.5> 1593 20G<1292 1562 1562 1562>
VStem: 70 208<1207 1299.5 1207 1356.5> 614 211<1207 1299.5> 945 208<310.5 403 310.5 460.5> 1489 211<310.5 403> 1752 208<310.5 403 310.5 460.5> 2296 211<310.5 403>
LayerCount: 2
Fore
SplineSet
447 877 m 0xb7f0
 242 877 70 1046 70 1253 c 0
 70 1460 242 1631 448 1631 c 0x0b
 654 1631 825 1461 825 1254 c 0
 825 1047 653 877 447 877 c 0xb7f0
193 0 m 1x57
 1292 1613 l 1
 1562 1613 l 1
 464 0 l 1
 193 0 l 1x57
447 1086 m 0
 540 1086 614 1161 614 1253 c 0
 614 1346 540 1421 447 1421 c 0x0b
 353 1421 278 1346 278 1253 c 0
 278 1161 353 1086 447 1086 c 0
1322 -20 m 0xa0f0
 1117 -20 945 150 945 357 c 0
 945 564 1117 734 1323 734 c 0
 1529 734 1700 565 1700 358 c 0
 1700 151 1528 -20 1322 -20 c 0xa0f0
2129 -20 m 0
 1924 -20 1752 150 1752 357 c 0
 1752 564 1924 734 2130 734 c 0
 2336 734 2507 565 2507 358 c 0
 2507 151 2335 -20 2129 -20 c 0
1322 189 m 0
 1415 189 1489 264 1489 357 c 0
 1489 449 1415 524 1322 524 c 0
 1228 524 1153 449 1153 357 c 0
 1153 264 1228 189 1322 189 c 0
2129 189 m 0
 2222 189 2296 264 2296 357 c 0
 2296 449 2222 524 2129 524 c 0
 2035 524 1960 449 1960 357 c 0
 1960 264 2035 189 2129 189 c 0
EndSplineSet
EndChar

StartChar: arrowup
Encoding: 8593 8593 254
Width: 2148
Flags: MW
HStem: -101 1748<1074 1074 1074 1214 934 1074>
VStem: 934 280<-101 1156 -101 1156>
LayerCount: 2
Fore
SplineSet
1690 1011 m 1
 1522 843 l 1
 1214 1156 l 1
 1214 -101 l 1
 934 -101 l 1
 934 1156 l 1
 626 843 l 1
 458 1011 l 1
 1074 1647 l 1
 1690 1011 l 1
EndSplineSet
EndChar

StartChar: uni2197
Encoding: 8599 8599 255
Width: 2148
Flags: MW
HStem: 1162 250 1378 20G<857 857>
VStem: 1492 243
LayerCount: 2
Fore
SplineSet
857 1398 m 1x60
 1742 1412 l 1
 1728 527 l 1
 1490 527 l 1
 1494 966 l 1
 605 77 l 1
 407 275 l 1
 1296 1164 l 1
 857 1160 l 1xa0
 857 1398 l 1x60
EndSplineSet
EndChar

StartChar: arrowright
Encoding: 8594 8594 256
Width: 2148
Flags: MW
HStem: 633 280<200 1457 200 1457> 1201 20G<1144 1144> 1369 20G<1312 1312>
VStem: 200 1748<773 773 773 913 773 913>
LayerCount: 2
Fore
SplineSet
1312 1389 m 1
 1948 773 l 1
 1312 157 l 1
 1144 325 l 1
 1457 633 l 1
 200 633 l 1
 200 913 l 1
 1457 913 l 1
 1144 1221 l 1
 1312 1389 l 1
EndSplineSet
EndChar

StartChar: uni2198
Encoding: 8600 8600 257
Width: 2148
Flags: MW
HStem: 142 243
VStem: 1491 243
LayerCount: 2
Fore
SplineSet
856 149 m 1
 856 387 l 1
 1295 383 l 1
 406 1272 l 1
 604 1470 l 1
 1493 581 l 1
 1489 1020 l 1
 1727 1020 l 1
 1741 135 l 1
 856 149 l 1
EndSplineSet
EndChar

StartChar: arrowdown
Encoding: 8595 8595 258
Width: 2148
Flags: MW
HStem: -101 1748<1074 1074>
VStem: 934 280<390 1647 390 1647>
LayerCount: 2
Fore
SplineSet
1522 703 m 1
 1690 535 l 1
 1074 -101 l 1
 458 535 l 1
 626 703 l 1
 934 390 l 1
 934 1647 l 1
 1214 1647 l 1
 1214 390 l 1
 1522 703 l 1
EndSplineSet
EndChar

StartChar: uni2199
Encoding: 8601 8601 259
Width: 2148
Flags: MW
HStem: 162 243
VStem: 463 243
LayerCount: 2
Fore
SplineSet
1791 1292 m 1
 902 403 l 1
 1341 407 l 1
 1341 169 l 1
 456 155 l 1
 470 1040 l 1
 708 1040 l 1
 704 601 l 1
 1593 1490 l 1
 1791 1292 l 1
EndSplineSet
EndChar

StartChar: arrowleft
Encoding: 8592 8592 260
Width: 2148
Flags: MW
HStem: 633 280<691 1948 691 1948> 1201 20G<1004 1004> 1369 20G<836 836>
VStem: 200 1748<773 773>
LayerCount: 2
Fore
SplineSet
1948 913 m 1
 1948 633 l 1
 691 633 l 1
 1004 325 l 1
 836 157 l 1
 200 773 l 1
 836 1389 l 1
 1004 1221 l 1
 691 913 l 1
 1948 913 l 1
EndSplineSet
EndChar

StartChar: uni2196
Encoding: 8598 8598 261
Width: 2148
Flags: MW
HStem: 1141 250 1357 20G<1341 1341>
VStem: 463 243
LayerCount: 2
Fore
SplineSet
1791 254 m 1xa0
 1593 56 l 1
 704 945 l 1
 708 506 l 1
 470 506 l 1
 456 1391 l 1xa0
 1341 1377 l 1x60
 1341 1139 l 1
 902 1143 l 1
 1791 254 l 1xa0
EndSplineSet
EndChar

StartChar: arrowboth
Encoding: 8596 8596 262
Width: 2148
Flags: MW
HStem: 633 280<611 1537 611 1537> 1201 20G<924 924 1224 1224> 1369 20G<756 756 1392 1392>
VStem: 120 1908<773 773>
LayerCount: 2
Fore
SplineSet
1392 1389 m 1
 2028 773 l 1
 1392 157 l 1
 1224 325 l 1
 1537 633 l 1
 611 633 l 1
 924 325 l 1
 756 157 l 1
 120 773 l 1
 756 1389 l 1
 924 1221 l 1
 611 913 l 1
 1537 913 l 1
 1224 1221 l 1
 1392 1389 l 1
EndSplineSet
EndChar

StartChar: arrowupdn
Encoding: 8597 8597 263
Width: 2148
Flags: MW
HStem: -181 1908<1074 1074>
VStem: 934 280<310 1236 310 1236>
LayerCount: 2
Fore
SplineSet
1690 455 m 1
 1074 -181 l 1
 458 455 l 1
 626 623 l 1
 934 310 l 1
 934 1236 l 1
 626 923 l 1
 458 1091 l 1
 1074 1727 l 1
 1690 1091 l 1
 1522 923 l 1
 1214 1236 l 1
 1214 310 l 1
 1522 623 l 1
 1690 455 l 1
EndSplineSet
EndChar

StartChar: lozenge
Encoding: 9674 9674 264
Width: 1197
Flags: MW
HStem: 44 1470<596 596>
VStem: 200 797<779 779>
LayerCount: 2
Fore
SplineSet
596 1514 m 1
 997 779 l 1
 596 44 l 1
 200 779 l 1
 596 1514 l 1
596 399 m 1
 797 779 l 1
 596 1159 l 1
 399 779 l 1
 596 399 l 1
EndSplineSet
EndChar

StartChar: at
Encoding: 64 64 265
Width: 2315
Flags: MW
HStem: -480 299<874.5 1142> -51 242<1611 1738 1611 1788.5> 137 254<1067 1079> 781 256 1365 315
VStem: 70 317<295 729 295 791.5> 697 259<510.5 614 510.5 643.5> 1289 257 1914 331<614.5 948>
LayerCount: 2
Fore
SplineSet
1073 -480 m 0xdf80
 344 -480 70 -14 70 450 c 0
 70 1133 618 1680 1307 1680 c 0
 1922 1680 2245 1252 2245 779 c 0
 2245 363 1983 -51 1594 -51 c 0xdf80
 1387 -51 1285 85 1289 306 c 1
 1278 207 1144 137 1014 137 c 0xbf80
 823 137 697 287 697 507 c 0
 697 780 869 1038 1126 1037 c 0
 1246 1036 1341 971 1341 877 c 1
 1404 1028 l 1
 1627 1028 l 1
 1550 402 l 2
 1548 383 1546 364 1546 345 c 0
 1546 265 1571 191 1651 191 c 0
 1825 191 1914 502 1914 727 c 0
 1914 1169 1609 1369 1253 1365 c 0
 766 1361 387 973 387 485 c 0
 387 105 644 -181 1105 -181 c 0
 1184 -181 1238 -173 1319 -139 c 1
 1401 -417 l 1
 1277 -464 1211 -480 1073 -480 c 0xdf80
1114 391 m 0xbf80
 1228 391 1309 506 1309 620 c 0
 1309 702 1265 781 1163 781 c 0
 1046 781 956 671 956 557 c 0
 956 464 1020 391 1114 391 c 0xbf80
EndSplineSet
EndChar

StartChar: ampersand
Encoding: 38 38 266
Width: 1523
Flags: MW
HStem: -36 317<528 645 528 711> -15 21G<1480 1480> 1361 298<630 690.5>
VStem: 70 307<421.5 527.5 421.5 553> 219 320<1184.5 1261.5 1138 1334.5> 1009 303<805 809>
LayerCount: 2
Fore
SplineSet
1481 285 m 1x74
 1480 -15 l 1x74
 1367 -14 1222 46 1071 143 c 1
 954 26 800 -36 622 -36 c 0
 245 -36 70 245 70 460 c 0xb4
 70 646 200 835 321 916 c 1
 257 1030 219 1139 219 1230 c 0
 219 1439 421 1659 671 1659 c 0
 894 1659 1072 1482 1112 1297 c 1
 802 1235 l 1
 785 1304 721 1361 660 1361 c 0
 600 1361 539 1305 539 1218 c 0x6c
 539 1058 742 788 971 580 c 1
 993 648 1005 724 1009 805 c 1
 1312 809 l 1
 1308 645 1278 502 1228 382 c 1
 1325 322 1414 285 1481 285 c 1x74
605 281 m 0xb4
 685 281 753 302 809 341 c 1
 690 444 577 561 482 681 c 1
 424 632 377 571 377 484 c 0
 377 359 451 281 605 281 c 0xb4
EndSplineSet
EndChar

StartChar: paragraph
Encoding: 182 182 267
Width: 1545
Flags: MW
HStem: 1630 20G<687 957 957 957 1125 1345 1345 1345>
VStem: 732 225<-102 702 702 702> 1125 220<-110 1650 -110 1650>
LayerCount: 2
Fore
SplineSet
200 1176 m 0
 200 1437 419 1650 687 1650 c 2
 957 1650 l 1
 957 -102 l 1
 732 -102 l 1
 732 702 l 1
 687 702 l 2
 419 702 200 915 200 1176 c 0
1125 1650 m 1
 1345 1650 l 1
 1345 -110 l 1
 1125 -110 l 1
 1125 1650 l 1
EndSplineSet
EndChar

StartChar: section
Encoding: 167 167 268
Width: 1330
Flags: MW
HStem: -62 300<601.5 706 601.5 786> 1380 300<642 716>
VStem: 237 298<810.5 866.5 810.5 900> 244 308<1270.5 1330 1270.5 1427.5> 815 308<287.5 359.5> 832 298<761 813>
LayerCount: 2
Fore
SplineSet
1033 558 m 1xd8
 1090 503 1123 435 1123 338 c 0
 1123 95 914 -62 658 -62 c 0
 438 -62 263 54 200 181 c 1
 373 382 l 1
 431 300 533 238 670 238 c 0
 742 238 815 255 815 320 c 0
 815 399 709 439 568 494 c 0
 416 553 237 644 237 853 c 0xe8
 237 947 273 1027 339 1087 c 1
 283 1142 244 1213 244 1311 c 0
 244 1544 463 1680 686 1680 c 0
 860 1680 1035 1589 1093 1460 c 1
 881 1282 l 1
 829 1347 759 1380 673 1380 c 0
 611 1380 552 1363 552 1297 c 0
 552 1244 591 1240 776 1163 c 0
 982 1077 1130 995 1130 796 c 0xd4
 1130 707 1100 624 1033 558 c 1xd8
535 840 m 0xe4
 535 781 597 774 769 704 c 1
 770 704 l 1
 806 718 832 743 832 779 c 0
 832 847 745 887 637 929 c 1
 584 922 535 893 535 840 c 0xe4
EndSplineSet
EndChar

StartChar: copyright
Encoding: 169 169 269
Width: 1742
Flags: MW
HStem: -89 157<695.5 1047.5 695.5 1091> 232 233<823.5 927.5 823.5 954> 971 234<823.5 927> 1358 155<694.5 1047.5>
VStem: 70 157<535.5 889 535.5 935.5> 406 235<649 788.5 649 852.5> 1515 157<535.5 889>
LayerCount: 2
Fore
SplineSet
871 -89 m 0
 424 -89 70 266 70 713 c 0
 70 1158 422 1513 871 1513 c 0
 1321 1513 1672 1152 1672 713 c 0
 1672 262 1311 -89 871 -89 c 0
871 68 m 0
 1224 68 1515 359 1515 712 c 0
 1515 1066 1224 1358 871 1358 c 0
 518 1358 227 1066 227 712 c 0
 227 359 520 68 871 68 c 0
894 232 m 0
 623 232 406 449 406 719 c 0
 406 986 623 1205 894 1205 c 0
 1008 1205 1113 1165 1197 1099 c 1
 1065 902 l 1
 1021 945 960 971 894 971 c 0
 753 971 641 858 641 719 c 0
 641 579 753 465 894 465 c 0
 961 465 1021 492 1066 534 c 1
 1208 347 l 1
 1124 275 1014 232 894 232 c 0
EndSplineSet
EndChar

StartChar: registered
Encoding: 174 174 270
Width: 1060
Flags: MW
HStem: 712 94<433 627.5 433 654> 941 249<478 479 388 537 478 734 478 623> 1154 36<479 479> 1304 90<478 478 478 535 535 537> 1519 93<432.5 627.5>
VStem: 80 94<1064.5 1260 1064.5 1287.5> 387.5 90.5 387.5 91.5 595 94<1231 1263> 886 94<1064.5 1260>
LayerCount: 2
Fore
SplineSet
530 1612 m 0xddc0
 783 1612 980 1410 980 1163 c 0
 980 909 778 712 530 712 c 0
 279 712 80 912 80 1163 c 0
 80 1412 278 1612 530 1612 c 0xddc0
530 806 m 0
 725 806 886 967 886 1162 c 0
 886 1358 725 1519 530 1519 c 0
 335 1519 174 1358 174 1162 c 0
 174 967 336 806 530 806 c 0
689 1248 m 0
 689 1190 654 1138 606 1121 c 1
 734 941 l 1
 623 941 l 1xddc0
 479 1154 l 1xbdc0
 479 941 l 1
 388 941 l 1
 387 1394 l 1
 535 1394 l 2
 620 1394 689 1329 689 1248 c 0
478 1304 m 1xbec0
 478 1190 l 1
 537 1190 l 2
 568 1190 595 1215 595 1247 c 0
 595 1279 568 1304 537 1304 c 2
 478 1304 l 1xbec0
EndSplineSet
EndChar

StartChar: trademark
Encoding: 8482 8482 271
Width: 1303
GlyphClass: 2
Flags: MW
HStem: 1476 136<51 525 51 219 357 357 357 525>
VStem: 51 306<928 1612 928 1612> 219 138<928 1476 928 1476> 219 306<928 1612 1476 1612> 600 8<928 1629 1629 1629> 600 138<928 1225 928 1629> 1133 137<928 1226 1226 1226> 1262 8<928 1629>
AnchorPoint: "Anchor-2" 288 1270 basechar 0
AnchorPoint: "Anchor-1" 935 1612 basechar 0
AnchorPoint: "Anchor-0" 935 928 basechar 0
LayerCount: 2
Fore
SplineSet
1262 1629 m 1xa9
 1270 1629 l 1
 1270 928 l 1
 1133 928 l 1
 1133 1226 l 1
 936 939 l 1
 935 939 l 1
 738 1225 l 1
 738 928 l 1
 600 928 l 1xc6
 600 1629 l 1
 608 1629 l 1
 935 1177 l 1
 1262 1629 l 1xa9
51 1476 m 1
 51 1612 l 1xc6
 525 1612 l 1
 525 1476 l 1x96
 357 1476 l 1
 357 928 l 1
 219 928 l 1
 219 1476 l 1xa6
 51 1476 l 1
EndSplineSet
Substitution2: "'ss05' Style Set 5 in Latin lookup 9 subtable" trademark.ss05
Substitution2: "'ss04' Style Set 4 in Latin lookup 8 subtable" trademark.ss04
AlternateSubs2: "'aalt' Access All Alternates in Latin lookup 1 subtable" trademark.ss04 trademark.ss05
EndChar

StartChar: trademark.ss04
Encoding: 65560 -1 272
Width: 1436
GlyphClass: 2
Flags: MW
HStem: 931 135<319 328.5> 1360 140<70 145 70 145 289 400> 1360 252<70 289 70 289 145 400 145 289> 1375 143<790.5 810.5 1133.5 1161.5> 1396 20G
VStem: 145 144<1128 1360 1500 1612> 145 255<945 1360> 521 136.5 521 143<940 1243 940 1500> 871 144<940 1243 940 1290.5> 1222 144<940 1243 940 1290.5>
AnchorPoint: "Anchor-3" 330 1701 basechar 0
AnchorPoint: "Anchor-2" 233 1236 basechar 0
AnchorPoint: "Anchor-1" 219 1612 basechar 0
AnchorPoint: "Anchor-0" 247 940 basechar 0
LayerCount: 2
Fore
SplineSet
289 1612 m 1xa4e0
 289 1500 l 1xc4e0
 400 1500 l 1xc2e0
 400 1360 l 1xa2e0
 289 1360 l 1
 289 1128 l 2
 289 1126 289 1066 349 1066 c 0xa4e0
 366 1066 385 1071 400 1077 c 1
 400 945 l 1xa2e0
 374 937 345 931 312 931 c 0
 194 931 145 1005 145 1128 c 2
 145 1360 l 1
 70 1360 l 1xa4e0
 70 1500 l 1
 145 1500 l 1xc4e0
 145 1612 l 1
 289 1612 l 1xa4e0
1176 1518 m 0x94e0
 1279 1518 1366 1461 1366 1243 c 2
 1366 940 l 1
 1222 940 l 1
 1222 1243 l 2
 1222 1338 1195 1375 1128 1375 c 0
 1051 1375 1015 1327 1015 1243 c 2
 1015 940 l 1
 871 940 l 1
 871 1243 l 2
 871 1338 844 1375 777 1375 c 0x94e0
 700 1375 664 1327 664 1243 c 2
 664 940 l 1
 521 940 l 1
 521 1500 l 1xc4e0
 655 1500 l 1xc560
 660 1448 l 1
 700 1492 756 1518 825 1518 c 0x9560
 892 1518 953 1494 986 1416 c 1x8ce0
 1026 1479 1091 1518 1176 1518 c 0x94e0
EndSplineSet
EndChar

StartChar: trademark.ss05
Encoding: 65561 -1 273
Width: 1454
GlyphClass: 2
Flags: MW
HStem: 928 366<21 383 21 245> 1190 104<21 245 21 245 383 626 952 952 952 971 1296 1433> 1476 136<77 245 77 551 383 383 383 551>
VStem: 245 138<928 1190 928 1190 1294 1476> 626 8<1294 1629 1629 1629> 626 138<928 1190 928 1190 928 1629> 1159 137<928 1190 928 1190>
AnchorPoint: "Anchor-2" 314 1270 basechar 0
AnchorPoint: "Anchor-1" 961 1612 basechar 0
AnchorPoint: "Anchor-0" 961 928 basechar 0
LayerCount: 2
Fore
SplineSet
1433 1294 m 1x76
 1433 1190 l 1
 1296 1190 l 1x76
 1296 928 l 1
 1159 928 l 1xb6
 1159 1190 l 1
 1134 1190 l 1
 962 939 l 1
 961 939 l 1
 788 1190 l 1
 764 1190 l 1x76
 764 928 l 1
 626 928 l 1xb6
 626 1190 l 1
 383 1190 l 1x76
 383 928 l 1
 245 928 l 1xb6
 245 1190 l 1
 21 1190 l 1
 21 1294 l 1
 245 1294 l 1
 245 1476 l 1
 77 1476 l 1
 77 1612 l 1
 551 1612 l 1
 551 1476 l 1
 383 1476 l 1
 383 1294 l 1
 626 1294 l 1x76
 626 1629 l 1
 634 1629 l 1x7a
 876 1294 l 1
 1046 1294 l 1
 1288 1629 l 1
 1296 1629 l 1
 1296 1294 l 1
 1433 1294 l 1x76
961 1177 m 1
 971 1190 l 1
 952 1190 l 1
 961 1177 l 1
EndSplineSet
EndChar

StartChar: degree
Encoding: 176 176 274
Width: 694
Flags: MW
HStem: 1079 144<308 385 308 423.5> 1501 143<310 384.5>
VStem: 65 143<1323.5 1399.5 1323.5 1437.5> 486 143<1323.5 1399.5>
LayerCount: 2
Fore
SplineSet
347 1079 m 0
 194 1079 65 1208 65 1361 c 0
 65 1514 193 1644 347 1644 c 0
 501 1644 629 1515 629 1361 c 0
 629 1206 500 1079 347 1079 c 0
347 1223 m 0
 423 1223 486 1285 486 1362 c 0
 486 1437 422 1501 347 1501 c 0
 273 1501 208 1438 208 1361 c 0
 208 1286 269 1223 347 1223 c 0
EndSplineSet
EndChar

StartChar: bar
Encoding: 124 124 275
Width: 593
Flags: MW
HStem: -450 21G<200 200 200 393>
VStem: 200 193<-450 1850 -450 1850>
LayerCount: 2
Fore
SplineSet
200 -450 m 1
 200 1850 l 1
 393 1850 l 1
 393 -450 l 1
 200 -450 l 1
EndSplineSet
EndChar

StartChar: brokenbar
Encoding: 166 166 276
Width: 593
Flags: MW
HStem: -450 21G<200 200 200 393>
VStem: 200 193<-450 550 -450 550 850 1850>
LayerCount: 2
Fore
SplineSet
200 850 m 1
 200 1850 l 1
 393 1850 l 1
 393 850 l 1
 200 850 l 1
200 -450 m 1
 200 550 l 1
 393 550 l 1
 393 -450 l 1
 200 -450 l 1
EndSplineSet
EndChar

StartChar: dagger
Encoding: 8224 8224 277
Width: 683
Flags: MW
HStem: 0 21G<251 432 251 251> 1257 163<21 251 21 251 432 662> 1257 393<21 432 21 432 251 662 251 432>
VStem: 21 411<0 1420 0 1420> 251 181<0 1257 0 1257 1420 1650> 251 411<0 1420 1257 1420 1257 1650 1257 1650>
LayerCount: 2
Fore
SplineSet
662 1420 m 1xc4
 662 1257 l 1xc4
 432 1257 l 1
 432 0 l 1
 251 0 l 1
 251 1257 l 1xc8
 21 1257 l 1
 21 1420 l 1xd0
 251 1420 l 1xc8
 251 1650 l 1
 432 1650 l 1xa8
 432 1420 l 1xc8
 662 1420 l 1xc4
EndSplineSet
EndChar

StartChar: daggerdbl
Encoding: 8225 8225 278
Width: 683
Flags: MW
HStem: 0 393<21 432 21 251> 230 163<21 251 21 251 432 662> 1257 163<21 251 21 251 432 662> 1257 393<21 432 21 432 251 662 251 432>
VStem: 21 411<0 393 0 393> 251 181<0 230 0 230 393 1257 1420 1650> 251 411<0 393 230 393 230 1257>
LayerCount: 2
Fore
SplineSet
662 1257 m 1xa2
 432 1257 l 1
 432 393 l 1xa4
 662 393 l 1xa2
 662 230 l 1x62
 432 230 l 1x64
 432 0 l 1
 251 0 l 1xa4
 251 230 l 1x64
 21 230 l 1x68
 21 393 l 1xa8
 251 393 l 1
 251 1257 l 1xa4
 21 1257 l 1
 21 1420 l 1xa8
 251 1420 l 1xa4
 251 1650 l 1
 432 1650 l 1x94
 432 1420 l 1xa4
 662 1420 l 1
 662 1257 l 1xa2
EndSplineSet
EndChar

StartChar: estimated
Encoding: 8494 8494 279
Width: 1942
Flags: MW
HStem: -32 99<892.5 1154.5 892.5 1199.5> 744 112<368 1594 368 1864 368 1594> 1537 99<884.5 1129>
VStem: 70 298<565 744 856 1034.5> 1594 278<856 1080 849.5 1300 849.5 1300>
LayerCount: 2
Fore
SplineSet
1001 -32 m 0
 516 -32 70 328 70 802 c 0
 70 1267 501 1636 1007 1636 c 0
 1498 1636 1872 1289 1872 871 c 0
 1872 828 1868 773 1864 744 c 1
 368 744 l 1
 368 328 l 1
 549 155 783 67 1002 67 c 0
 1307 67 1587 237 1681 419 c 1
 1790 419 l 1
 1697 209 1398 -32 1001 -32 c 0
368 856 m 1
 1594 856 l 1
 1594 1300 l 1
 1445 1439 1251 1537 1007 1537 c 0
 762 1537 539 1438 368 1279 c 1
 368 856 l 1
EndSplineSet
EndChar

StartChar: uni02BC
Encoding: 700 700 280
Width: 412
Flags: MW
HStem: 1120 530<21 391 91 271>
VStem: 21 370
LayerCount: 2
Fore
SplineSet
21 1120 m 1
 91 1650 l 1
 391 1650 l 1
 271 1120 l 1
 21 1120 l 1
EndSplineSet
EndChar

StartChar: uni0308
Encoding: 776 776 281
Width: 0
GlyphClass: 4
Flags: MW
HStem: 1366 241<-562 -496.5 -113.5 -48>
VStem: -650 241<1453 1518.5> -201 241<1453 1518.5>
AnchorPoint: "Anchor-12" -305 1607 basemark 0
AnchorPoint: "Anchor-12" -305 1200 mark 0
AnchorPoint: "Anchor-10" -305 1200 mark 0
AnchorPoint: "Anchor-6" -305 1200 mark 0
AnchorPoint: "Anchor-1" -305 1200 mark 0
LayerCount: 2
Fore
SplineSet
-529 1366 m 0
 -595 1366 -650 1420 -650 1486 c 0
 -650 1551 -595 1607 -529 1607 c 0
 -464 1607 -409 1551 -409 1486 c 0
 -409 1420 -464 1366 -529 1366 c 0
-81 1366 m 0
 -147 1366 -201 1420 -201 1486 c 0
 -201 1551 -146 1607 -81 1607 c 0
 -15 1607 40 1551 40 1486 c 0
 40 1420 -15 1366 -81 1366 c 0
EndSplineSet
EndChar

StartChar: uni0307
Encoding: 775 775 282
Width: 0
GlyphClass: 4
Flags: MW
HStem: 1364 280<-337.5 -261 -337.5 -261>
VStem: -439 280<1464.5 1540>
AnchorPoint: "Anchor-12" -300 1629 basemark 0
AnchorPoint: "Anchor-12" -300 1200 mark 0
AnchorPoint: "Anchor-10" -300 1200 mark 0
AnchorPoint: "Anchor-6" -300 1200 mark 0
AnchorPoint: "Anchor-1" -300 1200 mark 0
LayerCount: 2
Fore
SplineSet
-299 1364 m 0
 -377 1364 -439 1427 -439 1502 c 0
 -439 1578 -376 1644 -299 1644 c 0
 -223 1644 -159 1578 -159 1503 c 0
 -159 1426 -223 1364 -299 1364 c 0
EndSplineSet
EndChar

StartChar: gravecomb
Encoding: 768 768 283
Width: 0
GlyphClass: 4
Flags: MW
HStem: 1333 327<-229 -229 -229 -187 -467 0>
VStem: -467 467<1333 1660>
AnchorPoint: "Anchor-12" -234 1660 basemark 0
AnchorPoint: "Anchor-12" -234 1200 mark 0
AnchorPoint: "Anchor-10" -234 1200 mark 0
AnchorPoint: "Anchor-6" -234 1200 mark 0
AnchorPoint: "Anchor-1" -234 1200 mark 0
LayerCount: 2
Fore
SplineSet
-229 1333 m 1
 -467 1660 l 1
 -187 1660 l 1
 0 1333 l 1
 -229 1333 l 1
EndSplineSet
EndChar

StartChar: acutecomb
Encoding: 769 769 284
Width: 0
GlyphClass: 4
Flags: MW
HStem: 1333 327<-280 -238 -467 0>
VStem: -467 467<1333 1660>
AnchorPoint: "Anchor-12" -218 1650 basemark 0
AnchorPoint: "Anchor-12" -308 1200 mark 0
AnchorPoint: "Anchor-10" -308 1200 mark 0
AnchorPoint: "Anchor-6" -308 1200 mark 0
AnchorPoint: "Anchor-1" -308 1200 mark 0
LayerCount: 2
Fore
SplineSet
-238 1333 m 1
 -467 1333 l 1
 -280 1660 l 1
 0 1660 l 1
 -238 1333 l 1
EndSplineSet
EndChar

StartChar: uni030B
Encoding: 779 779 285
Width: 0
GlyphClass: 4
Flags: MW
HStem: 1333 327<-756 -360 -610 -558 -417 -360 -210 -208 -417 -417>
VStem: -756 816<1333 1660>
AnchorPoint: "Anchor-12" -418 1660 basemark 0
AnchorPoint: "Anchor-12" -418 1200 mark 0
AnchorPoint: "Anchor-10" -418 1200 mark 0
AnchorPoint: "Anchor-6" -418 1200 mark 0
AnchorPoint: "Anchor-1" -418 1200 mark 0
LayerCount: 2
Fore
SplineSet
-756 1333 m 1
 -610 1660 l 1
 -360 1660 l 1
 -558 1333 l 1
 -756 1333 l 1
-417 1333 m 1
 -210 1660 l 1
 60 1660 l 1
 -208 1333 l 1
 -417 1333 l 1
EndSplineSet
EndChar

StartChar: uni030C.alt
Encoding: 65562 -1 286
Width: 0
GlyphClass: 4
Flags: MW
HStem: 1280 470<-320 0 -250 -120>
VStem: -320 320
AnchorPoint: "Anchor-8" -320 1612 mark 0
AnchorPoint: "Anchor-3" -320 1612 mark 0
LayerCount: 2
Fore
SplineSet
-320 1280 m 1
 -250 1750 l 1
 0 1750 l 1
 -120 1280 l 1
 -320 1280 l 1
EndSplineSet
EndChar

StartChar: uni0302
Encoding: 770 770 287
Width: 0
GlyphClass: 4
Flags: MW
HStem: 1347 293<-753 -259 -438 -199 -438 60>
VStem: -753 813<1347 1347>
AnchorPoint: "Anchor-12" -347 1640 basemark 0
AnchorPoint: "Anchor-12" -347 1200 mark 0
AnchorPoint: "Anchor-10" -347 1200 mark 0
AnchorPoint: "Anchor-6" -347 1200 mark 0
AnchorPoint: "Anchor-1" -347 1200 mark 0
LayerCount: 2
Fore
SplineSet
-753 1347 m 1
 -438 1640 l 1
 -259 1640 l 1
 60 1347 l 1
 -199 1347 l 1
 -348 1494 l 1
 -496 1347 l 1
 -753 1347 l 1
EndSplineSet
EndChar

StartChar: uni030C
Encoding: 780 780 288
Width: 0
GlyphClass: 4
Flags: MW
HStem: 1347 293<-753 -259 -753 -438>
VStem: -753 813<1640 1640>
AnchorPoint: "Anchor-12" -347 1650 basemark 0
AnchorPoint: "Anchor-12" -347 1200 mark 0
AnchorPoint: "Anchor-10" -347 1200 mark 0
AnchorPoint: "Anchor-6" -347 1200 mark 0
AnchorPoint: "Anchor-1" -347 1200 mark 0
LayerCount: 2
Fore
SplineSet
-753 1640 m 1
 -496 1640 l 1
 -348 1493 l 1
 -199 1640 l 1
 60 1640 l 1
 -259 1347 l 1
 -438 1347 l 1
 -753 1640 l 1
EndSplineSet
EndChar

StartChar: uni0306
Encoding: 774 774 289
Width: 0
GlyphClass: 4
Flags: MW
HStem: 1351 141<-339.5 -262 -339.5 -221> 1351 291<-591 -221>
VStem: -591 150<1600.5 1642 1600.5 1642> -160 150<1600.5 1642>
AnchorPoint: "Anchor-12" -301 1642 basemark 0
AnchorPoint: "Anchor-12" -301 1200 mark 0
AnchorPoint: "Anchor-10" -301 1200 mark 0
AnchorPoint: "Anchor-6" -301 1200 mark 0
AnchorPoint: "Anchor-1" -301 1200 mark 0
LayerCount: 2
Fore
SplineSet
-301 1351 m 0xb0
 -461 1351 -591 1482 -591 1642 c 1
 -441 1642 l 1x70
 -441 1559 -378 1492 -301 1492 c 0xb0
 -223 1492 -160 1559 -160 1642 c 1
 -10 1642 l 1x70
 -10 1482 -141 1351 -301 1351 c 0xb0
EndSplineSet
EndChar

StartChar: uni030A
Encoding: 778 778 290
Width: 0
GlyphClass: 4
Flags: MW
HStem: 1296 131<-257 -207 -257 -172> 1608 132<-257 -207>
VStem: -454 131<1492 1542 1492 1579> -142 131<1492 1542>
AnchorPoint: "Anchor-12" -233 1740 basemark 0
AnchorPoint: "Anchor-12" -233 1200 mark 0
AnchorPoint: "Anchor-10" -233 1200 mark 0
AnchorPoint: "Anchor-6" -233 1200 mark 0
AnchorPoint: "Anchor-1" -233 1200 mark 0
LayerCount: 2
Fore
SplineSet
-232 1296 m 0
 -354 1296 -454 1396 -454 1518 c 0
 -454 1640 -354 1740 -232 1740 c 0
 -112 1740 -11 1639 -11 1518 c 0
 -11 1397 -112 1296 -232 1296 c 0
-232 1427 m 0
 -182 1427 -142 1467 -142 1517 c 0
 -142 1567 -182 1608 -232 1608 c 0
 -282 1608 -323 1567 -323 1517 c 0
 -323 1467 -282 1427 -232 1427 c 0
EndSplineSet
EndChar

StartChar: tildecomb
Encoding: 771 771 291
Width: 0
GlyphClass: 4
Flags: MW
HStem: 1357 166<-309 -228.5 -309 -223.5> 1397 20G<-822 -822> 1484 166<-594 -513>
VStem: -822 822<1417 1590>
AnchorPoint: "Anchor-12" -411 1595 basemark 0
AnchorPoint: "Anchor-12" -411 1200 mark 0
AnchorPoint: "Anchor-10" -411 1200 mark 0
AnchorPoint: "Anchor-6" -411 1200 mark 0
AnchorPoint: "Anchor-1" -411 1200 mark 0
LayerCount: 2
Fore
SplineSet
-667 1357 m 1x70
 -822 1417 l 1
 -779 1628 -634 1650 -563 1650 c 0x70
 -411 1650 -359 1523 -259 1523 c 0x90
 -198 1523 -171 1577 -155 1650 c 1x70
 0 1590 l 1
 -43 1379 -188 1357 -259 1357 c 0x90
 -411 1357 -463 1484 -563 1484 c 0
 -625 1484 -651 1430 -667 1357 c 1x70
EndSplineSet
EndChar

StartChar: uni0304
Encoding: 772 772 292
Width: 0
GlyphClass: 4
Flags: MW
HStem: 1396 162<-591 -9 -591 -9>
VStem: -591 582<1396 1558 1396 1558>
AnchorPoint: "Anchor-12" -300 1558 basemark 0
AnchorPoint: "Anchor-12" -300 1200 mark 0
AnchorPoint: "Anchor-10" -300 1200 mark 0
AnchorPoint: "Anchor-6" -300 1200 mark 0
AnchorPoint: "Anchor-1" -300 1200 mark 0
LayerCount: 2
Fore
SplineSet
-591 1396 m 1
 -591 1558 l 1
 -9 1558 l 1
 -9 1396 l 1
 -591 1396 l 1
EndSplineSet
EndChar

StartChar: uni0312
Encoding: 786 786 293
Width: 0
GlyphClass: 4
Flags: MW
HStem: 1318 242<-276 -258> 1726 35<-293 -148>
VStem: -452 164<1438 1647.5> -452 299<1438 1484.5 1413 1563.5>
AnchorPoint: "Anchor-12" -303 1790 basemark 0
AnchorPoint: "Anchor-12" -303 1200 mark 0
AnchorPoint: "Anchor-10" -303 1200 mark 0
AnchorPoint: "Anchor-6" -303 1200 mark 0
AnchorPoint: "Anchor-1" -303 1200 mark 0
LayerCount: 2
Fore
SplineSet
-225 1761 m 0xe0
 -176 1761 -148 1736 -148 1726 c 1
 -201 1726 -288 1689 -288 1606 c 0xe0
 -288 1580 -285 1572 -276 1560 c 1
 -226 1560 -153 1521 -153 1448 c 0xd0
 -153 1378 -215 1318 -301 1318 c 0
 -383 1318 -452 1380 -452 1496 c 0
 -452 1631 -361 1761 -225 1761 c 0xe0
EndSplineSet
EndChar

StartChar: uni0326
Encoding: 806 806 294
Width: 0
GlyphClass: 4
Flags: MW
HStem: -567 35<-453 -308> -366 242<-343 -325>
VStem: -448 299<-290.5 -244 -369.5 -219> -313 164<-453.5 -244>
AnchorPoint: "Anchor-11" -303 -567 basemark 0
AnchorPoint: "Anchor-11" -303 -9 mark 0
AnchorPoint: "Anchor-9" -303 -9 mark 0
AnchorPoint: "Anchor-4" -303 -9 mark 0
AnchorPoint: "Anchor-0" -303 -9 mark 0
LayerCount: 2
Fore
SplineSet
-376 -567 m 0xd0
 -425 -567 -453 -542 -453 -532 c 1
 -400 -532 -313 -495 -313 -412 c 0xd0
 -313 -386 -316 -378 -325 -366 c 1
 -375 -366 -448 -327 -448 -254 c 0xe0
 -448 -184 -386 -124 -300 -124 c 0
 -218 -124 -149 -186 -149 -302 c 0
 -149 -437 -240 -567 -376 -567 c 0xd0
EndSplineSet
EndChar

StartChar: uni0327
Encoding: 807 807 295
Width: 0
GlyphClass: 4
Flags: MW
HStem: -550 196<-474 -462 -555 -360> -210 244<-373 -146>
VStem: -293 220<-290 -249.5>
AnchorPoint: "Anchor-11" -302 -550 basemark 0
AnchorPoint: "Anchor-11" -272 0 mark 0
AnchorPoint: "Anchor-9" -272 0 mark 0
AnchorPoint: "Anchor-4" -272 0 mark 0
AnchorPoint: "Anchor-0" -272 0 mark 0
LayerCount: 2
Fore
SplineSet
-474 -550 m 1
 -555 -354 l 1
 -369 -354 -293 -317 -293 -263 c 0
 -293 -236 -312 -210 -366 -210 c 0
 -380 -210 -397 -212 -416 -216 c 1
 -456 -164 l 1
 -305 34 l 1
 -146 34 l 1
 -250 -97 l 1
 -234 -95 -224 -94 -208 -94 c 0
 -135 -94 -73 -161 -73 -253 c 0
 -73 -410 -246 -550 -474 -550 c 1
EndSplineSet
EndChar

StartChar: uni0328
Encoding: 808 808 296
Width: 0
GlyphClass: 4
Flags: MW
HStem: -554 228<-288.5 -249> 0 21G<-121 -121>
VStem: -556 229<-254.5 -235.5>
AnchorPoint: "Anchor-5" -121 0 mark 0
LayerCount: 2
Fore
SplineSet
-107 -534 m 1
 -169 -548 -225 -554 -273 -554 c 0
 -455 -554 -556 -466 -556 -320 c 0
 -556 -151 -422 -17 -269 28 c 1
 -121 0 l 1
 -262 -103 -327 -168 -327 -244 c 0
 -327 -265 -322 -326 -255 -326 c 0
 -236 -326 -191 -321 -142 -310 c 1
 -107 -534 l 1
EndSplineSet
EndChar

StartChar: uni0335
Encoding: 821 821 297
Width: 0
GlyphClass: 4
Flags: MW
HStem: 628 230<-789 0 -789 0>
VStem: -789 789<628 858 628 858>
AnchorPoint: "Anchor-7" -395 743 mark 0
AnchorPoint: "Anchor-2" -395 743 mark 0
LayerCount: 2
Fore
SplineSet
-789 628 m 1
 -789 858 l 1
 0 858 l 1
 0 628 l 1
 -789 628 l 1
EndSplineSet
EndChar

StartChar: uni0336
Encoding: 822 822 298
Width: 0
GlyphClass: 4
Flags: MW
HStem: 628 230<-1042 425 -1042 425>
VStem: -1042 1467<628 858 628 858>
AnchorPoint: "Anchor-7" -308 743 mark 0
AnchorPoint: "Anchor-2" -308 743 mark 0
LayerCount: 2
Fore
SplineSet
-1042 628 m 1
 -1042 858 l 1
 425 858 l 1
 425 628 l 1
 -1042 628 l 1
EndSplineSet
EndChar

StartChar: uni0337
Encoding: 823 823 299
Width: 0
GlyphClass: 4
Flags: MW
HStem: 921 764<-661 47>
VStem: -661 708<921 1685 1174 1685>
AnchorPoint: "Anchor-7" -298 1322 mark 0
AnchorPoint: "Anchor-2" -298 1322 mark 0
LayerCount: 2
Fore
SplineSet
-661 921 m 1
 -661 1174 l 1
 47 1685 l 1
 47 1431 l 1
 -661 921 l 1
EndSplineSet
EndChar

StartChar: uni0338
Encoding: 824 824 300
Width: 0
GlyphClass: 4
Flags: MW
HStem: -112 1405<-1209 25 -1209 25>
VStem: -1209 1234
AnchorPoint: "Anchor-7" -587 600 mark 0
AnchorPoint: "Anchor-2" -587 600 mark 0
LayerCount: 2
Fore
SplineSet
-1209 -112 m 1
 -248 1293 l 1
 25 1293 l 1
 -935 -112 l 1
 -1209 -112 l 1
EndSplineSet
Substitution2: "Single Substitution lookup 10 subtable" uni0338.case
Substitution2: "'case' Case-Sensitive Forms in Latin lookup 7 subtable" uni0338.case
Substitution2: "'aalt' Access All Alternates in Latin lookup 0 subtable" uni0338.case
EndChar

StartChar: uni0338.case
Encoding: 65563 -1 301
Width: 0
GlyphClass: 4
Flags: MW
HStem: 1630 20G<166 439 439 439>
VStem: -1031 1470
AnchorPoint: "Anchor-7" -299 807 mark 0
AnchorPoint: "Anchor-2" -299 807 mark 0
LayerCount: 2
Fore
SplineSet
-1031 -82 m 1
 166 1650 l 1
 439 1650 l 1
 -757 -82 l 1
 -1031 -82 l 1
EndSplineSet
EndChar

StartChar: dieresis
Encoding: 168 168 302
Width: 600
Flags: MW
HStem: 1366 241<38 103.5 486.5 552>
VStem: -50 241<1453 1518.5> 399 241<1453 1518.5>
AnchorPoint: "Anchor-12" 295 1607 basemark 0
LayerCount: 2
Fore
SplineSet
71 1366 m 0
 5 1366 -50 1420 -50 1486 c 0
 -50 1551 5 1607 71 1607 c 0
 136 1607 191 1551 191 1486 c 0
 191 1420 136 1366 71 1366 c 0
519 1366 m 0
 453 1366 399 1420 399 1486 c 0
 399 1551 454 1607 519 1607 c 0
 585 1607 640 1551 640 1486 c 0
 640 1420 585 1366 519 1366 c 0
EndSplineSet
EndChar

StartChar: dotaccent
Encoding: 729 729 303
Width: 600
Flags: MW
HStem: 1364 280<262.5 339 262.5 339>
VStem: 161 280<1464.5 1540>
AnchorPoint: "Anchor-12" 301 1629 basemark 0
LayerCount: 2
Fore
SplineSet
301 1364 m 0
 223 1364 161 1427 161 1502 c 0
 161 1578 224 1644 301 1644 c 0
 377 1644 441 1578 441 1503 c 0
 441 1426 377 1364 301 1364 c 0
EndSplineSet
EndChar

StartChar: grave
Encoding: 96 96 304
Width: 600
Flags: MW
HStem: 1333 327<238 238 238 280 0 467>
VStem: 0 467<1333 1660>
AnchorPoint: "Anchor-12" 234 1660 basemark 0
LayerCount: 2
Fore
SplineSet
238 1333 m 1
 0 1660 l 1
 280 1660 l 1
 467 1333 l 1
 238 1333 l 1
EndSplineSet
EndChar

StartChar: acute
Encoding: 180 180 305
Width: 600
Flags: MW
HStem: 1333 327<187 229 0 467>
VStem: 0 467<1333 1660>
AnchorPoint: "Anchor-12" 249 1650 basemark 0
LayerCount: 2
Fore
SplineSet
229 1333 m 1
 0 1333 l 1
 187 1660 l 1
 467 1660 l 1
 229 1333 l 1
EndSplineSet
EndChar

StartChar: hungarumlaut
Encoding: 733 733 306
Width: 600
Flags: MW
HStem: 1333 327<-20 376 126 178 319 376 526 528 319 319>
VStem: -20 816<1333 1660>
AnchorPoint: "Anchor-12" 318 1660 basemark 0
LayerCount: 2
Fore
SplineSet
-20 1333 m 1
 126 1660 l 1
 376 1660 l 1
 178 1333 l 1
 -20 1333 l 1
319 1333 m 1
 526 1660 l 1
 796 1660 l 1
 528 1333 l 1
 319 1333 l 1
EndSplineSet
EndChar

StartChar: circumflex
Encoding: 710 710 307
Width: 600
Flags: MW
HStem: 1347 293<-60 434 255 494 255 753>
VStem: -60 813<1347 1347>
AnchorPoint: "Anchor-12" 347 1640 basemark 0
LayerCount: 2
Fore
SplineSet
-60 1347 m 1
 255 1640 l 1
 434 1640 l 1
 753 1347 l 1
 494 1347 l 1
 345 1494 l 1
 197 1347 l 1
 -60 1347 l 1
EndSplineSet
EndChar

StartChar: caron
Encoding: 711 711 308
Width: 600
Flags: MW
HStem: 1347 293<-60 434 -60 255>
VStem: -60 813<1640 1640>
AnchorPoint: "Anchor-12" 347 1650 basemark 0
LayerCount: 2
Fore
SplineSet
-60 1640 m 1
 197 1640 l 1
 345 1493 l 1
 494 1640 l 1
 753 1640 l 1
 434 1347 l 1
 255 1347 l 1
 -60 1640 l 1
EndSplineSet
EndChar

StartChar: breve
Encoding: 728 728 309
Width: 600
Flags: MW
HStem: 1351 141<260.5 338 260.5 379> 1351 291<9 379>
VStem: 9 150<1600.5 1642 1600.5 1642> 440 150<1600.5 1642>
AnchorPoint: "Anchor-12" 300 1642 basemark 0
LayerCount: 2
Fore
SplineSet
299 1351 m 0xb0
 139 1351 9 1482 9 1642 c 1
 159 1642 l 1x70
 159 1559 222 1492 299 1492 c 0xb0
 377 1492 440 1559 440 1642 c 1
 590 1642 l 1x70
 590 1482 459 1351 299 1351 c 0xb0
EndSplineSet
EndChar

StartChar: ring
Encoding: 730 730 310
Width: 600
Flags: MW
HStem: 1296 131<208 258 208 293> 1608 132<208 258>
VStem: 11 131<1492 1542 1492 1579> 323 131<1492 1542>
AnchorPoint: "Anchor-12" 233 1740 basemark 0
LayerCount: 2
Fore
SplineSet
233 1296 m 0
 111 1296 11 1396 11 1518 c 0
 11 1640 111 1740 233 1740 c 0
 353 1740 454 1639 454 1518 c 0
 454 1397 353 1296 233 1296 c 0
233 1427 m 0
 283 1427 323 1467 323 1517 c 0
 323 1567 283 1608 233 1608 c 0
 183 1608 142 1567 142 1517 c 0
 142 1467 183 1427 233 1427 c 0
EndSplineSet
EndChar

StartChar: tilde
Encoding: 732 732 311
Width: 741
Flags: MW
HStem: 1357 166<513 593.5 513 598.5> 1397 20G<0 0> 1484 166<228 309>
VStem: 0 822<1417 1590>
AnchorPoint: "Anchor-12" 411 1595 basemark 0
LayerCount: 2
Fore
SplineSet
155 1357 m 1x70
 0 1417 l 1
 43 1628 188 1650 259 1650 c 0x70
 411 1650 463 1523 563 1523 c 0x90
 624 1523 651 1577 667 1650 c 1x70
 822 1590 l 1
 779 1379 634 1357 563 1357 c 0x90
 411 1357 359 1484 259 1484 c 0
 197 1484 171 1430 155 1357 c 1x70
EndSplineSet
EndChar

StartChar: macron
Encoding: 175 175 312
Width: 600
Flags: MW
HStem: 1396 162<9 591 9 591>
VStem: 9 582<1396 1558 1396 1558>
AnchorPoint: "Anchor-12" 300 1558 basemark 0
LayerCount: 2
Fore
SplineSet
9 1396 m 1
 9 1558 l 1
 591 1558 l 1
 591 1396 l 1
 9 1396 l 1
EndSplineSet
EndChar

StartChar: cedilla
Encoding: 184 184 313
Width: 600
Flags: MW
HStem: -550 196<126 138 45 240> -210 244<227 454>
VStem: 307 220<-290 -249.5>
AnchorPoint: "Anchor-11" 298 -550 basemark 0
LayerCount: 2
Fore
SplineSet
126 -550 m 1
 45 -354 l 1
 231 -354 307 -317 307 -263 c 0
 307 -236 288 -210 234 -210 c 0
 220 -210 203 -212 184 -216 c 1
 144 -164 l 1
 295 34 l 1
 454 34 l 1
 350 -97 l 1
 366 -95 376 -94 392 -94 c 0
 465 -94 527 -161 527 -253 c 0
 527 -410 354 -550 126 -550 c 1
EndSplineSet
EndChar

StartChar: ogonek
Encoding: 731 731 314
Width: 600
Flags: MW
HStem: -554 228<311.5 351> 0 21G<479 479>
VStem: 44 229<-254.5 -235.5>
LayerCount: 2
Fore
SplineSet
493 -534 m 1
 431 -548 375 -554 327 -554 c 0
 145 -554 44 -466 44 -320 c 0
 44 -151 178 -17 331 28 c 1
 479 0 l 1
 338 -103 273 -168 273 -244 c 0
 273 -265 278 -326 345 -326 c 0
 364 -326 409 -321 458 -310 c 1
 493 -534 l 1
EndSplineSet
EndChar

StartChar: uni219E
Encoding: 8606 8606 315
Width: 2460
Flags: HMW
HStem: 332 60 844 60
VStem: 1839 60
LayerCount: 2
Fore
SplineSet
763 1152 m 1
 2338 1152 l 1
 2338 183 l 1
 763 183 l 1
 195 636 l 1
 763 1152 l 1
1469.03027344 814.609375 m 1
 1273.86816406 1009.77148438 l 1
 1133.578125 869.481445312 l 1
 1328.74023438 674.319335938 l 1
 1134.70996094 480.290039062 l 1
 1275 340 l 1
 1469.02929688 534.029296875 l 1
 1669.84765625 333.211914062 l 1
 1810.13867188 473.501953125 l 1
 1609.3203125 674.3203125 l 1
 1811.26953125 876.26953125 l 1
 1670.98046875 1016.55957031 l 1
 1469.03027344 814.609375 l 1
EndSplineSet
EndChar
